<?xml version="1.0" encoding="UTF-8"?>
<svg version="1.1" viewBox="0 0 234 333" xmlns="http://www.w3.org/2000/svg" xmlns:cc="http://creativecommons.org/ns#" xmlns:dc="http://purl.org/dc/elements/1.1/" xmlns:rdf="http://www.w3.org/1999/02/22-rdf-syntax-ns#">
<title>Three of Clubs Playing Card</title>
<metadata>
<rdf:RDF>
<cc:Work rdf:about="">
<dc:format>image/svg+xml</dc:format>
<dc:type rdf:resource="http://purl.org/dc/dcmitype/StillImage"/>
<dc:title>Three of Clubs Playing Card</dc:title>
<dc:date>2020-05-04</dc:date>
<dc:creator>
<cc:Agent>
<dc:title>Daniel S. Fowler</dc:title>
</cc:Agent>
</dc:creator>
<dc:rights>
<cc:Agent>
<dc:title>Public Domain</dc:title>
</cc:Agent>
</dc:rights>
<dc:publisher>
<cc:Agent>
<dc:title>https://tekeye.uk</dc:title>
</cc:Agent>
</dc:publisher>
<dc:language>en-GB</dc:language>
<dc:subject>
<rdf:Bag>
<rdf:li>three; clubs; playing; card; black; white;</rdf:li>
</rdf:Bag>
</dc:subject>
<dc:description>A three of clubs playing card in black and white.</dc:description>
<cc:license rdf:resource="http://creativecommons.org/publicdomain/zero/1.0/"/>
</cc:Work>
<cc:License rdf:about="http://creativecommons.org/publicdomain/zero/1.0/">
<cc:permits rdf:resource="http://creativecommons.org/ns#Reproduction"/>
<cc:permits rdf:resource="http://creativecommons.org/ns#Distribution"/>
<cc:permits rdf:resource="http://creativecommons.org/ns#DerivativeWorks"/>
</cc:License>
</rdf:RDF>
</metadata>
<g transform="translate(4.7266e-5 -719.36)">
<g>
<rect x=".37791" y="719.74" width="233.24" height="332.24" rx="8.9192" ry="8.9457" fill="#fff" stroke="#808080" stroke-width=".75591"/>
<g transform="matrix(.056613 0 0 .056761 -21.668 766.73)">
<rect x="2406.7" y="536.55" width="85.256" height="295.69"/>
<path d="m2917.9 395.13c67.135 120.8 23.601 273.14-97.235 340.26-120.84 67.117-273.22 23.595-340.35-97.21-17.88-32.173-28.44-67.893-30.889-104.57-9.342 137.92-128.75 242.09-266.66 232.71-137.91-9.3777-242.11-128.75-232.73-266.63s128.79-242.05 266.7-232.67c36.206 2.4619 71.443 12.765 103.73 30.222-118.19-70.886-156.88-224.53-85.945-343.15 70.93-118.62 224.61-157.29 343.26-86.378 118.65 70.912 157.33 224.55 86.4 343.17-21.341 35.69-51.243 65.5-86.812 86.883 121.02-66.97 273.4-23.448 340.54 97.356z"/>
</g>
<g transform="matrix(.018871 0 0 .01892 -29.239 764.79)">
<rect x="2406.7" y="536.55" width="85.256" height="295.69"/>
<path d="m2917.9 395.13c67.135 120.8 23.601 273.14-97.235 340.26-120.84 67.117-273.22 23.595-340.35-97.21-17.88-32.173-28.44-67.893-30.889-104.57-9.342 137.92-128.75 242.09-266.66 232.71-137.91-9.3777-242.11-128.75-232.73-266.63s128.79-242.05 266.7-232.67c36.206 2.4619 71.443 12.765 103.73 30.222-118.19-70.886-156.88-224.53-85.945-343.15 70.93-118.62 224.61-157.29 343.26-86.378 118.65 70.912 157.33 224.55 86.4 343.17-21.341 35.69-51.243 65.5-86.812 86.883 121.02-66.97 273.4-23.448 340.54 97.356z"/>
</g>
<g transform="matrix(.018871 0 0 -.01892 171.36 1006.9)">
<rect x="2406.7" y="536.55" width="85.256" height="295.69"/>
<path d="m2917.9 395.13c67.135 120.8 23.601 273.14-97.235 340.26-120.84 67.117-273.22 23.595-340.35-97.21-17.88-32.173-28.44-67.893-30.889-104.57-9.342 137.92-128.75 242.09-266.66 232.71-137.91-9.3777-242.11-128.75-232.73-266.63s128.79-242.05 266.7-232.67c36.206 2.4619 71.443 12.765 103.73 30.222-118.19-70.886-156.88-224.53-85.945-343.15 70.93-118.62 224.61-157.29 343.26-86.378 118.65 70.912 157.33 224.55 86.4 343.17-21.341 35.69-51.243 65.5-86.812 86.883 121.02-66.97 273.4-23.448 340.54 97.356z"/>
</g>
<g transform="matrix(.056613 0 0 .056761 -21.668 867)">
<rect x="2406.7" y="536.55" width="85.256" height="295.69"/>
<path d="m2917.9 395.13c67.135 120.8 23.601 273.14-97.235 340.26-120.84 67.117-273.22 23.595-340.35-97.21-17.88-32.173-28.44-67.893-30.889-104.57-9.342 137.92-128.75 242.09-266.66 232.71-137.91-9.3777-242.11-128.75-232.73-266.63s128.79-242.05 266.7-232.67c36.206 2.4619 71.443 12.765 103.73 30.222-118.19-70.886-156.88-224.53-85.945-343.15 70.93-118.62 224.61-157.29 343.26-86.378 118.65 70.912 157.33 224.55 86.4 343.17-21.341 35.69-51.243 65.5-86.812 86.883 121.02-66.97 273.4-23.448 340.54 97.356z"/>
</g>
<g transform="matrix(.056613 0 0 -.056761 -21.668 1005)">
<rect x="2406.7" y="536.55" width="85.256" height="295.69"/>
<path d="m2917.9 395.13c67.135 120.8 23.601 273.14-97.235 340.26-120.84 67.117-273.22 23.595-340.35-97.21-17.88-32.173-28.44-67.893-30.889-104.57-9.342 137.92-128.75 242.09-266.66 232.71-137.91-9.3777-242.11-128.75-232.73-266.63s128.79-242.05 266.7-232.67c36.206 2.4619 71.443 12.765 103.73 30.222-118.19-70.886-156.88-224.53-85.945-343.15 70.93-118.62 224.61-157.29 343.26-86.378 118.65 70.912 157.33 224.55 86.4 343.17-21.341 35.69-51.243 65.5-86.812 86.883 121.02-66.97 273.4-23.448 340.54 97.356z"/>
</g>
<g transform="scale(1.0096 .9905)" aria-label="3">
<path d="m26.169 754.47q0 3.9844-2.793 6.1329-2.5196 1.9532-6.6017 1.9532-9.297 0-9.297-8.7892 0-0.41016 0.13672-0.78126 0.29297-0.17578 0.66407-0.17578h2.5391q0.3711 0 0.68361 0.17578 0.09766 0.27344 0.15625 0.64454 0.33204 2.4219 1.3672 3.5157 1.1524 1.211 3.5352 1.211 1.9532 0 3.1836-1.0547 1.2891-1.1328 1.2891-3.0469 0-4.0626-4.4337-4.7657-0.54688-0.0781-0.82033-0.23438-0.15625-0.31251-0.15625-3.1641 0-0.3711 0.17578-0.70313 1.4649-0.4297 2.9297-0.87892 1.543-0.70314 1.543-2.9493 0-3.3985-3.9844-3.3985-1.836 0-2.8711 0.89846-0.54688 0.48829-1.1328 1.6602-0.4297 0.89845-0.85939 0.89845h-2.5196q-0.95705 0-0.95705-0.85939 0-3.2618 2.5586-5.1563 2.3047-1.6992 5.6642-1.6992 3.8673 0 6.3087 1.6211 2.8711 1.8946 2.8711 5.586 0 4.4532-4.3946 6.0548 5.2149 2.2071 5.2149 7.3048z" stroke-width=".31493"/>
</g>
<g transform="scale(-1.0096 -.9905)" aria-label="3">
<path d="m-205.61-1034.2q0 3.9844-2.793 6.1329-2.5196 1.9532-6.6017 1.9532-9.297 0-9.297-8.7892 0-0.4102 0.13672-0.7813 0.29298-0.1758 0.66408-0.1758h2.5391q0.3711 0 0.68361 0.1758 0.0976 0.2734 0.15625 0.6445 0.33204 2.422 1.3672 3.5157 1.1524 1.211 3.5352 1.211 1.9532 0 3.1836-1.0547 1.2891-1.1329 1.2891-3.0469 0-4.0626-4.4337-4.7658-0.54689-0.078-0.82033-0.2343-0.15625-0.3125-0.15625-3.1641 0-0.3711 0.17578-0.7032 1.4649-0.4297 2.9297-0.8789 1.543-0.7031 1.543-2.9493 0-3.3985-3.9844-3.3985-1.836 0-2.8711 0.8985-0.54688 0.4883-1.1328 1.6602-0.4297 0.8984-0.85939 0.8984h-2.5196q-0.95705 0-0.95705-0.8594 0-3.2617 2.5586-5.1563 2.3047-1.6993 5.6642-1.6993 3.8673 0 6.3087 1.6212 2.8711 1.8945 2.8711 5.586 0 4.4532-4.3946 6.0548 5.2149 2.2071 5.2149 7.3048z" stroke-width=".31493"/>
</g>
</g>
</g>
</svg>
