<?xml version="1.0" encoding="UTF-8"?>
<svg version="1.1" viewBox="0 0 234 333" xmlns="http://www.w3.org/2000/svg" xmlns:cc="http://creativecommons.org/ns#" xmlns:dc="http://purl.org/dc/elements/1.1/" xmlns:rdf="http://www.w3.org/1999/02/22-rdf-syntax-ns#">
<title>Five of Clubs Playing Card</title>
<metadata>
<rdf:RDF>
<cc:Work rdf:about="">
<dc:format>image/svg+xml</dc:format>
<dc:type rdf:resource="http://purl.org/dc/dcmitype/StillImage"/>
<dc:title>Five of Clubs Playing Card</dc:title>
<cc:license rdf:resource="http://creativecommons.org/publicdomain/zero/1.0/"/>
<dc:date>2020-05-04</dc:date>
<dc:creator>
<cc:Agent>
<dc:title>Daniel S. Fowler</dc:title>
</cc:Agent>
</dc:creator>
<dc:rights>
<cc:Agent>
<dc:title>Public Domain</dc:title>
</cc:Agent>
</dc:rights>
<dc:publisher>
<cc:Agent>
<dc:title>https://tekeye.uk</dc:title>
</cc:Agent>
</dc:publisher>
<dc:language>en-GB</dc:language>
<dc:subject>
<rdf:Bag>
<rdf:li>five; clubs; playing; card; white; black</rdf:li>
</rdf:Bag>
</dc:subject>
<dc:description>A five of clubs playing card</dc:description>
</cc:Work>
<cc:License rdf:about="http://creativecommons.org/publicdomain/zero/1.0/">
<cc:permits rdf:resource="http://creativecommons.org/ns#Reproduction"/>
<cc:permits rdf:resource="http://creativecommons.org/ns#Distribution"/>
<cc:permits rdf:resource="http://creativecommons.org/ns#DerivativeWorks"/>
</cc:License>
</rdf:RDF>
</metadata>
<g transform="translate(4.7266e-5 -719.36)">
<g>
<rect x=".37795" y="719.74" width="233.24" height="332.24" rx="8.9192" ry="8.9457" fill="#fff" stroke="#808080" stroke-width=".756"/>
<g transform="matrix(.056487 0 0 .056673 -79.731 766.91)" stroke-width="3.1813">
<rect x="2406.7" y="536.55" width="85.256" height="295.69"/>
<path d="m2917.9 395.13c67.135 120.8 23.601 273.14-97.235 340.26-120.84 67.117-273.22 23.595-340.35-97.21-17.88-32.173-28.44-67.893-30.889-104.57-9.342 137.92-128.75 242.09-266.66 232.71-137.91-9.3777-242.11-128.75-232.73-266.63s128.79-242.05 266.7-232.67c36.206 2.4619 71.443 12.765 103.73 30.222-118.19-70.886-156.88-224.53-85.945-343.15 70.93-118.62 224.61-157.29 343.26-86.378 118.65 70.912 157.33 224.55 86.4 343.17-21.341 35.69-51.243 65.5-86.812 86.883 121.02-66.97 273.4-23.448 340.54 97.356z"/>
</g>
<g transform="matrix(.018829 0 0 .018891 -28.915 764.98)" stroke-width="3.1813">
<rect x="2406.7" y="536.55" width="85.256" height="295.69"/>
<path d="m2917.9 395.13c67.135 120.8 23.601 273.14-97.235 340.26-120.84 67.117-273.22 23.595-340.35-97.21-17.88-32.173-28.44-67.893-30.889-104.57-9.342 137.92-128.75 242.09-266.66 232.71-137.91-9.3777-242.11-128.75-232.73-266.63s128.79-242.05 266.7-232.67c36.206 2.4619 71.443 12.765 103.73 30.222-118.19-70.886-156.88-224.53-85.945-343.15 70.93-118.62 224.61-157.29 343.26-86.378 118.65 70.912 157.33 224.55 86.4 343.17-21.341 35.69-51.243 65.5-86.812 86.883 121.02-66.97 273.4-23.448 340.54 97.356z"/>
</g>
<g transform="matrix(.018829 0 0 -.018891 171.24 1006.7)" stroke-width="3.1813">
<rect x="2406.7" y="536.55" width="85.256" height="295.69"/>
<path d="m2917.9 395.13c67.135 120.8 23.601 273.14-97.235 340.26-120.84 67.117-273.22 23.595-340.35-97.21-17.88-32.173-28.44-67.893-30.889-104.57-9.342 137.92-128.75 242.09-266.66 232.71-137.91-9.3777-242.11-128.75-232.73-266.63s128.79-242.05 266.7-232.67c36.206 2.4619 71.443 12.765 103.73 30.222-118.19-70.886-156.88-224.53-85.945-343.15 70.93-118.62 224.61-157.29 343.26-86.378 118.65 70.912 157.33 224.55 86.4 343.17-21.341 35.69-51.243 65.5-86.812 86.883 121.02-66.97 273.4-23.448 340.54 97.356z"/>
</g>
<g transform="matrix(.056487 0 0 .056673 -21.36 867.03)" stroke-width="3.1813">
<rect x="2406.7" y="536.55" width="85.256" height="295.69"/>
<path d="m2917.9 395.13c67.135 120.8 23.601 273.14-97.235 340.26-120.84 67.117-273.22 23.595-340.35-97.21-17.88-32.173-28.44-67.893-30.889-104.57-9.342 137.92-128.75 242.09-266.66 232.71-137.91-9.3777-242.11-128.75-232.73-266.63s128.79-242.05 266.7-232.67c36.206 2.4619 71.443 12.765 103.73 30.222-118.19-70.886-156.88-224.53-85.945-343.15 70.93-118.62 224.61-157.29 343.26-86.378 118.65 70.912 157.33 224.55 86.4 343.17-21.341 35.69-51.243 65.5-86.812 86.883 121.02-66.97 273.4-23.448 340.54 97.356z"/>
</g>
<g transform="matrix(.056487 0 0 .056673 37.01 766.91)" stroke-width="3.1813">
<rect x="2406.7" y="536.55" width="85.256" height="295.69"/>
<path d="m2917.9 395.13c67.135 120.8 23.601 273.14-97.235 340.26-120.84 67.117-273.22 23.595-340.35-97.21-17.88-32.173-28.44-67.893-30.889-104.57-9.342 137.92-128.75 242.09-266.66 232.71-137.91-9.3777-242.11-128.75-232.73-266.63s128.79-242.05 266.7-232.67c36.206 2.4619 71.443 12.765 103.73 30.222-118.19-70.886-156.88-224.53-85.945-343.15 70.93-118.62 224.61-157.29 343.26-86.378 118.65 70.912 157.33 224.55 86.4 343.17-21.341 35.69-51.243 65.5-86.812 86.883 121.02-66.97 273.4-23.448 340.54 97.356z"/>
</g>
<g transform="matrix(.056487 0 0 -.056673 -79.731 1004.8)" stroke-width="3.1813">
<rect x="2406.7" y="536.55" width="85.256" height="295.69"/>
<path d="m2917.9 395.13c67.135 120.8 23.601 273.14-97.235 340.26-120.84 67.117-273.22 23.595-340.35-97.21-17.88-32.173-28.44-67.893-30.889-104.57-9.342 137.92-128.75 242.09-266.66 232.71-137.91-9.3777-242.11-128.75-232.73-266.63s128.79-242.05 266.7-232.67c36.206 2.4619 71.443 12.765 103.73 30.222-118.19-70.886-156.88-224.53-85.945-343.15 70.93-118.62 224.61-157.29 343.26-86.378 118.65 70.912 157.33 224.55 86.4 343.17-21.341 35.69-51.243 65.5-86.812 86.883 121.02-66.97 273.4-23.448 340.54 97.356z"/>
</g>
<g transform="matrix(.056487 0 0 -.056673 37.01 1004.8)" stroke-width="3.1813">
<rect x="2406.7" y="536.55" width="85.256" height="295.69"/>
<path d="m2917.9 395.13c67.135 120.8 23.601 273.14-97.235 340.26-120.84 67.117-273.22 23.595-340.35-97.21-17.88-32.173-28.44-67.893-30.889-104.57-9.342 137.92-128.75 242.09-266.66 232.71-137.91-9.3777-242.11-128.75-232.73-266.63s128.79-242.05 266.7-232.67c36.206 2.4619 71.443 12.765 103.73 30.222-118.19-70.886-156.88-224.53-85.945-343.15 70.93-118.62 224.61-157.29 343.26-86.378 118.65 70.912 157.33 224.55 86.4 343.17-21.341 35.69-51.243 65.5-86.812 86.883 121.02-66.97 273.4-23.448 340.54 97.356z"/>
</g>
<g transform="scale(.9951 1.0049)" aria-label="5">
<path d="m26.751 742.3q0 4.3651-2.6502 6.9374-2.6307 2.5723-6.9958 2.5723-4.1897 0-6.6256-2.0461-2.6502-2.1825-2.6502-6.2943 0-0.66255 1.0523-0.66255h2.5528q0.40923 0 0.75999 0.11692 0.11692 0.19487 0.1559 0.50666 0.33128 2.202 1.2667 3.1569 1.0523 1.0718 3.2348 1.0718t3.5271-1.5395q1.2667-1.4615 1.2667-3.6636 0-5.4369-4.5015-5.4369-1.6369 0-3.2933 1.1302h-3.2154q-0.4482 0-0.85743-0.11692-0.19487-0.19487-0.19487-0.4482 0-2.7672 0.2923-6.9764 0.25333-3.5076 0.50666-6.9958h14.615q0.50666 0 0.91589 0.15589 0.17538 0.38974 0.17538 2.7282 0 0.38974-0.03897 0.64307-0.13641 0.62359-1.1302 0.62359h-10.581q0.05846 1.0523-0.17538 3.2154-0.23384 2.1436-0.17538 3.1959 2.0072-1.2472 4.1897-1.2472 4.0143 0 6.3528 2.7282 2.2215 2.5723 2.2215 6.6451z"/>
</g>
<g transform="scale(-.9951 -1.0049)" aria-label="5">
<path d="m-208.4-1020.7q0 4.3651-2.6502 6.9373-2.6308 2.5723-6.9958 2.5723-4.1897 0-6.6256-2.0461-2.6502-2.1825-2.6502-6.2943 0-0.6626 1.0523-0.6626h2.5528q0.40922 0 0.75999 0.117 0.11692 0.1948 0.1559 0.5066 0.33127 2.2021 1.2666 3.1569 1.0523 1.0718 3.2348 1.0718t3.5271-1.5395q1.2667-1.4615 1.2667-3.6635 0-5.4369-4.5015-5.4369-1.6369 0-3.2933 1.1303h-3.2154q-0.4482 0-0.85743-0.117-0.19487-0.1948-0.19487-0.4482 0-2.7671 0.29231-6.9763 0.25333-3.5077 0.50666-6.9958h14.615q0.50666 0 0.91589 0.1559 0.17538 0.3897 0.17538 2.7281 0 0.3898-0.039 0.6431-0.13641 0.6236-1.1302 0.6236h-10.581q0.0585 1.0523-0.17539 3.2153-0.23384 2.1436-0.17538 3.1959 2.0072-1.2472 4.1897-1.2472 4.0143 0 6.3528 2.7282 2.2215 2.5723 2.2215 6.6451z"/>
</g>
</g>
</g>
</svg>
