<?xml version="1.0" encoding="UTF-8"?>
<svg version="1.1" viewBox="0 0 234 333" xmlns="http://www.w3.org/2000/svg" xmlns:cc="http://creativecommons.org/ns#" xmlns:dc="http://purl.org/dc/elements/1.1/" xmlns:rdf="http://www.w3.org/1999/02/22-rdf-syntax-ns#">
<title>EIght of Clubs Playing Card</title>
<metadata>
<rdf:RDF>
<cc:Work rdf:about="">
<dc:format>image/svg+xml</dc:format>
<dc:type rdf:resource="http://purl.org/dc/dcmitype/StillImage"/>
<dc:title>EIght of Clubs Playing Card</dc:title>
<dc:date>2020-05-05</dc:date>
<dc:creator>
<cc:Agent>
<dc:title>Daniel S. Fowler</dc:title>
</cc:Agent>
</dc:creator>
<dc:rights>
<cc:Agent>
<dc:title>Public Domain</dc:title>
</cc:Agent>
</dc:rights>
<dc:publisher>
<cc:Agent>
<dc:title>https://tekeye.uk</dc:title>
</cc:Agent>
</dc:publisher>
<dc:language>en-GB</dc:language>
<dc:subject>
<rdf:Bag>
<rdf:li>eight; clubs; playing; card; black; white;</rdf:li>
</rdf:Bag>
</dc:subject>
<dc:description>An eight of clubs playing card in black and white.</dc:description>
<cc:license rdf:resource="http://creativecommons.org/publicdomain/zero/1.0/"/>
</cc:Work>
<cc:License rdf:about="http://creativecommons.org/publicdomain/zero/1.0/">
<cc:permits rdf:resource="http://creativecommons.org/ns#Reproduction"/>
<cc:permits rdf:resource="http://creativecommons.org/ns#Distribution"/>
<cc:permits rdf:resource="http://creativecommons.org/ns#DerivativeWorks"/>
</cc:License>
</rdf:RDF>
</metadata>
<g transform="translate(0 -719.36)">
<g>
<rect x=".37795" y="719.74" width="233.24" height="332.24" rx="8.9192" ry="8.9457" fill="#fff" stroke="#808080" stroke-width=".756"/>
<g transform="matrix(.056487 0 0 -.056673 -21.36 954.75)" stroke-width="3.1813">
<rect x="2406.7" y="536.55" width="85.256" height="295.69"/>
<path d="m2917.9 395.13c67.135 120.8 23.601 273.14-97.235 340.26-120.84 67.117-273.22 23.595-340.35-97.21-17.88-32.173-28.44-67.893-30.889-104.57-9.342 137.92-128.75 242.09-266.66 232.71-137.91-9.3777-242.11-128.75-232.73-266.63s128.79-242.05 266.7-232.67c36.206 2.4619 71.443 12.765 103.73 30.222-118.19-70.886-156.88-224.53-85.945-343.15 70.93-118.62 224.61-157.29 343.26-86.378 118.65 70.912 157.33 224.55 86.4 343.17-21.341 35.69-51.243 65.5-86.812 86.883 121.02-66.97 273.4-23.448 340.54 97.356z"/>
</g>
<g transform="matrix(.056487 0 0 .056673 37.01 867.03)" stroke-width="3.1813">
<rect x="2406.7" y="536.55" width="85.256" height="295.69"/>
<path d="m2917.9 395.13c67.135 120.8 23.601 273.14-97.235 340.26-120.84 67.117-273.22 23.595-340.35-97.21-17.88-32.173-28.44-67.893-30.889-104.57-9.342 137.92-128.75 242.09-266.66 232.71-137.91-9.3777-242.11-128.75-232.73-266.63s128.79-242.05 266.7-232.67c36.206 2.4619 71.443 12.765 103.73 30.222-118.19-70.886-156.88-224.53-85.945-343.15 70.93-118.62 224.61-157.29 343.26-86.378 118.65 70.912 157.33 224.55 86.4 343.17-21.341 35.69-51.243 65.5-86.812 86.883 121.02-66.97 273.4-23.448 340.54 97.356z"/>
</g>
<g transform="matrix(.056487 0 0 .056673 -79.731 766.91)" stroke-width="3.1813">
<rect x="2406.7" y="536.55" width="85.256" height="295.69"/>
<path d="m2917.9 395.13c67.135 120.8 23.601 273.14-97.235 340.26-120.84 67.117-273.22 23.595-340.35-97.21-17.88-32.173-28.44-67.893-30.889-104.57-9.342 137.92-128.75 242.09-266.66 232.71-137.91-9.3777-242.11-128.75-232.73-266.63s128.79-242.05 266.7-232.67c36.206 2.4619 71.443 12.765 103.73 30.222-118.19-70.886-156.88-224.53-85.945-343.15 70.93-118.62 224.61-157.29 343.26-86.378 118.65 70.912 157.33 224.55 86.4 343.17-21.341 35.69-51.243 65.5-86.812 86.883 121.02-66.97 273.4-23.448 340.54 97.356z"/>
</g>
<g transform="matrix(.018829 0 0 .018891 -28.915 764.98)" stroke-width="3.1813">
<rect x="2406.7" y="536.55" width="85.256" height="295.69"/>
<path d="m2917.9 395.13c67.135 120.8 23.601 273.14-97.235 340.26-120.84 67.117-273.22 23.595-340.35-97.21-17.88-32.173-28.44-67.893-30.889-104.57-9.342 137.92-128.75 242.09-266.66 232.71-137.91-9.3777-242.11-128.75-232.73-266.63s128.79-242.05 266.7-232.67c36.206 2.4619 71.443 12.765 103.73 30.222-118.19-70.886-156.88-224.53-85.945-343.15 70.93-118.62 224.61-157.29 343.26-86.378 118.65 70.912 157.33 224.55 86.4 343.17-21.341 35.69-51.243 65.5-86.812 86.883 121.02-66.97 273.4-23.448 340.54 97.356z"/>
</g>
<g transform="matrix(.30682 0 0 .32203 .25934 720.77)" aria-label="8">
<path d="m85.916 82.169q0 13.016-9.2372 19.794-8.0975 5.9382-21.533 5.9382-13.316 0-21.413-6.358-8.8773-7.0178-8.8773-19.974 0-13.616 14.336-20.034-11.037-7.0178-11.037-20.034 0-11.456 8.9972-17.035 7.3777-4.5586 19.434-4.5586 10.977 0 18.054 5.3384 7.7976 5.9981 7.7976 16.675 0 12.236-10.977 19.554 14.456 6.1181 14.456 20.694zm-18.654-37.968q0-11.217-11.996-11.217-5.4583 0-8.6973 2.9391-3.239 2.8791-3.239 8.2774 0 5.2184 3.4189 8.2774 3.239 2.9991 8.5174 2.9991 5.1584 0 8.5774-3.0591 3.4189-3.0591 3.4189-8.2175zm2.8191 37.428q0-6.2381-4.2587-9.837-4.0188-3.4189-10.377-3.4189-6.2381 0-10.257 3.4789-4.3187 3.6589-4.3187 9.777 0 6.418 4.1987 9.9569 3.8988 3.299 10.437 3.299 6.478 0 10.377-3.359 4.1987-3.5389 4.1987-9.8969z" stroke-width="3.1813"/>
</g>
<g transform="matrix(.018829 0 0 -.018891 171.24 1006.7)" stroke-width="3.1813">
<rect x="2406.7" y="536.55" width="85.256" height="295.69"/>
<path d="m2917.9 395.13c67.135 120.8 23.601 273.14-97.235 340.26-120.84 67.117-273.22 23.595-340.35-97.21-17.88-32.173-28.44-67.893-30.889-104.57-9.342 137.92-128.75 242.09-266.66 232.71-137.91-9.3777-242.11-128.75-232.73-266.63s128.79-242.05 266.7-232.67c36.206 2.4619 71.443 12.765 103.73 30.222-118.19-70.886-156.88-224.53-85.945-343.15 70.93-118.62 224.61-157.29 343.26-86.378 118.65 70.912 157.33 224.55 86.4 343.17-21.341 35.69-51.243 65.5-86.812 86.883 121.02-66.97 273.4-23.448 340.54 97.356z"/>
</g>
<g transform="matrix(-.30759 0 0 -.32122 .25934 720.77)" aria-label="8">
<path d="m-673.36-945.54q0 13.049-9.2604 19.844-8.1179 5.9531-21.588 5.9531-13.349 0-21.467-6.374-8.8996-7.0355-8.8996-20.024 0-13.65 14.372-20.084-11.064-7.0355-11.064-20.084 0-11.485 9.0199-17.078 7.3963-4.57 19.483-4.57 11.004 0 18.1 5.3517 7.8172 6.0133 7.8172 16.717 0 12.267-11.004 19.603 14.492 6.1335 14.492 20.746zm-18.701-38.064q0-11.245-12.026-11.245-5.4721 0-8.7192 2.9465-3.2472 2.8864-3.2472 8.2983 0 5.2315 3.4276 8.2983 3.2472 3.0066 8.5388 3.0066 5.1714 0 8.5989-3.0668t3.4276-8.2382zm2.8262 37.523q0-6.2538-4.2694-9.8617-4.0289-3.4276-10.403-3.4276-6.2538 0-10.283 3.4877-4.3295 3.6681-4.3295 9.8016 0 6.4342 4.2093 9.982 3.9086 3.3073 10.463 3.3073 6.4943 0 10.403-3.3674 4.2093-3.5478 4.2093-9.9219z" stroke-width="3.1813"/>
</g>
<g transform="matrix(.056487 0 0 .056673 -21.36 816.97)" stroke-width="3.1813">
<rect x="2406.7" y="536.55" width="85.256" height="295.69"/>
<path d="m2917.9 395.13c67.135 120.8 23.601 273.14-97.235 340.26-120.84 67.117-273.22 23.595-340.35-97.21-17.88-32.173-28.44-67.893-30.889-104.57-9.342 137.92-128.75 242.09-266.66 232.71-137.91-9.3777-242.11-128.75-232.73-266.63s128.79-242.05 266.7-232.67c36.206 2.4619 71.443 12.765 103.73 30.222-118.19-70.886-156.88-224.53-85.945-343.15 70.93-118.62 224.61-157.29 343.26-86.378 118.65 70.912 157.33 224.55 86.4 343.17-21.341 35.69-51.243 65.5-86.812 86.883 121.02-66.97 273.4-23.448 340.54 97.356z"/>
</g>
<g transform="matrix(.056487 0 0 .056673 37.01 766.91)" stroke-width="3.1813">
<rect x="2406.7" y="536.55" width="85.256" height="295.69"/>
<path d="m2917.9 395.13c67.135 120.8 23.601 273.14-97.235 340.26-120.84 67.117-273.22 23.595-340.35-97.21-17.88-32.173-28.44-67.893-30.889-104.57-9.342 137.92-128.75 242.09-266.66 232.71-137.91-9.3777-242.11-128.75-232.73-266.63s128.79-242.05 266.7-232.67c36.206 2.4619 71.443 12.765 103.73 30.222-118.19-70.886-156.88-224.53-85.945-343.15 70.93-118.62 224.61-157.29 343.26-86.378 118.65 70.912 157.33 224.55 86.4 343.17-21.341 35.69-51.243 65.5-86.812 86.883 121.02-66.97 273.4-23.448 340.54 97.356z"/>
</g>
<g transform="matrix(.056487 0 0 .056673 -79.731 867.03)" stroke-width="3.1813">
<rect x="2406.7" y="536.55" width="85.256" height="295.69"/>
<path d="m2917.9 395.13c67.135 120.8 23.601 273.14-97.235 340.26-120.84 67.117-273.22 23.595-340.35-97.21-17.88-32.173-28.44-67.893-30.889-104.57-9.342 137.92-128.75 242.09-266.66 232.71-137.91-9.3777-242.11-128.75-232.73-266.63s128.79-242.05 266.7-232.67c36.206 2.4619 71.443 12.765 103.73 30.222-118.19-70.886-156.88-224.53-85.945-343.15 70.93-118.62 224.61-157.29 343.26-86.378 118.65 70.912 157.33 224.55 86.4 343.17-21.341 35.69-51.243 65.5-86.812 86.883 121.02-66.97 273.4-23.448 340.54 97.356z"/>
</g>
<g transform="matrix(.056487 0 0 -.056673 -79.731 1004.8)" stroke-width="3.1813">
<rect x="2406.7" y="536.55" width="85.256" height="295.69"/>
<path d="m2917.9 395.13c67.135 120.8 23.601 273.14-97.235 340.26-120.84 67.117-273.22 23.595-340.35-97.21-17.88-32.173-28.44-67.893-30.889-104.57-9.342 137.92-128.75 242.09-266.66 232.71-137.91-9.3777-242.11-128.75-232.73-266.63s128.79-242.05 266.7-232.67c36.206 2.4619 71.443 12.765 103.73 30.222-118.19-70.886-156.88-224.53-85.945-343.15 70.93-118.62 224.61-157.29 343.26-86.378 118.65 70.912 157.33 224.55 86.4 343.17-21.341 35.69-51.243 65.5-86.812 86.883 121.02-66.97 273.4-23.448 340.54 97.356z"/>
</g>
<g transform="matrix(.056487 0 0 -.056673 37.01 1004.8)" stroke-width="3.1813">
<rect x="2406.7" y="536.55" width="85.256" height="295.69"/>
<path d="m2917.9 395.13c67.135 120.8 23.601 273.14-97.235 340.26-120.84 67.117-273.22 23.595-340.35-97.21-17.88-32.173-28.44-67.893-30.889-104.57-9.342 137.92-128.75 242.09-266.66 232.71-137.91-9.3777-242.11-128.75-232.73-266.63s128.79-242.05 266.7-232.67c36.206 2.4619 71.443 12.765 103.73 30.222-118.19-70.886-156.88-224.53-85.945-343.15 70.93-118.62 224.61-157.29 343.26-86.378 118.65 70.912 157.33 224.55 86.4 343.17-21.341 35.69-51.243 65.5-86.812 86.883 121.02-66.97 273.4-23.448 340.54 97.356z"/>
</g>
</g>
</g>
</svg>
