<?xml version="1.0" encoding="UTF-8"?>
<svg version="1.1" viewBox="0 0 234 333" xmlns="http://www.w3.org/2000/svg" xmlns:cc="http://creativecommons.org/ns#" xmlns:dc="http://purl.org/dc/elements/1.1/" xmlns:rdf="http://www.w3.org/1999/02/22-rdf-syntax-ns#">
<title>Ace of Clubs Playing Card</title>
<metadata>
<rdf:RDF>
<cc:Work rdf:about="">
<dc:format>image/svg+xml</dc:format>
<dc:type rdf:resource="http://purl.org/dc/dcmitype/StillImage"/>
<dc:title>Ace of Clubs Playing Card</dc:title>
<cc:license rdf:resource="http://creativecommons.org/publicdomain/zero/1.0/"/>
<dc:date>2020-05-05</dc:date>
<dc:creator>
<cc:Agent>
<dc:title>Daniel S. Fowler</dc:title>
</cc:Agent>
</dc:creator>
<dc:rights>
<cc:Agent>
<dc:title>Public Domain</dc:title>
</cc:Agent>
</dc:rights>
<dc:publisher>
<cc:Agent>
<dc:title>https://tekeye.uk</dc:title>
</cc:Agent>
</dc:publisher>
<dc:language>en-GB</dc:language>
<dc:subject>
<rdf:Bag>
<rdf:li>ace; clubs; playing; card;</rdf:li>
</rdf:Bag>
</dc:subject>
<dc:description>An ace of clubs playing card in black and white.</dc:description>
</cc:Work>
<cc:License rdf:about="http://creativecommons.org/publicdomain/zero/1.0/">
<cc:permits rdf:resource="http://creativecommons.org/ns#Reproduction"/>
<cc:permits rdf:resource="http://creativecommons.org/ns#Distribution"/>
<cc:permits rdf:resource="http://creativecommons.org/ns#DerivativeWorks"/>
</cc:License>
</rdf:RDF>
</metadata>
<g transform="translate(0 -719.36)">
<g>
<rect x=".37795" y="719.74" width="233.24" height="332.24" rx="8.9192" ry="8.9457" fill="#fff" stroke="#808080" stroke-width=".75591"/>
<g transform="matrix(.018829 0 0 .018891 -28.915 764.98)" stroke-width="3.1813">
<rect x="2406.7" y="536.55" width="85.256" height="295.69"/>
<path d="m2917.9 395.13c67.135 120.8 23.601 273.14-97.235 340.26-120.84 67.117-273.22 23.595-340.35-97.21-17.88-32.173-28.44-67.893-30.889-104.57-9.342 137.92-128.75 242.09-266.66 232.71-137.91-9.3777-242.11-128.75-232.73-266.63s128.79-242.05 266.7-232.67c36.206 2.4619 71.443 12.765 103.73 30.222-118.19-70.886-156.88-224.53-85.945-343.15 70.93-118.62 224.61-157.29 343.26-86.378 118.65 70.912 157.33 224.55 86.4 343.17-21.341 35.69-51.243 65.5-86.812 86.883 121.02-66.97 273.4-23.448 340.54 97.356z"/>
</g>
<g transform="matrix(.018829 0 0 -.018891 171.24 1006.7)" stroke-width="3.1813">
<rect x="2406.7" y="536.55" width="85.256" height="295.69"/>
<path d="m2917.9 395.13c67.135 120.8 23.601 273.14-97.235 340.26-120.84 67.117-273.22 23.595-340.35-97.21-17.88-32.173-28.44-67.893-30.889-104.57-9.342 137.92-128.75 242.09-266.66 232.71-137.91-9.3777-242.11-128.75-232.73-266.63s128.79-242.05 266.7-232.67c36.206 2.4619 71.443 12.765 103.73 30.222-118.19-70.886-156.88-224.53-85.945-343.15 70.93-118.62 224.61-157.29 343.26-86.378 118.65 70.912 157.33 224.55 86.4 343.17-21.341 35.69-51.243 65.5-86.812 86.883 121.02-66.97 273.4-23.448 340.54 97.356z"/>
</g>
<g transform="matrix(.056487 0 0 .056673 -21.36 867.03)" stroke-width="3.1813">
<rect x="2406.7" y="536.55" width="85.256" height="295.69"/>
<path d="m2917.9 395.13c67.135 120.8 23.601 273.14-97.235 340.26-120.84 67.117-273.22 23.595-340.35-97.21-17.88-32.173-28.44-67.893-30.889-104.57-9.342 137.92-128.75 242.09-266.66 232.71-137.91-9.3777-242.11-128.75-232.73-266.63s128.79-242.05 266.7-232.67c36.206 2.4619 71.443 12.765 103.73 30.222-118.19-70.886-156.88-224.53-85.945-343.15 70.93-118.62 224.61-157.29 343.26-86.378 118.65 70.912 157.33 224.55 86.4 343.17-21.341 35.69-51.243 65.5-86.812 86.883 121.02-66.97 273.4-23.448 340.54 97.356z"/>
</g>
<g transform="scale(.83055 1.204)" aria-label="A">
<path d="m32.051 627.49h-4.6558l-1.8399-4.8477h-9.5995l-1.9199 4.8477h-4.6558l9.0715-23.535h4.5438zm-8.1756-9.2155-3.1198-8.0796-3.1358 8.0796z"/>
</g>
<g transform="scale(-.83055 -1.204)" aria-label="A">
<path d="m-249.69-844.01h-4.6558l-1.8399-4.8478h-9.5995l-1.9199 4.8478h-4.6558l9.0715-23.535h4.5438zm-8.1756-9.2155-3.1198-8.0796-3.1358 8.0796z"/>
</g>
</g>
</g>
</svg>
