<?xml version="1.0" encoding="UTF-8"?>
<svg version="1.1" viewBox="0 0 234 333" xmlns="http://www.w3.org/2000/svg" xmlns:cc="http://creativecommons.org/ns#" xmlns:dc="http://purl.org/dc/elements/1.1/" xmlns:rdf="http://www.w3.org/1999/02/22-rdf-syntax-ns#">
<title>Jack of Clubs Playing Card</title>
<metadata>
<rdf:RDF>
<cc:Work rdf:about="">
<dc:format>image/svg+xml</dc:format>
<dc:type rdf:resource="http://purl.org/dc/dcmitype/StillImage"/>
<dc:title>Jack of Clubs Playing Card</dc:title>
<dc:date>2020-05-05</dc:date>
<dc:creator>
<cc:Agent>
<dc:title>Daniel S. Fowler</dc:title>
</cc:Agent>
</dc:creator>
<dc:rights>
<cc:Agent>
<dc:title>Public Domain</dc:title>
</cc:Agent>
</dc:rights>
<dc:publisher>
<cc:Agent>
<dc:title>https://tekeye.uk</dc:title>
</cc:Agent>
</dc:publisher>
<dc:language>en-GB</dc:language>
<dc:subject>
<rdf:Bag>
<rdf:li>jack; clubs; playing; card;</rdf:li>
</rdf:Bag>
</dc:subject>
<dc:description>A jack of clubs playing card.</dc:description>
<cc:license rdf:resource="http://creativecommons.org/publicdomain/zero/1.0/"/>
</cc:Work>
<cc:License rdf:about="http://creativecommons.org/publicdomain/zero/1.0/">
<cc:permits rdf:resource="http://creativecommons.org/ns#Reproduction"/>
<cc:permits rdf:resource="http://creativecommons.org/ns#Distribution"/>
<cc:permits rdf:resource="http://creativecommons.org/ns#DerivativeWorks"/>
</cc:License>
</rdf:RDF>
</metadata>
<g transform="translate(0 -719.36)">
<rect x=".37795" y="719.74" width="233.24" height="332.24" rx="8.9192" ry="8.9457" fill="#fff" stroke="#808080" stroke-width=".75591"/>
<g transform="matrix(.018829 0 0 .018891 -28.915 764.98)" stroke-width="3.1813">
<rect x="2406.7" y="536.55" width="85.256" height="295.69"/>
<path d="m2917.9 395.13c67.135 120.8 23.601 273.14-97.235 340.26-120.84 67.117-273.22 23.595-340.35-97.21-17.88-32.173-28.44-67.893-30.889-104.57-9.342 137.92-128.75 242.09-266.66 232.71-137.91-9.3777-242.11-128.75-232.73-266.63s128.79-242.05 266.7-232.67c36.206 2.4619 71.443 12.765 103.73 30.222-118.19-70.886-156.88-224.53-85.945-343.15 70.93-118.62 224.61-157.29 343.26-86.378 118.65 70.912 157.33 224.55 86.4 343.17-21.341 35.69-51.243 65.5-86.812 86.883 121.02-66.97 273.4-23.448 340.54 97.356z"/>
</g>
<g transform="matrix(.018829 0 0 -.018891 170.67 1006.7)" stroke-width="3.1813">
<rect x="2406.7" y="536.55" width="85.256" height="295.69"/>
<path d="m2917.9 395.13c67.135 120.8 23.601 273.14-97.235 340.26-120.84 67.117-273.22 23.595-340.35-97.21-17.88-32.173-28.44-67.893-30.889-104.57-9.342 137.92-128.75 242.09-266.66 232.71-137.91-9.3777-242.11-128.75-232.73-266.63s128.79-242.05 266.7-232.67c36.206 2.4619 71.443 12.765 103.73 30.222-118.19-70.886-156.88-224.53-85.945-343.15 70.93-118.62 224.61-157.29 343.26-86.378 118.65 70.912 157.33 224.55 86.4 343.17-21.341 35.69-51.243 65.5-86.812 86.883 121.02-66.97 273.4-23.448 340.54 97.356z"/>
</g>
<g transform="matrix(.037658 0 0 .037782 -33.611 773.19)" stroke-width="3.1813">
<rect x="2406.7" y="536.55" width="85.256" height="295.69"/>
<path d="m2917.9 395.13c67.135 120.8 23.601 273.14-97.235 340.26-120.84 67.117-273.22 23.595-340.35-97.21-17.88-32.173-28.44-67.893-30.889-104.57-9.342 137.92-128.75 242.09-266.66 232.71-137.91-9.3777-242.11-128.75-232.73-266.63s128.79-242.05 266.7-232.67c36.206 2.4619 71.443 12.765 103.73 30.222-118.19-70.886-156.88-224.53-85.945-343.15 70.93-118.62 224.61-157.29 343.26-86.378 118.65 70.912 157.33 224.55 86.4 343.17-21.341 35.69-51.243 65.5-86.812 86.883 121.02-66.97 273.4-23.448 340.54 97.356z"/>
</g>
<g transform="scale(1.1356 .88058)" aria-label="J">
<path d="m23.441 846.62q0 3.8837-0.40544 5.6335-0.70419 3.0515-2.9875 4.5239-1.8138 1.195-4.3532 1.195-5.1854 0-8.8344-4.5452l4.3105-4.0331q2.4113 2.7314 4.3745 2.7314 1.3444 0 1.7285-1.6645 0.17071-0.72553 0.17071-2.7101v-21.958h5.9963z"/>
</g>
<g transform="scale(-1.1356 -.88058)" aria-label="J">
<path d="m-182.61-1165.4q0 3.8837-0.40545 5.6335-0.70419 3.0515-2.9875 4.5239-1.8138 1.195-4.3532 1.195-5.1854 0-8.8344-4.5452l4.3105-4.0331q2.4113 2.7314 4.3745 2.7314 1.3444 0 1.7285-1.6644 0.17071-0.7256 0.17071-2.7101v-21.958h5.9963z"/>
</g>
<g transform="matrix(.31382 0 0 .31485 .25934 720.77)" stroke-width="5.679">
<path d="m202.66 912.66c-2.8757 3.776-15.276-22.612-23.231-42.612-3.9081-9.8248-9.1403-17.927-6.9726-20.506 5.6945-5.2926 20.413-0.53253 31.108 7.0486 11.432 8.1034 19.492 20.009 19.492 20.009zm-100.34-19.672-0.32602-14.718c9.868-8.1586 23.95-19.946 38.299-35.18l-37.175 0.1695-2.901-12.8 0.40291-559.19s40.7 38.928 41.745 38.941c0.61065 8e-3 -0.26151 232.17-0.25249 387.41 0.33359 0.73288-21.479 0.24934-22.926 10.405-0.95616 6.711 23.653 5.8136 24.04 6.262-0.14975 69.782-1.2682 119.88-0.74231 119.88 18.682 0.0227 22.604 0.71054 22.604 0.71054-21.105 20.042-43.029 36.43-62.768 58.109zm132.91-71.683c-3.279-6.0274-8.4762-29.19-12.481-28.642-18.389 5.5879-24.277-19.391-5.254-20.653 7.2039-0.47812 15.234 8.1711 19.73 18.926 2.1592 5.6346-0.11067 32.625-1.9951 30.369zm4.1933-34.724c-5.4121-8.1558-10.557-37.941-20.44-36.265-9.0213 1.8784-14.784-5.4019-13.895-11.772 4.6522-17.89 37.675-0.84796 46.342 3.2858-4.3092 8.9812-10.413 31.38-12.006 44.752zm-69.197-81.765c-2.3568-0.89395 3.6877-9.8725 3.7639-20.222 0.0863-11.734-5.6986-24.698-5.0113-26.579 21.651-15.595 51.081-32.39 56.413-23.439 5.4457 38.075 2.5731 59.233-3.638 87.644l-4.0766 1.9595s-6.8307-1.1934-11.901-3.6075l-26.616-12.368zm348.28-286.92c-3.9623-29.329-0.98747-74.954 4.7173-93.002 2.1907-6.1069 43.34 19.222 46.625 21.11 3.0781 1.7686 4.5644 1.5044 2.6903 9.2142-2.1652 8.907-1.8432 19.387 1.1839 31.321 1.1306 4.4571 2.012 6.1891-1.0247 8.1375-3.158 2.0262-53.149 26.183-54.192 23.219zm-19.369-121.72c0.85571-1.8793 4.2878-23.826 5.3403-23.909 3.453-0.27067 8.4821 21.506 17.271 28.701 16.615-1.7452 18.547 8.6181 15.29 13.622 0.80226 2.1997-5.3728 6.9703-11.133 6.5054-14.316-5.1667-33.625-9.7464-26.769-24.919zm-222.16-18.144c-4.6793-3.0446 4.2361-24.911 29.523-19.86 10.907-18.863 11.561-61.43 16.824-64.061 7.9207-2.6837 88.655-23.223 86.225-5.2361-2.6084 19.309-6.9055 112.35-37.328 135.18-3.0567 3.3362 48.041 35.267 48.041 35.267s53.982-30.877 50.901-30.42c-1.3306 0.32983-2.4186 26.319-3.2673 68.347-0.81915 40.565 5.5824 69.614 18.933 112.54-1.7127 5.1918 10.223 31.156 23.573 56.904 15.139 29.199 35.637 58.68 35.637 58.68-35.293-10.998-67.737-6.7703-107.31-19.348l-2.1393 144.2s20.476 9.8803 24.423 14.419c1.9287 2.2179 2.143 5.3028 2.3586 8.0977 0.83994 10.89-9.1695 23.83-28.164 19.539-5.9841 19.198-14.594 64.357-14.921 64.338-29.012 3.562-58.414 7.3935-87.796 5.9119 0 0 4.4137-14.5 6.1302-36.308 0.62544-7.9467 1.0731-16.5 2.0955-25.598 3.7659-33.516 14.522-70.11 31.806-72.438-3.4112 1.2407-43.805-30.94-49.319-33.246-22.752 10.902-52.654 29.203-52.654 29.203s3.9759-26.553 4.1912-54.389c0.23063-29.837-2.0115-62.82-3.0205-71.401-7.7708-49.18-29.51-93.956-47.075-127.46-7.0588-13.465-17.614-35.004-17.614-35.004 25.973-2.7246 55.377-1.3803 101.25 11.302 0 0-2.3723-145.54-2.3918-144.73 0.41502 1.2974-11.787-4.6467-22.963-11.207-5.9871-3.5143-5.3594-12.839-5.9426-13.218zm229.07-32.351c0.19128-1.479 0.95324-17.917 0.95324-17.917 7.1736 7.767 12.932 30.522 14.362 30.139 0 0 9.2273-1.3234 12.093 1.4931 9.3464 9.1863 0.12816 20.009-9.2202 17.971-9.3001-2.2124-19.507-16.882-18.188-31.687zm94.724 493.54s-2.0812-256.84-1.8485-386.2c10.01-1.4932 20.363 4.6523 29.753-8.4558-4.9467-9.4705-19.099-6.6034-29.742-8.5285l0.0721-119.27s-17.756-0.30704-17.772-1.3812c-0.0109-0.9832 9.1643-8.9245 26.534-25.608 2.0895-2.0069 5.6332-5.4865 7.8752-7.7323 8.7662-8.7816 22.686-23.406 23.346-22.814 5.4488 4.2696 4.8702 11.201-20.488 32.845-18.482 15.775-19.193 14.719 1.2286 14.479 19.47-0.30485 21.948-1.7937 19.207 4.6628 0.0374 2.6371 2.2592 4.6976 1.7352 5.1092-0.56731 0.44564-0.6715 561.12-0.6715 561.12zm-58.635-598.27c0.13307 0.32948 2.6853 1.2249 5.4295 4.0276 11.199 16.952 16.993 38.422 25.791 53.237-18.276 7.4563-43.588-9.1728-49.68-23.696-7.3988-18.281 14.361-43.644 18.459-33.568z" fill="#e2cf00"/>
<path d="m96 116.63 0.59146 815.73 551.41-0.16623-1.2168-815.83zm182.69 171.39c0.7449 1.3141 1.9682 3.2081 1.9682 3.2081s-1.3326 0.31505-2.263 0.87342c-63.959 21.716-133.17 70.185-134.36 71.612l1.2979-53.742-42.811-41.11 0.36966-145.63 166.25 0.20048 48.651 75.188c-2.9581 19.679-10.605 57.768-10.605 57.768-4.4742-1.0011-19.571-2.3267-27.741 8.4404-3.898 5.1369-5.9852 12.141-0.75343 23.197zm311.44 167.99 6.3268-7.3634-11.133 0.45546 7.6562-7.6304-12.318-0.27737 9.6147-7.5041-12.962-0.15439 9.6445-7.3812-14.192 0.573 10.178-8.0295-14.027 0.0383 10.473-8.0794-13.722-0.18965 8.927-7.2564-11.979-0.14482 13.552-8.7452c5.7796 2.3362 13.537 3.6666 21.339 3.8301l0.0801 58.986zm9.8571-102.27c31.659 0.13701 38.447-15.44 0.19128-17.966 0 0-2.8836-77.351-1.9784-109.37 0.0137-3.9094 0.41902-8.3013 0.41902-8.3013l-20.839-0.51543s55.949-55.512 61.221-60.025c4.5068 186.83 3.6792 620.58 3.6792 620.58l-42.634-39.414-0.29763-122.65c-14.27-13.359-22.429-32.826-30.916-45.439l-23.331-10.481 5.5126-17.28-2.3419-4.9176-7.3222 24.448 25.523 11.215 2.6966 5.0624-4.3327 23.039 24.16 7.6704 4.1784 5.3044-1.5467 22.502 4.9983 1.4172 0.0429 4.4587-5.0161-0.39638-1.8275 25.263 6.822 1.8547-0.0246 5.7046c-8e-3 -0.10049-3.9765 0.0176-5.9286-0.1423-2.6927-1.3464-7.1246-6.674-7.1246-6.674l2.4505-28.055-30.629-5.6966-2.2761-2.9752 5.6754-28.036-32.156-9.1062c3.2903 7.4898 7.6571 14.498 11.289 21.872-4.4196 1.1738-9.0328 1.4326-13.506 2.3106-1.2601 37.884 0.0779 77.306-1.2517 112.94-25.893 1.6904-13.743-0.56749-25.001-0.4205-4.4071-5e-3 -7.9856 3.2843-7.9914 7.3464-3e-3 2.596 1.4518 4.8756 3.656 6.1895l-4.4649 1.4658-7.7903-8.1461 16.325-14.392-0.0915-4.1435-20.272 18.636 8.7496 9.3332-5.2157 2.4858-7.9862-7.771s-17.235 16.211-16.165 16.509c0.53367 0.14936 1.4883 0.9687 2.1311 1.8041 12.222 24.397-4.5187 36.026-24.721 29.255-5.1717 22.434-10.1 42.678-14.174 65.917-15.115 5.2391-86.157 8.191-86.941 6.9834 0 0-1.7965-1.5856-1.8725-2.3725 0.32305-1.0394-2.0391 2.1593-2.0391 2.1593-2e-3 1.3852-61.924-1.4956-92.456-6.8971 0 0-0.62144-2.701-0.36576-6.2606 0.51064-7.1408-0.0877-7.0739 6.9635-6.0265 14.402 0.90659 25.582-3.6338 30.04-15.306 2.4978-6.5394 1.3405-12.433-2.4332-29.937-3.665-16.998-3.7062-15.167-3.2654-17.463 0.51856-2.6959 3.6798-5.7005 8.222-9.0875 3.4238-2.5527 3.7725-7.3822 1.0166-4.7126-1.8976 2.5429-5.2303 3.4478-8.216 4.8691-7.0127 3.3716-6.7866 6.6329-2.668 20.594 1.9331 6.5504 3.954 13.609 4.0189 14.432 0.20439 2.5649-0.7953 1.5157-4.9662-1.1319-2.6712-1.8053-5.7515-3.2977-8.4955-4.7842-8.3826-4.1316-4.6704 0.38602 3.3966 5.3485 6.3418 4.3434 7.3896 6.2129 1.9161 4.1307-5.6402-2.1326-13.745-1.2222-20.084 0.96663-1.2454 0.63955-2.1635 0.56376-2.361-0.48324-0.28009-1.635 0.80972-5.7391 1.292-15.221 1.2197-23.98 7.3844-49.533 24.714-64.283 24.808-21.115 65.506-6.7187 88.07 12.897l2.4481-3.4199c-15.15-11.75-41.417-26.417-67.024-23.605 10.717-8.2152 34.349-21.816 34.349-21.816 16.18 10.842 28.109 21.657 45.868 33.398l3.0974-1.8878-48.845-35.788-52.718 31.944s2.2308-30.703 3.0708-41.927l-22.878 18.588 17.589 24.071-18.707 17.692s3.1566-0.40521-0.30056 5.0588c-5.274 9.8222-8.4721 25.655-10.923 41.736 0.45544 12.012-2.7747 25.297-3.783 35.879-1.7134-9.9143-3.7481-15.123-7.7167-24.123-3.6432-8.6706-5.072-8.6067-9.1963-7.3465-22.352 1.7023-12.181-38.02 14.192-11.998 1.1594 1.1044 3.0671 2.4546 3.1567 2.1956 0.55133-1.5934-6.9778-22.53-9.8952-27.358-3.0837-5.1014-3.1085-5.8203-7.6981-5.39-8.5907 0.80527-11.494-2.0165-12.352-10.351 1.1645-15.752 19.653-9.0741 31.495-4.218 1.0704 0.75817-5.5515-5.5706-7.9211-7.8009-3.2213-3.0313-3.7392-4.9736-3.7392-4.9736l0.71222-8.361 18.15-15.231-14.875-20.3 0.62918-7.2502 15.955-17.59-16.948-16.999-0.20303-6.0502 13.82-16.902-18.467-13.683-0.88815-5.4506s11.896-20.222 11.578-20.958c-0.26779-0.61841-20.015-13.22-20.015-13.22l-1.9751-8.5144 8.6144-21.592-20.524-10.834-3.7486-9.7625 5.8106-20.004-21.292-9.0931-6.0593-11.282 3.9878-21.027-23.869-6.5441-6.3228-9.2552 0.85691-18.494-5.8465-0.56248 0.088-4.5636 6.5151 0.0529s-0.50623-0.6807 0.22544-9.8178c1.2444-15.533 1.3575-14.936-2.6654-15.586-8.4758-1.3685-6.526-6.1664 2.1412-5.2667 1.3301 0.13802 2.4546 0.24431 3.4036 0.40945 2.2819 0.39753 4.035 3.1274 4.035 3.1274l-1.9464 28.686 30.533 4.7357 2.8941 3.6064-5.1521 26.581 28.656 7.6758 3.8511 6.4449-8.1669 27.643 28.878 11.744 1.8984 5.1365-12.3 24.53 26.532 11.922 1.653 5.8868-14.776 25.293 30.576 20.559s-0.81603-2.0088-2.0283-5.3618l-24.246-16.002 12.328-21.588s0.97657 1.5796 2.0179 1.2484c-0.61229-3.6059-1.0947-7.2318-1.3691-10.78l-12.483-30.1 40.557-25.064c-17.347-9.6567-39.257-9.3625-59.365-13 0 0-0.87803-2.5808-2.3874-4.8969-5.84-8.6564-11.088-19.663-17.602-31.018 4.814-2.0854 6.8962-1.8131 12.063-2.7365 0 0 13.158-75.361 23.433-112.18 0 0 1.5739 0.44024 2.3468 0.46286 4.969 5e-3 8.9962-3.7107 9.0027-8.2909 3e-3 -2.5029-1.2041-4.7428-3.1021-6.2638 1.1134-0.2906 2.2915-0.57996 3.5356-0.85144 1.6421-0.0201 8.281 6.7505 8.281 6.7505l-17.108 15.502-0.10493 5.1341c6.8246-6.532 21.822-20.631 21.822-20.631l-9.011-8.748 4.4656-1.9162 7.3027 7.4249 16.424-15.518 4.1986 2.6472c-5.5354 6.6814-9.1362 8.8549-17.419 16.748 4.314 4.7165 21.032 19.601 21.032 19.601l-0.0418-5.1343-16.479-14.762 16.064-14.738 0.92984-0.97464s12.729 5.089 13.538 5.0792c-5.4083-4.1126-15.126-7.6412-20.403-11.198-23.917-13.037-1.1434-39.924 20.924-33.214 0.62516 2.169 12.255-56.76 10.961-60.012 1.182-9.1259 1.435-7.8373-1.9922-13.07-10.245-21.842-40.174-63.19-40.174-63.19l269.84-1.2657c-2.816 5.0468-5.6552 9.1413-7.7947 15.037 0 0 15.143 14.577 20.662 33.724 3.0796 10.684 7.5127 20.687 15.3 27.806 0.12133 0.2541-0.27498 0.5722-0.75044 0.86985-21.345 6.9034-45.638-9.9016-53.081-29.05l-12.271 18.378c5.5312 0.58232-81.475-9.1996-102.83-6.7803 1.8932 0.34628 4.1228 1.7947 2.8563 7.3144-2.1857 9.5134-6.1052 43.904-6.1052 43.904-4.3383 33.46-7.7067 75.509-31.687 89.386 0 0 3.6644 3.6061 6.8275 5.4468 0.0771-0.0476-2.818-2.7495-2.9112-3.066 0.0164-0.97245 0.61822-1.5888 1.3222-2.1001 5.082-3.7864 11.283-11.64 11.06-11.846 19.752 15.85 50.676 29.514 69.336 23.878 7.3606-1.4136 10.636-7.9477 14.533-2.6396-5.1078 28.782-4.8095 60.451-2.8739 85.326 2.9729 55.444 16.21 87.23 29.314 126.52-6.7699 2.1938-41.532 23.611-41.532 23.611-0.21532 2.7308 41.882 11.689 58.404 10.13 0 0 3.3953 3.0554 3.4086 2.4104-0.0937-0.16698-0.21369-0.38993-0.32479-0.60089 2.4521-1.2543 4.1097-3.6669 4.1137-6.4353 5e-3 -4.0621-3.5471-7.3603-7.9543-7.3656-0.82671-1e-3 -1.6278 0.11359-2.3786 0.3274-2.0686-4.6931-3.8314-8.8018-3.8314-8.8018l23.376 9.4109-7.6562 23.575 2.5498 5.2424 9.344-30.704-29.839-11.821-2.012-5.4519 12.412-23.284-26.675-14.609-1.1172-4.6401 14.401-24.993-25.823-18.331 18.942-22.496-23.25-18.043 0.26479-2.9871 19.314-20.438-19.91-18.909-0.54299-7.6419 21.753-17.778-18.728-25.138c7.8276-4.8313 12.204-10.35 17.336-15.847l4.5743 1.852-16.679 11.614 17.769 23.726 18.802-15.605-10.158-15.31 6.202 2.6046 5.6728 8.2035-0.94031 8.3758-18.574 15.545 15.916 21.307 0.12488 3.9034s-9.9307 10.492-17.161 18.294l20.184 20.576-16.56 19.421 20.776 16.343-0.57939-4.8947-15.326-11.953 11.795-13.137c0.85502-7.9244-0.99166-21.528 3.4096-27.492-7.0899-6.413-3.3589-21.837 0.1369-26.833-6.7726-7.408-2.8716-23.647 1.4564-24.327-5.1698-5.9879-3.0926-18.111 1.2402-22.05 1.387-0.67964-18.475-7.3085-30.998-15.258 10.455-17.875 8.0467-34.707 11.344-40.769 4.4968 12.007 10.254 24.78 15.23 33.976 0.52449 0.95371 1.6338 0.74061 3.289 0.7696 20.724 1.7249 18.727 17.469 3.1787 21.484 0 0 31.578 21.733 47.591 24.155 0.16723 0.38602 0.047 0.89797-0.49135 1.921-2.2797 4.329-3.6034 11.822-3.9515 18.415-1.1683 9.8074 3.9552 24.865 3.9552 24.865l-6.5693 3.7301c-1.3136 5.1779-8.6474 5.2766-9.3619 8.9661 1.5282 15.852 35.024 76.59 42.104 83.457 2.7483-43.309-2.3177-90.327 0.31239-133.55zm-7.8214 110.44 5.4504-4.117-0.13909 6.5544zm5.2998 10.045-2.7417-1.888 2.7667-2.8214zm-337.83 76.894c0.50682 2.9848 1.106 5.9448 1.7628 8.8444-3.8642 0.92711-6.7165 4.1573-6.722 8.0084-5e-3 4.5802 4.026 8.3067 8.9954 8.3127 0.70952 8.5e-4 1.3904-0.0952 2.0526-0.23776 1.4089 4.5738 2.7613 8.5156 3.8115 11.414l1.8225 1.2032c-4.9008-15.794 4.6541-24.274-9.4265-37.407-0.2085-0.65551-1.2418-0.47322-2.2964-0.13802zm291.59-427.88 87.82 0.63673-0.0424 29.871-67.77 66.235 26.093 0.32787-0.43845 113.75c-7.1575 2.7315-13.984 6.9707-20.587 11.069l-41.13-21.037-2.9623-1.3997s1.1365-0.29563 3.5532-1.7522c4.6585-2.8072 6.4454-9.7187 4.3375-14.917-3.4457-8.4978-10.59-6.9746-16.539-7.0007-4.9372-3.5226-9.1482-15.294-12.606-23.149-1.599-3.4123-3.1271-6.0268-3.5231-8.0058-0.36586-1.8286-0.35195-3.4267-0.35195-3.4267s0.80037 0.23045 1.9659 2.4378c6.5386 12.738 21.852 18.909 30.009 6.8818 4.1349-7.3759 1.2994-15.809-5.6268-18.174-2.1198-0.72379-9.3341 0.034-9.3341 0.034-0.42109 0.23222-5.2192-6.2543-11.979-27.56-2.7763-8.8003-3.4802-27.885-0.81975-30.626 4.5048-5.0254 5.6738-12.091 9.4876-17.163 1.7325-3.1861 1.6393-1.1976 4.3455 2.3622 9.2252 12.135 25.46 21.551 40.332 20.976 10.559-0.40816 13.822-3.724 11.329-6.5317-5.786-5.4614-9.5633-13.122-11.455-19.83-4.4022-15.612-9.0727-29.539-20.952-41.684zm-44.688 74.052c1.11 0.96799 0.23063 2.4563 0.0246 5.1492-0.51966 6.8394-0.68082 6.918-4.9426 5.1883-8.177-3.3166-19.752-0.43868-26.738 6.5281-8.8098 8.7872-9.1027 17.841-3.6341 35.725 6.246 20.115 6.0927 22.768-1.4389 26.87-4.5298 3.547-9.1765 10.986-7.4428 10.965 0.24074-2e-3 0.86954-0.44934 1.3858-0.98913 0.51684-0.53983 4.6547-3.601 7.8425-5.6051 8.7452-5.498 11.485-8.3087 7.4861-18.486-3.9483-10.044-7.1272-19.861-5.4763-20.468 0.78931-0.29006 3.8002 2.9812 5.6626 3.9701 3.8165 2.0249 11.871 5.7699 12.859 5.7652 1.3639-8e-3 -0.0921-0.91075-4.0185-3.2925-10.507-6.3773-14.805-12.146-4.6626-8.4876 5.4336 1.9596 11.185 0.82723 14.431-0.14759 3.7818-1.1349 5.7583-2.2823 6.1581-0.96837 0.5413 6.1932 5e-3 12.572-0.41754 18.795-0.12433 0.39784-0.64115 4.6338-1.1535 9.3963-1.9467 18.087-5.3168 33.323-13.955 43.128-28.9 32.807-61.723 23.196-98.57-3.1364 13.808-35.111 12.897-62.49 16.311-73.631 3.1846-0.87851 6.9156 0.84854 9.2323 2.0528 5.1346 2.6989 10.977 4.3267 16.591 4.6138 5.2256 0.26723 6.1362-0.41498 5.6667 1.0127-0.36266 1.0989-8.7903 3.3692-13.949 4.3517-9.3871 1.7878-8.7015 3.7896-0.7989 3.1414 8.3144-0.6819 16.344-3.7151 24.864-8.9222 5.9014-3.6056 6.1171-3.6112 4.5396-8.1462-0.37992-1.0916-1.1769-2.7275 1.634-3.6761 2.9152-0.98409 2.5056-2.0814 0.85166-3.3017-0.40606-0.29905-1.4524-0.37154-1.8722-0.67782-0.52477-0.38064 0.0404-2.0811 0.0342-2.3118-10.722-8.3806-29.651-8.6051-45.22-0.0345-0.77712-0.25932-1.5854-1.3816-0.82122-2.9173 1.64-3.2976 18.387-7.2322 30.273-7.3946 5.4204-0.0738 6.4789 0.56188 14.639 2.87 3.3549 0.9491 5.2307 1.1973 5.5368 0.72727 0.69601-1.0689-0.50851-4.2565-3.0862-5.9636-8.7079-5.7672-21.399-5.3256-38.734 0.9891-9.278 3.3802-8.3124 4.5448-5.2923-12.316 0.83797-4.6783 1.801-8.2511 1.801-8.2511s81.069 2.7565 94.396 7.8868zm-12.499 15.823c4.2866 0.0307 8.2039 1.0259 10.485 3.0751 3.334 3.4094-0.17298 4.4684-5.4764 2.6056-6.7851-2.3832-14.507-1.0416-20.494 2.3772-3.8422 2.1937-4.6649 1.0152-1.4303-2.1335 3.9169-3.8093 10.654-5.9692 16.915-5.9244zm-61.658 5.7954c7.475-0.0378 14.32 1.2058 17.129 4.119 2.565 2.6597 0.0902 2.9267-6.3206 0.60786-9.0263-3.2653-21.072-2.2508-31.015 2.2895-5.1106 2.3336-6.6786 2.8062-5.9941 0.1428 3.0041-4.3129 15.276-7.1041 26.201-7.1593zm59.79 2.2189c7.1232 0.0227 13.173 1.5365 12.046 4.9686-0.40317 1.2222-0.75256 0.48427-5.846-0.96784-5.0862-1.4503-11.595-0.91329-18.13 0.83382-6.0983 1.6305-7.2659 2.0003-4.5274-0.42581 3.3283-2.9491 10.171-4.4308 16.457-4.4088zm14.503 3.3166c7.1989 10.253 8.452 25.278 16.114 33.424 14.2-2.4177 20.9 9.8942 8.9443 18.073-6.0786 3.1016-13.478 0.75124-18.911-7.4696-5.1782-7.8319-6.6022-12.571-6.7624-17.539 0.48476-10.427-0.14455-16.01 0.61461-26.488zm-83.119 4.6022 3.143 0.34905c2.2727 7.1336 7.3825 7.571 10.457 0.10276l2.3774 0.36316c-3.6255 9.1523-12.687 9.5192-15.977-0.81492zm-4.8703 0.12946c1.3105-0.0665 2.3988 1.2063 2.9766 2.886 1.2171 3.7961-0.17188 3.3158-3.0156 1.7078-2.8781-1.6174-5.0916-2.6884-3.432-3.3369 1.2422-0.60957 2.2195-1.0218 3.4711-1.2568zm27.002 2.4646c1.0841 1.2418 1.3282 2.1941-0.0697 3.0925-1.3702 0.66002-2.3771 1.0751-3.6995 1.5118-1.2669 0.35286-2.0452 0.071-1.5125-1.6081 0.33526-1.4407 1.3207-3.4996 2.0583-4.3061 1.231-0.20249 2.5475 0.60139 3.2232 1.31zm38.131-0.82471 2.4918 0.16824c2.6044 6.5228 8.7128 6.3416 11.075 0.68889l2.2315-0.0126c-4.2205 10.091-12.774 8.2563-15.798-0.84478zm-4.4964 0.84992c2.389 3.8e-4 4.7094 3.173 3.397 4.7934-1.3247 1.0158-7.2142-0.1491-7.7336-2.1561-0.2044-1.2102 1.9475-2.6368 4.3366-2.6373zm23.062 0.64373c1.1546 0.25438 1.0763 1.0571 1.1059 1.1873 0.60429 2.6701-2.8593 3.5982-3.6359 2.5777-0.42645-0.56203 1.3987-2.6948 2.53-3.765zm-54.92 28.487c-5.8368 1.498-8.5564 6.1395-8.1966 11.324 0.29085 4.1934 2.6515 7.6135 6.1062 8.3392 6.961 1.4622 11.784-3.0098 18.899-4.8112 3.0755-0.7355 2.3617-4.3908 0.39738-5.98-2.5246-2.0426-6.4055-0.77522-11.613 2.889-10.218 7.1892-12.654-6.6602-3.3437-9.0966 1.4425-0.37749 0.7836-3.4431-2.2488-2.6648zm-302.3 318.55 3.9683 1.0565-3.972 4.3253s0.0219-3.741-5.5e-4 -5.3819zm11.034 14.826-8.188 8.4669 11.109-0.75787-7.5455 7.2043 11.56 0.4437-8.5097 8.0888 11.363-0.19847-8.4116 7.8094 10.721 0.29445-7.0954 7.1485 11.798-0.82083-8.6223 8.5485 12.636-0.19116-9.5886 7.9712 12.605-0.0657-3.7905 3.968 3.3531 1.5578c3.4312-1.4668 23.204-7.1085 23.865-11.374-4.3631-1.084-17.224 4.9286-18.072 3.927-5.1253-20.957-27.284-67.318-41.924-80.847l-1.1851 131.05c-0.34745 0.29596-0.7534 0.41187-1.1549 0.58784-2.1927 0.96117-5.0467 0.39134-6.9789 1.1061-7.4333-0.36533-19.869 11.068-13.382 13.346 3.3925 0.69429 22.175 3.6837 22.226 4.5455 2.2491 37.954-1.5282 76.103 0.12761 116.62 5.2526 0.7251 22.426 1.6484 22.426 1.6484s-63.074 60.502-64.307 59.281c1.5627-64.925 0.97108-191.85-0.26432-192.32 0.0159-3.8068 1.473-11.827 1.473-11.827l-0.78489-403.79s-0.36445-1.8059-1.1197-2.9588c-1.2907-1.9705-1.3843-2.4755-1.4701-8.5288-0.4972-3.7411 0.08813-4.7137 0.08813-4.7137h1.04e-4l43.034 41.998 0.34356 117.31s40.242 55.616 49.594 81.258c20.528 38.187 18.22 93.8 30.669 115.11 0.26123 3.2e-4 0.51047-0.0101 0.76559-0.0275 0.2976 3.1036 0.33291 4.3503 0.82384 4.835 0.92567 6.9419 1.9312 16.426 1.9312 16.426l-4.5211 6.5999 5.0245 5.951 8e-3 15.853-6.7195 6.282 6.1303 7.1833-1.7312 14.8-4.7942 3.9274 2.7153 3.381s0.44279 5.334-0.65144 11.439c-0.74431 4.1464-5.1783 3.582-14.397-0.75298-13.064-4.582-26.432-12.77-36.751-18.945 0.62858-7.706 11.008-25.268-3.3733-44.666-5.3233-3.6848-20.794-2.3528-22.147-2.9091l0.20604-59.694m-0.0109-6.8927 6.9747-1.1137-7.0473 6.4876zm332.51-297.59c-0.56936 0.0597-1.2818 0.54842-2.201 1.4986-0.96725 1.0017-2.5139 0.72623-6.4344 0.50266-4.1968-0.23902-5.2637-0.13424-8.0311 0.78597-3.1542 1.0489-3.2222 1.0483-5.4078 0.18839-3.4163-1.3445-5.5554-1.5037-8.6968-0.68606-3.8557 1.0028-6.2894 0.72523-8.6647-0.35573-2.4053-1.0939-3.1675-0.87594-4.0084 1.1361-0.35245 0.84403-2.0654 4.1217-2.8578 5.2358-2.5768 3.6218-1.9561 4.2272 3.4329 2.7064 3.7031-1.0446 10.527-1.7017 15.603 0.24405 3.8588 1.4792 8.459 1.0134 13.96-1.1841 4.8264-1.9276 9.5838-2.535 14.202 1.053 2.69 2.0898 2.5466 0.50943 1.8623-3.8109-0.766-4.8302-1.3019-7.4674-2.7586-7.3143zm-182.89 15.017c-4.9694-5e-3 -9.0124 3.6957-9.019 8.2759-5e-3 4.5802 4.026 8.3066 8.9954 8.3126 2.3561-1.8028 3.5959-16.251 0.0246-16.589zm173.82 0.27621c-5.48 1.7089-13.01 3.9967-21.485 1.6942-6.6588-1.8818-5.0719 2.7344 2.1616 3.3203 5.0278 0.40736 4.6884 0.40471 0.76018 3.784-3.3094 2.847 0.83084 2.6446 3.0934 0.87446 2.6689-2.088 9.9073-1.5368 13.991 0.18184 1.7915 0.75416 1.9936-2.3722-0.14237-3.0627-5.3755-1.7374-4.085-1.8675 1.7839-3.6199 2.1747-0.45145 2.2621-3.9288-0.16368-3.1724zm-173.83 2.5012c2.8419 0.98932 1.0515 10.604-0.0164 11.034-3.3057-5e-3 -5.9904-2.4849-5.986-5.5318 5e-3 -3.0468 2.696-5.5063 6.0017-5.5022zm-48.017 0.28734c2.2977-0.72061 3.9051 2.7981 3.9017 5.1689-5e-3 3.0468-2.6822 5.5213-5.9854 5.5173-4.0361-3.6408-4.7686-7.6927-0.0877-9.9695 0.67569-0.23473 1.3994-0.47458 2.1717-0.71677zm23.655 8.1502-19.261 17.901 18.853 17.647 18.936-17.992zm227.82 7.3757c2.7548 3e-3 4.9811 2.0756 4.9775 4.6148-3e-3 2.5391-2.2358 4.5911-4.9906 4.5878-2.7553-3e-3 -4.9975-2.0607-4.9939-4.5998 3e-3 -2.5391 2.2498-4.606 5.0069-4.6027zm-228.01 5.7448c2.7553 3e-3 4.9812 2.0756 4.9776 4.6148-3e-3 2.5391-2.2353 4.5911-4.9906 4.5878-2.7547-3e-3 -4.9811-2.0607-4.9775-4.5998 3e-3 -2.5391 2.2359-4.6061 4.9906-4.6027zm204.45 4.6453 13.755 17.116-16.91 13.941 0.87555-8.676c3.7256-0.61726 6.5529-3.6303 6.558-7.243 5e-3 -3.1374-2.1236-5.8078-5.1209-6.8668zm-229.46 0.66893-0.20194 4.6536 17.34 15.874-17.207 16.418 0.14018 4.5489 21.416-20.961zm49.075 0.0743-21.252 20.046 20.444 20.637 0.26806-5.224-16.054-15.332 16.407-14.977zm306.26 3.5821c4.3236-2e-3 8.0217 1.3101 9.1482 3.9142 0.88473 1.4635 1.3575 2.7282 2.6503 3.2759 2.5204 1.068 5.9436 0.33902 6.1085-0.44302 0.29753-2e-3 -4.0206-0.38605-4.7546-0.99653-3.3738-2.8075-2.7998-4.5725 1.9931-4.2161 1.5439 0.066 5.8578 0.13021 5.9529 1.6867 0.95067 5.3658-6.7967 9.2852-16.701 8.5538-7.064-1.0846-7.0991 1.4255-7.597 4.8998-0.31187 1.1407-1.4012 2.983-2.2866 4.4409-2.5043 4.1253-3.3283 3.5481-1.5873 5.1473 1.6866 2.0322 3.8703 4.5571 3.8341 6.9253l-0.10821 21.762s-14.821-0.0768-19.968-3.5164c-5.3829-9.0793-9.0232-28.648-1.0843-39.379 2.774-3.2155 6.8349-4.7471 11.511-8.1528 3.6047-2.6255 8.5675-3.9021 12.889-3.9026zm-83.804 2.3459-0.54638 6.2895c-3.7659 0.5862-6.6506 3.5904-6.6557 7.2279-5e-3 3.2264 2.2611 5.9601 5.3977 6.9572l-0.48009 5.4639-10.974-14.56zm-43.169 4.1964c1.6232 0.83615 2.7166 2.4284 2.714 4.2668-3e-3 2.1621-1.5133 4.0033-3.6225 4.6494zm-229.35 2.0202c-7.6125 3.6339-5.0156 17.752-0.0246 16.589 4.9694 5e-3 8.9962-3.7107 9.0027-8.2909 5e-3 -4.5802-4.0098-8.2916-8.9791-8.2976zm49.678 0.27022c-4.9694-5e-3 -9.0124 3.6957-9.019 8.2759-5e-3 4.5802 4.026 8.3067 8.9954 8.3127 6.6098-1.9091 2.8888-16.314 0.0246-16.589zm222.07 2.3697-0.79466 9.0514c-1.749-0.80469-2.9446-2.466-2.9419-4.3871 3e-3 -2.1956 1.5729-4.049 3.7365-4.6643zm-271.75 0.13752c3.3056 5e-3 5.9741 2.4699 5.9697 5.5167-5e-3 3.0468-2.681 5.5213-5.9854 5.5173-1.9702 0.35572-3.2084-10.084 0.0164-11.034zm49.678 0.27021c4.0075 0.30501 0.66675 9.7001-0.0164 11.034-3.3057-5e-3 -5.9904-2.4849-5.9861-5.5318 5e-3 -3.0468 2.696-5.5062 6.0017-5.5023zm201.78 5.4828-19.881 18.216 19.582 19.945 16.346-18.265zm-225.8 3.1954-19.066 18.052 17.974 17.166 19.018-18.457zm-125.14 9.7421 6.9453 6.809-7.183 0.0516zm349.37 1.0971c2.7553 3e-3 4.9811 2.0757 4.9775 4.6148-3e-3 2.5392-2.2353 4.5911-4.9906 4.5878-2.7548-3e-3 -4.9812-2.0606-4.9776-4.5998 3e-3 -2.5391 2.2359-4.6061 4.9906-4.6027zm-224.35 2.2214c2.7548 3e-3 4.9975 2.0606 4.9939 4.5998-3e-3 2.5392-2.2522 4.6061-5.007 4.6028-2.7561-3e-3 -4.9811-2.0756-4.9775-4.6148 3e-3 -2.5391 2.2345-4.5911 4.9906-4.5877zm24.603 5.4041-21.072 20.016 20.299 19.976 0.28364-4.7286-16.266-15.122 16.538-15.563zm-49.483-0.0312 0.2044 5.0744 16.869 15.453-17.777 16.432 0.71037 4.4295 21.855-20.781zm227.14 5.7686 15.209 13.98-15.202 15.564-5e-3 -8.0916c3.1292-0.99295 5.3803-3.7372 5.3849-6.9592 5e-3 -3.2264-2.2486-5.9486-5.3815-6.9422zm41.989 0.77126 0.15467 5.7048c-3.4241 0.82429-5.9667 3.6802-5.9715 7.0936-5e-3 3.5492 2.7291 6.5164 6.3584 7.2135l0.12378 4.5189-12.036-12.265zm-352.08 2.1423s5.0769 5.0023 6.7984 7.049c-1.3506 1.4466-2.1874 3.3139-2.1903 5.3718-5e-3 4.5802 4.026 8.3066 8.9954 8.3126 1.4313 2e-3 2.7741-0.3183 3.9755-0.86591 0.92195 1.265 4.9749 6.4463 4.9749 6.4463l-23.938-3.5718zm132.3 3.4773c-4.9694-5e-3 -9.0124 3.6957-9.0189 8.2759-5e-3 4.5802 4.026 8.3066 8.9954 8.3126 9.0397-1.6854 7.2793-16.181 0.0246-16.589zm-50.134 0.25489c-4.9693-5e-3 -9.0124 3.6957-9.0189 8.2759-5e-3 4.5802 4.026 8.3067 8.9954 8.3127 4.9694 5e-3 8.9962-3.7107 9.0027-8.2909 5e-3 -4.5802-4.0097-8.2916-8.9791-8.2976zm270.13 2.3826 0.26397 9.2029c-2.1111-0.65126-3.6287-2.4961-3.6256-4.6582 3e-3 -2.0668 1.3929-3.832 3.3618-4.5447zm-220 0.14004c5.8183 1.9605 4.0311 11.405-0.0164 11.034-3.3058-5e-3 -5.9904-2.4849-5.9861-5.5317 5e-3 -3.0468 2.696-5.5062 6.0018-5.5022zm-50.134 0.25488c3.3057 5e-3 5.9741 2.4698 5.9698 5.5167-5e-3 3.0468-2.6797 5.5213-5.9854 5.5173-3.3057-5e-3 -5.9904-2.4849-5.9861-5.5318 5e-3 -3.0468 2.696-5.5062 6.0017-5.5022zm227.93 0.8004c1.6224 0.83638 2.7166 2.429 2.714 4.2668-3e-3 1.8331-1.0919 3.4371-2.7099 4.2752zm-301.41 1.9933 6.9919 8.3103c-0.64569 0.21987-1.3396 0.34364-2.069 0.34275-3.3057-5e-3 -5.9904-2.4849-5.9861-5.5317 2e-3 -1.1622 0.39434-2.2342 1.0632-3.1213zm324.09 4.1591-16.477 18.205 20.19 16.553 14.357-16.346zm-224.81 1.9206-20.207 18.861 14.232 13.663-7.8822-0.80515-11.386-10.733-0.26588 3.5576 6.1964 6.5528-6.6207-0.21836 1.1524 2.8388c16.345 0.44199 31.892 4.8949 47.745 7.8114l0.97192-1.9655-5.8779-1.3957 5.5629-6.1183-0.0587-4.6539-9.6233 9.4762-3.2566-0.6945 13.635-12.924-0.90654-3.9493-16.766 15.773-4.8686-1.0267 17.043-15.983zm225.62 11.141c2.7548 3e-3 4.9812 2.0606 4.9775 4.5998-3e-3 2.5391-2.2358 4.5911-4.9906 4.5877-2.756-3e-3 -4.9975-2.0607-4.9938-4.5998 3e-3 -2.5392 2.2508-4.591 5.0069-4.5877zm-226.32 2.1139c2.7553 3e-3 4.9812 2.0607 4.9776 4.5998-3e-3 2.5391-2.2353 4.5911-4.9906 4.5877-2.7548-3e-3 -4.9811-2.0606-4.9775-4.5998 3e-3 -2.5391 2.2358-4.591 4.9906-4.5877zm-113.04 1.1847s-1.3136 15.108-2.0515 22.381l26.068 6.4567 3.2755-24.136zm-11.37 1.1272 3.6319 0.12442-0.47582 13.931-3.6763-3.3372zm48.236 6.1682s2.6174 3.8867 5.6077 8.1734c-1.6136 1.4948-2.6111 3.5468-2.6143 5.8216-5e-3 4.5802 4.0237 8.3066 8.9954 8.3127 0.91353 1e-3 1.7918-0.12442 2.6228-0.35713 1.1702 2.0418 3.3478 5.2884 3.3478 5.2884l-22.338-6.0619zm279.77 1.8838 17.523 13.187-13.655 15.446-0.90271-6.6365c3.0755-1.0197 5.2826-3.7275 5.2871-6.9143 5e-3 -3.8234-3.1601-6.9594-7.2051-7.3197zm-303.46-0.14107c2.7547 3e-3 4.9811 2.0606 4.9775 4.5998-3e-3 2.5391-2.2358 4.6061-4.9906 4.6027-2.7553-3e-3 -4.9975-2.0757-4.9938-4.6148 3e-3 -2.5392 2.2516-4.5911 5.0069-4.5877zm350.63 1.8792c-4.4072-5e-3 -8.002 3.2693-8.0078 7.3314-5e-3 4.0621 3.5797 7.3754 7.9868 7.3807 1.7396 1.181 2.2393-12.628 0.0219-14.712zm-3e-3 2.462c0.46973 2.19 1.0371 10.305-0.0137 9.788-2.9318-3e-3 -5.323-2.2133-5.3191-4.9154 3e-3 -2.7022 2.4013-4.8761 5.333-4.8726zm-319.64 4.5084c1.991 2.9013 4.0589 6.0244 5.8022 8.8493-0.36043 0.0619-0.72867 0.0892-1.1077 0.0886-3.3057-5e-3 -5.9904-2.4849-5.986-5.5317 2e-3 -1.2906 0.48298-2.469 1.2915-3.4062zm273.86 1.5914c2.3993 0.47032 4.1988 2.4261 4.1955 4.779-3e-3 1.918-1.2116 3.578-2.9544 4.38zm23.758 4.3372-14.848 18.312 22.471 16.195 12.766-20.041zm-338.36 7.0529 16.754 4.5389-3.1824 15.804c-0.26533-0.92223-1.1986-2.5917-2.4529-4.5817 0.72152-1.1932 1.1438-2.5596 1.1459-4.0219 5e-3 -4.5802-4.0097-8.2916-8.9791-8.2976-0.23938-2.8e-4 -0.48173 0.0126-0.71671 0.0277-1.4917-2.0321-2.5686-3.471-2.5686-3.471zm24.834 3.8731-5.4922 25.199 25.2 9.383 6.1783-26.624zm316.37 0.57666c2.7548 3e-3 4.9811 2.0606 4.9775 4.5997-3e-3 2.5391-2.2358 4.5911-4.9906 4.5878-2.7553-3e-3 -4.9975-2.0607-4.9938-4.5998 3e-3 -2.5391 2.2498-4.591 5.0069-4.5877zm-336.53 1.9209c2.6253 0.58429 4.573 2.7641 4.5693 5.3649-5e-4 0.34394-0.0503 0.67904-0.11532 1.0057-1.4393-2.1351-3.0037-4.3566-4.4538-6.3706zm357.92 1.1187-13.548 23.452 22.957 14.816-1.5683-5.0175-16.419-11.129 9.5798-16.13zm-326.6 8.0917c2.7557 3e-3 4.9811 2.0757 4.9775 4.6148-3e-3 2.5391-2.235 4.5911-4.9906 4.5878-2.7547-3e-3 -4.9812-2.0606-4.9775-4.5998 3e-3 -2.5391 2.2359-4.6061 4.9906-4.6027zm23.793 2.3706 5.3464 8.6084c-2.2121 1.5068-3.654 3.917-3.6579 6.646-5e-3 4.5802 4.0264 8.3066 8.9954 8.3126 0.74427 9e-4 1.4592-0.096 2.1503-0.25262l3.8658 7.5859-23.392-9.4709zm308 0.44664c-2.0966-0.4511-4.1081 0.78112-5.5456 2.057-1.5052 1.336-2.4428 3.2116-2.4458 5.2893-5e-3 4.0621 3.5634 7.3604 7.9705 7.3657 6.0282-1.3364 2.81-14.112 0.0219-14.712zm-48.427 1.9682 19.006 12.558-11.136 19.743s-1.1092-3.9925-2.5113-9.3556c2.7043-1.1764 4.5821-3.7051 4.5863-6.6449 5e-3 -4.0621-3.5634-7.3603-7.9706-7.3656-0.0344-3e-5 -0.065-4.6e-4 -0.0978-1e-4 -0.74329-3.218-1.4053-6.3208-1.8767-8.9346zm48.423 0.49377c3.3035 0.93392 2.1728 9.4758-0.0137 9.788-2.8972 0.41366-5.3067-2.1983-5.3029-4.9005 3e-3 -2.7021 2.3851-4.8911 5.3168-4.8876zm-301.34 8.2835 4.8565 9.5387c-0.2708 0.0343-0.54938 0.0594-0.83079 0.0592-3.3055-5e-3 -5.9904-2.4849-5.9861-5.5317 2e-3 -1.611 0.76237-3.0607 1.9603-4.066zm255.39 2.65c2.6988 0.23272 4.8016 2.3217 4.798 4.8698-3e-3 1.7696-1.037 3.3109-2.5631 4.1704-0.73342-2.8496-1.4996-5.9573-2.235-9.0401zm25.096 2.5374-13.064 23.719 24.054 13.555 11.108-22.94zm-322.38 4.1748 14.829 6.233-4.206 14.106-1.803-3.455c0.87716-1.2797 1.4047-2.7873 1.4071-4.4119 5e-3 -4.2786-3.5057-7.8015-8.0182-8.2514zm23.429 6.7237-7.3143 23.726 23.113 11.122 10.588-23.872zm-19.481 0.83221c1.9407 0.91156 3.27 2.7652 3.2669 4.913-5.5e-4 0.3757-0.0541 0.74099-0.13199 1.0958zm322.69 2.3109c2.7553 3e-3 4.9974 2.0757 4.9938 4.6148-3e-3 2.5392-2.2498 4.5911-5.0069 4.5878-2.7548-3e-3 -4.9811-2.0606-4.9775-4.5998 3e-3 -2.5391 2.2358-4.606 4.9906-4.6027zm21.968 1.3363-11.076 24.828 25.336 12.922-1.9012-4.5322-18.725-9.9908 8.0595-17.969zm-315.91 7.9019c2.7548 3e-3 4.9811 2.0606 4.9775 4.5998-3e-3 2.5391-2.2356 4.591-4.9906 4.5877-2.7553-3e-3 -4.9812-2.0606-4.9776-4.5998 3e-3 -2.5391 2.2356-4.5911 4.9907-4.5878zm323.86 4.0688c-4.4072-5e-3 -7.9858 3.2843-7.9916 7.3464-5e-3 4.0621 3.5661 7.5103 7.9707 7.3656 8.011-0.15867 3.9483-14.767 0.0219-14.712zm-299.08 0.46483c1.515 2.5295 2.6485 5.1734 3.6862 7.8859-2.3878 1.4871-3.9637 4.0007-3.9677 6.8558-5e-3 4.4136 3.739 8.0341 8.4579 8.297 0.17816 0.0101 1.0097 0.12114 1.0097 0.12114l1.4262 5.0008-19.89-9.6468c2.7995-6.9046 5.1958-11.687 9.2778-18.514zm299.07 1.9972c2.3261 0.90079 2.9394 9.5159-0.0137 9.788-2.9318-3e-3 -5.3068-2.1982-5.3029-4.9004 3e-3 -2.7022 2.3851-4.8911 5.3168-4.8876zm-49.063 2.7932 19.547 10.352-9.8493 19.519-2.9028-8.9508c2.1122-1.3229 3.5069-3.5445 3.5105-6.0758 5e-3 -4.0317-3.5111-7.3116-7.8729-7.3655zm-245.27 5.8591 3.0974 9.5515c-3.163-0.15187-5.1108-2.504-5.1066-5.4556 2e-3 -1.6323 0.7831-3.0892 2.0092-4.0959zm248.53 4.173c2.4894 0.40504 4.378 2.3976 4.3746 4.8092-2e-3 1.4036-0.63997 2.6631-1.6664 3.5559zm-291.91 0.27836 15.12 8.1699-6.8478 16.265-1.9788-5.8722c1.3587-1.4527 2.1874-3.3339 2.1903-5.4018 5e-3 -3.867-2.8658-7.1035-6.7481-8.0247zm315.85 0.71132-9.2022 22.642 26.515 12.882 6.6621-23.171zm-312.93 7.9243c1.5396 0.99754 2.5535 2.6523 2.5508 4.5217-9.3e-4 0.6665-0.1421 1.2993-0.37732 1.8911zm19.821 1.1498-10.799 22.971 22.376 13.628 11.696-23.945zm301.42 4.1018c2.7554 3e-3 4.9812 2.0606 4.9776 4.5998-3e-3 2.5391-2.2353 4.5911-4.9906 4.5878-2.7548-3e-3 -4.9811-2.0606-4.9775-4.5998 3e-3 -2.5391 2.2358-4.5911 4.9905-4.5877zm26.232 10.133c-2.2343 1.3167-3.5631 3.8746-3.5664 6.4976-5e-3 4.0621 3.5635 7.3854 7.9706 7.3656 0.98296-8e-3 1.8645-0.0975 2.6505-0.26533 2.303-2.8363-0.94149-13.721-7.0547-13.598zm-320.97-1.0462c2.7552 3e-3 4.9811 2.0606 4.9775 4.5998-3e-3 2.5391-2.2354 4.6061-4.9906 4.6027-2.7548-3e-3 -4.9811-2.0756-4.9775-4.6148 3e-3 -2.5392 2.2358-4.5911 4.9906-4.5878zm326.56 12.23c-0.32968 0.15943-0.72225 0.23826-1.1835 0.21786-2.9284-0.12946-5.3067-2.1983-5.3028-4.9004 2e-3 -1.5392 0.7757-2.9119 1.983-3.8077 4.5882-3.1636 5.2434 9.1252 4.5034 8.4902zm-297.11 3.554c0.91173 3.7703 1.9127 7.3535 2.9004 10.692-0.40567 0.0796-0.82313 0.13424-1.2544 0.13373-3.3057-5e-3 -5.9904-2.4849-5.9861-5.5317 3e-3 -2.5179 1.8361-4.6373 4.3401-5.2941zm278.06 3.0377-6.9748 25.467 26.537 8.9494 5.116-24.104zm-323.66-0.0451 14.076 8.9793s-4.569 10.116-8.4266 15.513l-1.0846-4.6852c2.3348-1.4979 3.8659-3.9749 3.8699-6.7959 5e-3 -4.06-3.14-7.4415-7.318-8.1605zm297.9 1.5754c2.9318 3e-3 5.2904 2.1832 5.2866 4.8854-3e-3 1.771-0.57786 2.5012-2.1059 3.3602-1.1633-2.4203-2.7614-4.8153-4.2071-8.0666 0.43147-0.10326 0.55881-0.17933 1.0264-0.17882zm-296.07 6.3683c2.1163 0.84955 3.5957 2.7974 3.5925 5.0635-2e-3 1.4358-0.59458 2.7391-1.5689 3.7212zm21.153 3.7486-12.815 20.461 18.745 13.248 14.688-20.474zm309.58 1.0641c2.7548 3e-3 4.9811 2.0756 4.9775 4.6148-3e-3 2.5391-2.2358 4.591-4.9906 4.5877-2.7557-3e-3 -4.9975-2.0606-4.9938-4.5998 3e-3 -2.5392 2.2511-4.6061 5.0069-4.6027zm22.957 6.3929 3.2509 4.6577c-1.0162 1.2307-1.6327 2.7608-1.6351 4.4267-5e-3 4.0621 3.5797 7.3604 7.9869 7.3657 0.59773 7.3e-4 1.1831-0.0486 1.743-0.16295l2.617 3.7412-16.638-5.5146zm-328.73 5.0679c2.7548 3e-3 4.9812 2.0606 4.9776 4.5998-3e-3 2.5392-2.2359 4.5911-4.9906 4.5878-2.7552-3e-3 -4.9975-2.0607-4.9939-4.5998 3e-3 -2.5391 2.2517-4.591 5.0069-4.5877zm333.57 1.8737 4.9089 7.0467c-0.0495 1e-3 -0.0962-1e-4 -0.14674-1.7e-4 -4.648-0.0872-6.6091-3.6159-4.7624-7.0465zm-309.65-0.0582-18.144 22.121 24.001 16.437-0.36767-4.8944-17.542-11.581 13.379-16.377zm264.49 7.8102 23.901 6.9495-5.1454 21.852-5.6233-8.6389c1.5356-1.3406 2.4966-3.2233 2.4996-5.3264 5e-3 -4.062-3.547-7.3603-7.9543-7.3656-0.89386-1e-3 -1.7553 0.13878-2.5577 0.38723zm-260.48 3.4839c-4.5388 0.41852-8.1006 3.938-8.1067 8.232-5e-3 4.5802 4.026 8.3067 8.9953 8.3127 2.289 0.25362 2.6225-2.9704 3e-3 -2.7773-3.3057-5e-3 -5.9904-2.4849-5.9861-5.5318 5e-3 -2.9266 2.4852-5.3076 5.6108-5.4877l-0.4359-2.7478c-0.0276 2e-3 -0.0546-2e-3 -0.0814-1e-4zm292.95 2.7104-4.1893 25.291 27.079 5.362 2.0523-22.936zm-338.67 0.20678 12.774 8.7226-9.7253 12.508-0.51611-3.5885c2.3175-1.5 3.8333-3.9875 3.8373-6.796 5e-3 -3.5915-2.4721-6.628-5.934-7.7835zm313.88 3.5313c2.9318 3e-3 5.2904 2.1982 5.2866 4.9004-2e-3 1.2052-0.47506 2.2978-1.2586 3.1511l-5.152-7.9327c0.36125-0.071 0.73944-0.11888 1.124-0.11863zm-85.907 3.2141c0.57617 0.19569 2.2133 0.31361 1.9534 0.79799-0.21669 0.40665-4.5511 4.7834-4.5511 4.7834l0.48279 4.084 7.6992-8.0223 3.0933 1.0546-10.813 10.105-0.51031 3.7675 14.401-12.998 6.1383 1.5687-16.749 15.157 19.243 18.023 19.311-18.097-13.678-13.813 6.7749 0.59365c2.8531 3.0057 5.9926 7.786 11.24 10.342l-0.5161-3.6036c-0.26861 0.1705-6.3665-5.302-5.3988-6.1916l5.3908 0.36678s7.7871-2.079-1.9679-2.0891c-12.8-0.0126-26.596-4.0466-37.582-7.0711-1.2232-0.34084-3.0953-1.2476-4.0049-1.2814-2.2505 2.0712-5.0204 1.6286 0.0456 2.5226zm-227.05-0.33414c1.4772 1.004 2.4395 2.6071 2.4369 4.4316-2e-3 1.2982-0.49411 2.4933-1.3079 3.4362zm347.66 4.818c2.7547 3e-3 4.9811 2.0606 4.9775 4.5998-3e-3 2.5391-2.2358 4.591-4.9906 4.5877-2.7558-3e-3 -4.9812-2.0607-4.9776-4.5998 3e-3 -2.5392 2.2349-4.5911 4.9906-4.5878zm-327.76 0.0549-15.597 18.221 17.618 15.619 18.091-19.494zm349.66 5.0907 1.2376 0.19645 0.0475 12.445-2.0029-0.39275zm-121.56 5.6331c2.7553 3e-3 4.9812 2.0606 4.9776 4.5998-3e-3 2.5392-2.2353 4.5911-4.9906 4.5877-2.7548-3e-3 -4.9974-2.0606-4.9938-4.5998 3e-3 -2.5391 2.2521-4.591 5.0069-4.5877zm-225.7 1.0338c2.7548 3e-3 4.9812 2.0757 4.9775 4.6148-3e-3 2.5392-2.2358 4.5911-4.9906 4.5878-2.7551-3e-3 -4.9812-2.0606-4.9776-4.5998 3e-3 -2.5391 2.2356-4.6061 4.9906-4.6027zm24.036 3.647-20.147 22.074 21.569 20.578-0.0587-4.5939-16.754-16.233 15.742-16.87zm224.92 2.298-20.729 19.251 20.609 19.736 0.49496-4.428-15.908-14.836 14.94-14.184zm-45.511 1.9418 0.0246 5.2393 12.964 12.191-13.309 12.489 0.0738 5.3144 18.87-17.887zm106.05 2.4248 24.377 4.2779-1.5286 21.226-5.8544-6.5374c1.0006-1.2291 1.6001-2.7572 1.6024-4.4117 5e-3 -4.0621-3.5634-7.3453-7.9706-7.3506-1.2596-2e-3 -2.4423 0.26969-3.503 0.74641zm-328.61 3.3866 12.004 11.664-11.5 11.951-0.0918-4.0685c3.201-1.269 5.4462-4.2034 5.451-7.6196 5e-3 -3.5385-2.3888-6.5449-5.7713-7.7383zm44.559 2.9962c-3.9971 0.84096-6.9934 4.1301-6.999 8.0682-5e-3 3.938 2.9808 7.2464 6.976 8.1l5e-3 -2.8974c-2.3108-0.76966-3.9703-2.807-3.9669-5.199 3e-3 -2.3911 1.6701-4.4136 3.9816-5.1745zm176.67 0.99384c-3.7023 2.2417-2.0681 14.916-0.0219 14.712 4.4073 5e-3 7.9695-3.2843 7.9752-7.3464 5e-3 -4.062-3.5471-7.3603-7.9544-7.3656zm47.217 1.2579c-4.4071-5e-3 -7.9857 3.2843-7.9914 7.3464-5e-3 4.0621 3.5634 7.3603 7.9706 7.3656 3.507-1.0637 2.0958-13.973 0.0219-14.712zm70.786 1.0312c2.9318 3e-3 5.3067 2.1833 5.3028 4.8854-1e-3 0.88317-0.27569 1.7154-0.72012 2.4311l-6.3097-7.0634c0.54198-0.17026 1.1225-0.25387 1.7269-0.25314zm-118.01 0.17302c2.9318 3e-3 5.2905 2.1982 5.2866 4.9004-3e-3 2.7022-2.3687 4.8912-5.3005 4.8876 0.2708-1.7502-0.98386-9.9921 0.0137-9.788zm-221.08 0.8592c1.6326 0.98451 2.7 2.6768 2.6973 4.6121-3e-3 1.8508-0.98196 3.4995-2.4984 4.5007zm268.29 0.39874c0.66 1.9818 1.4785 10.133-0.0137 9.788-2.9317-3e-3 -5.3067-2.1983-5.3028-4.9004 3e-3 -2.7022 2.385-4.8911 5.3167-4.8876zm-24.149 7.1017-19.457 17.796 19.812 18.714 18.79-18.427zm-224.15 0.69032-17.42 17.288 16.732 20.077 19.685-18.021zm-94.307 0.51671c5.3487 0.0151 10.343 0.86244 12.373 4.1434 8.1778 10.122 5.7936 30.891 0.10876 38.026-12.763 10.649-19.976 13.463-34.35 11.008 1.6592-5.9902-5.2447-9.2283-6.2433-7.904-0.12652 0.0202-0.66259 1.0679-0.0191 1.1409 4.954 0.5658 4.5552 6.0131 3.9699 6.0359-5.4772-0.16295-9.0359-0.0814-9.5927-2.3301-0.34302-1.3854 0.54176-3.5264 3.7376-5.9299 3.7532-2.7609 21.014-2.6768 21.014-2.6768 0.0656 0.0254-0.0333-4.5233 1.704-7.1288 1.5257-2.288 3.6383-4.8279 2.1909-5.8822-2.4879-1.0654-4.1675-3.641-4.5186-6.6109-0.66377-6.2243 0.41978-21.202 0.17707-21.362 2.9071-0.24959 6.2384-0.53605 9.4478-0.52908zm318.41 11.944c2.7553 3e-3 4.9975 2.0606 4.9938 4.5998-3e-3 2.5391-2.2497 4.5911-5.0069 4.5877-2.7548-3e-3 -4.9811-2.0606-4.9775-4.5998 3e-3 -2.5392 2.2358-4.5911 4.9906-4.5878zm-223.99 1.5162c2.7555 3e-3 4.9812 2.0606 4.9776 4.5997-3e-3 2.5391-2.2353 4.6061-4.9906 4.6027-2.7548-3e-3 -4.9974-2.0757-4.9938-4.6148 3e-3 -2.5392 2.2521-4.591 5.0069-4.5877zm247.75 4.6224-20.338 19.071 21.617 20.668-0.6761-5.6004-15.566-14.806 15.266-14.634zm-45.883 0.30495-0.56136 5.2836 14.362 13.949-13.08 12.354-0.20386 6.0047 19.246-18.652zm-222.39 6.9376 11.462 14.861-13.681 11.033 0.36434-4.218c3.9682-0.86096 6.9282-4.1467 6.9338-8.0682 5e-3 -3.4736-2.3089-6.4412-5.5921-7.6781zm42.996 2.9793c-0.27107 3.0784-0.45784 5.5665-0.63005 7.8356-3.7246 1.0111-6.456 4.1892-6.4613 7.9487-5e-3 3.3358 2.1375 6.2048 5.2177 7.5274-0.2503 2.3775-0.57578 5.0092-1.0379 8.3156l-13.704-18.527zm324.63 1.2624 0.46378 51.928 40.648 39.096 0.23281 145.75-168.09 0.73548-43.148-67.682c-0.94231-1.2764-2.0999-0.85866-3.0428-2.1354l12.908-63.081c20.17 8.5895 37.179-13.546 26.187-31.509 62.239-20.865 133.84-73.099 133.84-73.099zm-99.258 0.16547c-4.4072-5e-3 -7.9857 3.2693-7.9915 7.3314-5e-3 4.0621 3.5633 7.3754 7.9706 7.3807 4.4072 5e-3 2.7419-2.5081 2.7477-6.5702 5e-3 -4.0621 1.6804-8.1365-2.7268-8.1419zm-46.47 0.3793c-2.2197 2.3208-3.5018 14.808-0.0219 14.712 4.4053-0.12115 7.9857-3.2993 7.9915-7.3614 5e-3 -4.0621-3.5634-7.3453-7.9706-7.3506zm46.466 2.0827c2.9318 3e-3 1.5904 2.6479 1.5865 5.3501-3e-3 2.7022 1.3314 4.4414-1.6004 4.4379-2.9318-3e-3 -5.3068-2.2132-5.3029-4.9154 3e-3 -2.7021 2.385-4.8761 5.3168-4.8726zm-46.47 0.3793c2.9318 3e-3 5.2905 2.1832 5.2866 4.8854-3e-3 2.7022-2.3687 4.8912-5.3005 4.8876 0.31619-0.81207-1.3192-9.443 0.0137-9.773zm-222.66 1.668c1.6959 0.97313 2.8302 2.7074 2.8274 4.6872-3e-3 2.2901-1.5166 4.2508-3.672 5.0848zm42.879 4.9757c-0.25331 3.5221-0.43565 6.4197-0.69733 9.3518-1.5142-1.0053-2.5046-2.6292-2.502-4.4767 3e-3 -2.1138 1.3026-3.9532 3.1993-4.8752zm202.13 1.9403-18.968 17.436 19.698 18.909 18.773-18.262zm-225.33 4.2618-19.859 14.658 12.744 18.06 4.443 2.4674 18.181-14.3zm-79.645 1.1199 46.66 23.025s-12.119 4.6594-11.793 12.116c0.46815 8.3391 5.8833 15.16 16.645 12.615 2.47-0.32603 3.5945 0.61783 5.9695 5.7419 4.5425 9.8066 9.0263 20.58 7.2682 20.245-5.7231-4.2228-4.8656-4.4538-11.603-7.2499-12.572-3.2096-20.239 7.5654-16.278 16.299 3.6917 8.056 9.8547 8.523 16.033 7.7056 0.90407 0.19192 1.6683 1.1081 2.2772 2.1645 1.9573 3.6679 4.9224 10.194 7.2356 20.23 3.5658 15.476 4.3442 34.842 1.719 39.71-3.6291 6.7292-8.6388 15.843-8.6388 15.843-9.7134-17.121-30.916-32.14-54.77-26.863-0.80452 0.46045-0.97165 2.8757 0.10794 4.2936 7.7222 9.3658 9.0185 17.94 11.77 27.141 7.0527 23.584 21.336 37.094 21.142 34.685l-7.5081 12.501s-64.845 0.21811-91.382-0.11031l0.0408-28.719 69.61-65.542-27.537-1.1066 1.1132-113.13c10.071-1.9214 21.92-11.593 21.92-11.593zm305.3 7.6193c2.7548 3e-3 4.9812 2.0606 4.9776 4.5998-3e-3 2.5391-2.2358 4.6061-4.9906 4.6028-2.7552-3e-3 -4.9974-2.0757-4.9938-4.6148 3e-3 -2.5391 2.2517-4.591 5.0069-4.5877zm-227.79 4.379c2.7552 3e-3 4.9974 2.0606 4.9938 4.5998-3e-3 2.5391-2.2498 4.6061-5.0069 4.6028-2.7549-3e-3 -4.9812-2.0757-4.9776-4.6148 3e-3 -2.5392 2.2358-4.5911 4.9907-4.5878zm205.48 4.4664 0.48216 4.5343 13.647 13.212-12.672 11.844c-1.8472 2.3263-6.5658 1.8134-8.049 1.972-8e-3 0.14885 0.31124 1.7204 1.4302 2.1785 1.1791 0.48241 2.5928 0.39569 3.1589 0.69435 1.3142 0.69404 2.1651 0.79826 2.1651 0.79826l18.414-17.317zm0.19702 10.254c-3.317 0.9581-2.7493 13.959-0.0219 14.712 4.4072 5e-3 7.9857-3.2843 7.9915-7.3464 5e-3 -4.0621-3.5633-7.3603-7.9706-7.3657zm46.857 2.0532c0.33157 1.2032 0.81111 9.6779-0.0137 9.788-2.9317-3e-3 -5.3067-2.1983-5.3028-4.9004 3e-3 -2.7022 2.385-4.8911 5.3167-4.8876zm-46.861 0.40884c2.9318 3e-3 5.3067 2.1982 5.3028 4.9004-3e-3 2.7022-2.385 4.8911-5.3168 4.8876-0.71438-1.1288-1.8854-9.6302 0.0137-9.788zm-164.32 2.1587c-0.7945 0.27548-1.8879 0.101-2.7528 0.10175-2.7718 5e-3 -6.2104-1.8077-6.9691-1.4796-0.86803 0.37509-0.57791 2.0499-0.53302 2.7989 0.0943 0.69486 2.2032 0.92851 3.0669 1.4535 1.3944 0.84738 1.0142 1.1416-0.57119 1.4847-1.4069 0.30197-2.5422 0.3862-3.4381 1.5587-0.55755 0.72959-0.60991 2.0038 0.34147 1.992 5.5311-0.0685 12.554-2.1599 19.172-0.10553 3.7808 1.252 6.2462 2.0296 6.8513 1.5514 1.2598-0.99547-3.1639-4.9025-7.403-5.6385-4.2718-0.74172-5.804-0.44226-4.4193-1.6148 0.71659-0.60653 1.6807-0.36951 1.7516-0.8054 0.19839-1.2211-0.77567-2.4817-1.9324-2.6556-1.2435-0.18714-2.2209 1.0128-3.1638 1.3584zm23.779 12.279c-0.44899 8e-3 -1.099 0.29697-1.9722 0.94339-2.5246 1.5404-6.4766 3.6039-15.996 1.1817-5.2329-1.5922-11.109-0.21282-14.531 0.66913-2.6668 0.68753-6.4882 1.3584-9.5438 0.0672-2.9856-1.3266-6.2541-3.3381-5.6501-1.2679 0.15275 0.52664 0.32853 3.5602 0.36701 5.3599 0.0913 4.234 0.40183 7.7656 3.7236 4.4481 1.4378-1.4371 3.1718-1.4478 6.4178-0.26238 2.3146 0.84518 3.9377 1.4168 5.7329 0.33718 2.5438-1.5298 4.7387-1.9093 9.4313-0.43896 2.225 0.69757 4.5601 0.76255 7.3796-0.83179 4.6856-2.6496 7.6508-0.065 9.4432 2.6536 1.419 2.1525 2.1346-0.91391 4.7664-7.2902 1.354-3.0442 1.7784-5.5833 0.43134-5.569zm-22.457 23.689c-2.5507 1.3234-6.1095 1.7179-8.6975 3.2843-5.4733 3.4702-0.35053 6.3705 3.4477 5.6511 1.5535-0.3248 3.3556-1.036 5.3491-2.2516 6.8529-4.1789 10.645-3.5623 11.285 1.51 0.69085 5.4808-8.4714 7.9418-7.6206 10.489 1.1465 1.6591 5.5942-0.61584 8.3522-4.0518 8.1784-10.189-0.79243-20.506-12.115-14.631zm35.417 28.799c-9.2882 0.958-23.274 5.074-30.297 9.9267-5.5218 3.9536-7.0331 4.9439-4.7002 6.5247 2.1376 1.4476 3.7804 1.5002 0.84096 4.2645-1.0471 0.98539-2.8259 3.0486-2.8228 3.4494 0.0281 1.9843 13.121 7.8906 20.64 8.8221 5.799 0.71808 15.18-0.0839 20.232-1.9572 6.6634-2.4706 6.8911-4.1614 0.5956-2.4658-4.9128 1.3232-10.845 2.3193-16.687 1.9209-5.2579-0.35532-10.41-1.8386-13.661-2.9139-8.0441-2.6602-6.637-5.7508 1.4866-3.1058 9.3585 3.7383 21.489 3.6916 32.267-0.77166 4.349-1.8019 5.5687-3.2212 6.356-2.6046 0.19238 0.15212 0.63109 1.137 0.74723 1.4121 0.27244 0.65564 0.30266-1.6854 0.69175-5.4036 0.32425-3.0866 0.64549-7.2201 0.64549-7.2201s-0.64945 1.7448-0.63887 2.5663c0.0779 5.4007-2.7644 5.4222-10.801 1.2781-9.4421-4.7959-14.038-4.3355-23.021-4.2962-3.9345 0.0176-4.1102-1.0292 1.4275-2.7067 2.6381-0.7991 6.6874-2.0892 12.715-3.858 4.9856-1.463 6.3339-3.1039 3.9825-2.8614zm-71.246 10.808c3.4224 5e-3 6.4809 2.6867 7.3509 7.8903l-3.4038-0.22919c-1.1239-7.7578-7.237-6.0071-9.6404-1.3928l-2.997 0.0715c2.3593-4.264 5.6706-6.3437 8.6904-6.3397zm8.6971 0.49092c1.3866-0.11484 7.8268 2.7726 8.2202 3.6579 0.4282 0.97137-2.0254 2.0137-4.1734 2.5921-2.4715 0.66445-1.9677 0.76257-2.7441-0.58641-1.0864-1.8873-2.9934-5.5893-1.3026-5.6636zm-16.435 0.35543c0.0667 0.83687-1.8967 3.8824-3.3125 4.2745-1.6707 0.46314-2.9818-1.5762-1.6088-2.614 1.233-0.58749 4.6671-2.8538 4.9212-1.6605zm66.242 0.48528c4.3299-0.15741 8.3528 3.8758 8.6854 8.6425l-2.1825-0.0479c-2.0072-9.9236-10.282-7.6875-12.15-0.61516l-2.5725-0.67866c2.1519-5.122 5.2569-7.1934 8.2194-7.3011zm-8.5032 0.6953c1.1851-0.0708 1.0294 0.816-0.39584 3.4524-0.67216 1.2434-1.1536 1.9488-2.3318 1.9038-1.5998-0.22139-2.6687-0.69652-3.483-1.8657-0.55524-1.1571 0.74872-2.0571 3.5222-2.8631 1.2681-0.36839 2.1502-0.59514 2.6884-0.62726zm18.192 0.75757c0.76054 8e-3 2.1415 0.45614 4.3144 1.3413 5.5561 2.2645 6.2115 3.1975 3.3001 4.4777-1.2931 0.5684-2.3652 0.99651-3.2268 1.2571-2.6075 0.79628-2.5251-0.54616-3.2218-2.2107-0.39636-0.93984-0.87401-1.7949-1.3806-2.794-0.70408-1.3969-0.73141-2.0785 0.21478-2.0714zm-81.467 8.3086c0.92444-8e-3 2.9259 1.1234 6.9514 2.4554 5.7783 1.9106 11.608 1.2172 19.286-1.0276 3.1673-0.92596 4.2493-1.5084 2.9968 0.1836-0.99097 1.3404-6.386 3.7905-10.789 4.7909-8.2463 1.8724-19.132-1.7141-19.13-5.6077 0.0618-0.56257 0.26588-0.79181 0.68522-0.79479zm27.273 6.4432c0.83797 0.0151 0.0191 1.1739-1.7307 2.9704-2.7118 2.7833-6.852 4.6941-11.067 5.3761-8.8724 1.436-16.217-0.79973-16.28-5.379-0.0484-3.2981 0.57881-3.3435 4.9533-1.2551 3.7134 1.7729 12.064 2.2088 18.796 0.2176 2.212-0.53605 4.4802-1.7761 4.8727-1.8706 0.18991-0.0453 0.33711-0.062 0.45615-0.0597zm68.175 4.5109c-6.7323 1.6293-13.881 3.269-20.415 4.419-7.0013 1.2557-17.2 0.0824-22.523-2.339-3.9314-1.7893-5.3117-0.73898-3.5872 2.7279 1.1236 2.2637 2.8294 4.6399 7.8744 6.2696 7.3281 2.3674 24.519-1.4414 37.294-7.5061 7.4277-3.0312 6.005-4.8739 1.357-3.5714zm-110.9 46.479 11.513-17.972c77.766 13.976 161.94 3.9977 187.7 0.74273 0 0 28.064 42.922 38.156 57.989 0.95138 1.6038 3.557 7.03 3.557 7.03l-265.59-0.51536c3.7268-6.8886 7.2704-15.792 7.2704-15.792-8.1094-3.0082-14.391-14.191-18.274-23.625-3.408-8.2789-9.3005-28.495-17.08-38.351 13.642-7.1079 47.893 8.833 52.746 30.493z" fill="#131f67"/>
<path d="m462.82 926.42-263.05-0.30981 34.364-63.102c63.933 8.9999 126.97 7.9621 189.3-1.0493l39.384 64.464zm-359.39-50.764-0.73543-30.482 34.147 0.10528zm286.07-199.7-0.24703-98.312 48.097 29.244-1.8961 99.819zm-115.09-23.318c1.7768-35.16-7.3033-67.979-14.288-101.25l49.886-30.118 2.5645 110.99zm-131.1-92.554 1.5302-126.77c44.756 59.492 71.926 118.71 79.625 200.22-12.198 4.5163-24.099 9.5046-36.606 13.531-14.356-30.482-28.837-59.992-44.549-86.99zm454.26 55.122c-41.367-48.57-66.271-115.14-79.201-194.79l37.957-16.927c12.551 28.132 24.757 56.757 40.65 80.111zm-163.48-86.617-3.8822-106.4 37.999-21.216c1.9658 36.511 8.1735 70.753 15.616 99.521zm-82.511-56.887-40.95-22.02 2.4615-96.18 37.431 27.11zm256.2-266.4c2.9484-10.068 22.726-22.899 31.196-29.819l-0.39045 28.483s-29.304 1.8728-30.805 1.3354zm-287.21-15.748-42.42-66.92 266.5-1.7397-34.335 67.292c-70.558-11.979-130.95-6.6797-189.74 1.3676z" fill="#d40000"/>
<path d="m441.85 791.16c0.61134 0.17882 8.8561-4.9489 13.14-12.511 4.6291-8.3544 0.4649-16.576 1.8373-16.604 8.5005 2.3495 6.0323 17.287 3.0677 21.913-2.5155 4.0243-7.323 6.7304-12.291 7.499-4.9048 0.7587-5.7541-0.29794-5.7541-0.29794zm13.903-32.65c-1.7122 0.0201-2.4561-0.24708-3.5815-1.3254-1.566-1.5006-3.4445-2.5082-4.4432-2.3773-1.3477 0.17705-1.9604-0.0456-1.9698-0.70793-8e-3 -0.54202 0.59021-0.63048 2.8022-0.44697 1.3465 0.11182 4.1928-1.8447 4.1928-1.8447l0.22817-141.23c12.04 4.6196 30.047 7.2916 43.884 8.8213l0.74753 125.89s20.316-9.7772 27.695-13.684l0.42483-112.68 14.384-1.4313-22.651-42.561c-3.191 2.2562-47.887-1.6479-59.041-8.3546l40.823-23.407c-4.1279-11.651-7.8793-22.785-11.328-34.583-0.10548-0.3616-0.85946-0.32598-0.96441-0.68783-0.83514-2.8781-1.4303-4.1742-2.2124-7.0721-0.14592-0.54086 0.0929-1.4197-0.0749-1.9563-8.7471-27.911-14.693-64.892-15.864-97.992 0.12925-0.31301 1.4268-0.041 1.4268-0.041l-0.23145-20.22-1.4498 0.88598 0.15466-9.1499 1.4754-1.34c0.0369-1.7737 0.17598-5.1212 0.17598-5.1212l-1.8852-1.0891 0.99756-15.329 1.9454-0.26239 1.0997-24.27-51.699 30.755s-33.678-22.289-48.406-33.844c16.237-10.147 20.569-29.965 24.612-46.411 4.1348-16.273 5.5052-29.712 6.6907-43.332 1.304-15.012 4.0304-34.204 6.2026-43.663 1.3123-5.7148 1.2669-6.3422-0.56094-6.441-0.63118-0.034 0.0219-0.22012 1.4502-0.41859 33.123-1.1801 68.682 3.4081 100.26 7.232 0 0 7.8318-13.41 10.552-18.352 0 0 1.5815 4.5415 3.2698 7.6995 3.829 6.7003 12.583 13.815 20.074 17.649 2.7962 1.6994 10.841 4.1958 16.281 5.0488 3.1998 0.49143 8.3544-0.43758 12.17-1.8318 1.3118-0.50214 2.3386-1.1346 2.3479-1.7686 0.0109-0.64141-1.0198-1.2911-2.3419-2.4498-1.126-0.98749-2.6305-2.8966-3.3492-4.2525-2.2865-4.2956-5.7784-11.506-7.7271-18.249-5.4869-13.417-9.5496-29.606-22.191-36.753l8.7531-16.089-274.89-0.26415 42.443 66.081s1.2836 1.9704 1.7043 2.6704c1.2531 2.0852 1.7668 1.7886 1.7668 1.7886-2.8016 23.084-6.7697 45.809-12.013 68.139 0 0-0.55001-1.7835-8.628-1.6861-23.641 0.28463-31.955 24.491-12.201 35.234 1.8629 1.0228 5.0297 2.9812 8.1539 4.4986 0.89806 0.42939 12.223 6.5734 12.223 6.5734l-13.574-5.6481-1.1888 145.3s-28.314-7.8783-46.985-8.6391l0.36502-125.99-26.097 12.941-1.3435 112.64-14.287 0.83259s5.397 10.618 6.5962 12.849c2.4086 4.4694 8.4701 14.406 12.61 20.687 1.467 2.2213 4.892 7.1654 4.892 7.1654 19.034 0.4885 38.51 3.1462 56.2 10.418l-41.004 24.52c17.047 44.458 38.296 109.51 26.257 214.44l2.8722-1.6747 0.80395-11.308 51.046-32.286 62.849 46.774s-4.5676-0.11887-5.5905-0.15968c-16.045-0.54063-27.368 14.57-31.262 27.195-6.8643 22.253-7.7696 27.745-10.967 63.041-1.2643 13.958-4.2792 27.422-7.3539 40.72-1.6205 6.684-1.3827 7.3506-1.3827 7.3506 31.999 0.9786 65.424-2.0966 90.499-7.1718 0 0 10.649-46.282 14.451-65.929 3.5622 1.8879 6.7289 2.7146 9.9378 2.6548 24.819-2.4566 22.736-33.821 9.946-34.715zm-109.54-634.79 12.948 42.079-31.865 2.6784-26.387-44.465zm195.85-0.35212-32.841 63.992c-68.692-8.9706-108.35-9.8631-188.11 0.44909l-41.364-63.895 10.909-0.0743 31.183 51.011 46.429-4.2099-12.764-46.661 12.266-0.33432 12.629 45.792 71.854-0.26581c2.348-15.333 6.9011-45.324 6.9011-45.324l13.267 0.15262-8.9052 46.334 42.434 4.957 24.596-51.78zm-92.15 0.48183-4.2413 38.929-59.435 0.34865-9.4518-39.393zm72.014-0.65997-20.243 46.186-29.398-3.6557 8.089-41.937zm36.188 45.324c1.2984 3.9479 2.6212 7.8167 2.9359 8.6056 4.7803 11.987 6.7472 15.947 9.8747 19.933 0.51643 0.65836 0.67568 0.58217-0.0872 1.1446-14.448 6.4881-40.527-9.5529-46.793-24.224 0.79163-1.4162 4.2931-7.3647 4.2931-7.3647 1.8171 3.2798 0.44697 6.5166 1.6393 9.4613 0.29266 1.2547 3.2932-8.4762 3.2932-8.4762s2.8732 4.3238 3.2136 12.634c0.0525 1.2813 3.7578-5.5689 3.7578-5.5689 4.639 5.7712 4.363 15.77 4.363 15.77 5.2454-5.8516 1.9846-9.2123 10.053 5.7272 0.93645-1.5516 0.48596-3.2008 1.7093-2.7628 3.5529 1.2723 8.5448 3.5729 10.363 3.1142-2.3685-2.7428-6.9681-4.1903-8.2266-7.8265 0 0 3.6508 0.28845 3.8888 0.12467-4.1328-2.0774-8.1026-3.8726-11.201-7.8585 0.92479-0.31238 4.6633 0.28173 4.5018-0.0834-5.591-4.6661-13.984-8.442-1.8374-7.3753-7.889-5.1286-16.685-8.6755-2.9695-8.2778-9.7773-4.2708-12.412-6.9021-10.589-7.623 1.0273-0.40617 3.9521 1.2193 8.6178-0.14885-7.8579-2.9641-11.096-4.3192-11.406-5.2928-0.3765-1.18 3.3566-1.8215 5.9203-4.3741 0 0-3.1653 0.65833-4.5462-0.6947 0 0 1.5439-4.0808 2.7291-6.4337 9.9987 8.3828 13.919 20.241 16.503 27.871zm84.345-16.151s-44.288 43.863-66.218 65.627l21.396 0.31902 0.80996 118.92c7.4537 0.93221 20.383 0.0448 25.27 4.6238 3.0327 4.1468-8.7364 12.28-15.354 10.562-4.4131-1.1048-9.8721-0.23952-9.8721-0.23952l0.26041 132.51c-14.085-24.174-24.857-39.474-40.428-81.44 4.5335-2.8973 9.1935-5.1298 9.9714-5.6209-5.9882-13.361-10.115-34.367-1.7029-52.656l5.7781 3.1823c-4.2547 11.163-5.8398 27.678 1.0695 42.95l1.5934-1.5369s-1.7116-3.0489-2.809-6.4105c-0.97922-2.9996-2.3883-6.8678-2.3951-10.872-0.26752-7.097-0.0246-13.193 1.8021-18.883 0.62869-1.8573 1.5254-4.6258 1.995-5.4771 0.46719-0.85126 0.91821-1.6395 0.91482-1.8754-17.005-6.3732-29.188-15.681-43.848-22.346-0.55663-0.25111-1.0205-0.46657-1.3909-0.65705-1.8578-0.95503-1.3676-1.2824 1.5418-2.3452 6.1278-2.2385 8.6267-4.9604 8.5009-10.438-0.18118-7.7906-4.6968-10.831-14.579-10.331-3.5898 0.18159-3.8234 0.13474-4.4615-0.99623-1.4905-2.6468-6.6368-13.161-6.6424-13.579-8e-3 -0.24632-1.0764-2.6128-2.3869-5.2572-2.0249-4.2187-4.363-8.5672-5.3124-12.969-0.48074-2.1875-1.8541-3.049-2.2093-0.79092-2.6376 16.767-5.0577 25.616-9.7746 35.687-1.4007 2.998-2.4628 5.5202-2.3534 5.6118 0.45181 0.36937 8.3144 3.7467 11.997 5.1487 14.36 5.467 20.889 8.8377 18.668 9.6454-1.5439 0.56346-2.1015 1.5484-2.4982 4.3656-1.0396 7.3819-0.93138 11.159 0.40428 13.497 1.4023 2.4537 1.3699 2.6276-0.93408 4.0071-1.9992 1.1974-1.5688 1.2025-2.1195 7.3685-0.65172 7.32-0.22407 11.974-0.22407 11.974l3.5744 4.2373-3.6483 4.1709-0.86399 19.172 4.911 3.443-4.6024 4.1756 1.6164 17.486s-0.60404 1.6135-1.4001 2.4153c7.6769 73.955 37.64 148.51 82.611 199.36l0.27561 121.48 44.083 40.763zm-3.4663 7.8153-0.0137 9.5755-37.538 37.162 37.484 0.64617-0.0109 8.1153-57.546-0.17278zm-0.60122 16.253 0.0577 26.813-28.019-7e-5zm-257.09 13.202 5.8419-0.2171c-0.23719 5.4041-2.5964 30.359-5.4057 52.209-3.1674 24.635-9.6083 45.883-10.837 45.882l-5.6382-3.1579c9.3855-28.254 11.925-64.631 16.039-94.715zm26.509-0.74049c-0.84595 15.254-4.3284 25.919-5.4146 43.956-1.3445 22.03-5.4908 49.452-16.276 72.19-3.6326 7.658-10.335 14.844-19.728 18.226-16.47 5.9303-30.417-12.892-19.269-26.71 8.8111-10.921 22.581-10.764 26.744 0.30236 3.4403 9.1454-7.6724 20.609-16.524 17.034-6.1506-2.486-4.5671-12.704 2.3507-15.1 2.866-0.9926 5.2872 2.3609 3.8688 5.3641-1.1167 2.3643-1.2395 3.8434 0.27108 2.8405 6.2576-4.0545 1.5631-13.739-6.2018-10.129-10.359 4.8168-8.6361 19.014 1.7912 19.646 13.196 1.2102 23.402-13.759 29.963-42.201 7.1977-31.831 5.4597-60.338 12.352-85.328zm-16.867 0.51286 6.9373-0.1826c-0.55565 2.3634-0.65886 4.8841-1.1364 7.7752-2.7581 16.699-4.4108 41.078-7.2411 60.183-3.9936 26.958-11.103 43.337-11.281 41.339-0.78575-3.271-3.024-5.9246-4.7376-8.5133 7.1763-17.921 10.086-34.231 11.944-49.592 2.1702-17.947 2.798-34.599 5.5151-51.01zm-29.661 1.511 6.089-0.28145c-2.4219 35.742-8.1509 68.142-11.531 82.048-1.0448 4.1928-1.393 6.0099-2.2571 6.3577-0.95796 0.38557-2.5498-1.0346-6.4276-3.0256 5.9018 0.7765 10.725-60.762 14.127-85.099zm9.4945-0.5019 6.6101-0.58912c-0.99895 12.921-3.3943 33.235-6.0714 51.55-3.2367 22.143-7.4618 41.762-9.5526 41.468l-5.5065-1.7665c3.685 1.0678 12.86-64.993 14.52-90.662zm-12.542 0.61393c-4.3565 27.056-4.814 58.674-13.793 83.931l-6.1843-2.6609c1.6926 0.51208 6.118-16.433 7.6347-35.61 1.3205-16.695 4.6176-34.856 5.5987-44.918zm-10.208 0.98091c-2.4742 9.5527-2.4922 23.634-4.3535 35.378-2.3046 14.54-4.781 44.075-8.4299 43.394l-6.316-2.9593c3.3146 0.92397 9.1794-55.032 12.726-74.903zm-16.643 2.349 6.417-0.79378c-3.1191 21.845-8.7788 72.784-12.085 73.16l-6.0094-2.9495c2.3548-8.9466 8.3413-39.368 11.677-69.417zm-3.9901 0.84647c-2.6919 24.014-5.2196 48.332-10.802 67.001l-6.5764-2.7416s4.5975-20.537 6.7834-34.961c2.1575-14.238 2.4868-16.268 3.1719-19.978 1.5144-8.1817 1.9304-8.4854 1.9304-8.4854zm281.83 24.956-0.79696 115.33-7.2966-0.26405 0.4629-115.25zm17.231 0.93278c2.7548 3e-3 4.9811 2.0607 4.9775 4.5998-3e-3 2.5392-2.2358 4.6061-4.9906 4.6028-2.7567-3e-3 -4.9812-2.0756-4.9776-4.6148 3e-3 -2.5391 2.234-4.5911 4.9906-4.5877zm-117.58 42.178c5.1508 8.7145 9.1092 11.911 13.658 13.582 8.2062 3.0151 19.54-4.3732 15.434-14.737-2.1585-5.449-7.6556-6.2646-14.63-5.1878 0 0-3.0002-1.9713-6.52-11.843-4.1672-11.687-10.715-23.714-10.715-23.714-0.43609 14.653-4.1974 29.905 2.7734 41.9zm124.94-31.465c2.7549 3e-3 4.9975 2.0607 4.9939 4.5998-3e-3 2.5392-2.2521 4.591-5.007 4.5877-2.7548-3e-3 -4.9811-2.0606-4.9775-4.5998 3e-3 -2.5391 2.2357-4.591 4.9906-4.5877zm-13.682 0.16371c2.7549 3e-3 4.9812 2.0606 4.9776 4.5998-3e-3 2.5391-2.2358 4.6061-4.9906 4.6027-2.7548-3e-3 -4.9974-2.0757-4.9938-4.6148 3e-3 -2.5392 2.2521-4.591 5.0069-4.5877zm-111.81-1.2373c4.6163 8.849 5.5833 15.509 10.061 23.528 1.9601 3.5002 3.7203 6.4993 3.7203 6.4993 14.669-6.335 20.284 9.6737 8.388 14.767-11.711 5.0143-24.857-14.109-23.548-34.684 0.36103-5.6714 1.378-10.11 1.378-10.11zm118.36 12.084c2.7548 3e-3 4.9811 2.0607 4.9775 4.5998-3e-3 2.5391-2.2358 4.6061-4.9906 4.6027-2.7568-3e-3 -4.9812-2.0756-4.9775-4.6148 3e-3 -2.5391 2.2338-4.5911 4.9906-4.5878zm13.193 8.649-0.0137 9.8263-26.091 23.273 0.0137-9.5056zm-342.63 7.1534c4.9797 0.066 7.3668 1.4264 4.0656 2.6306-10.945 3.9925-15.815 10.368-16.432 21.523-0.0353 5.6401 0.69602 6.3786-3.0651 3.2264-9.6-12.413 4.2789-27.468 15.432-27.38zm9.1401 4.0445c1.2125-0.0408 2.4152 0.10553 3.6153 0.4547 2.9313 0.85267 1.8569 0.9135-3.0897 3.9314-9.4308 5.7536-12.308 11.396-12.741 22.939-0.12214 1.7379 0.26588 3.1819 0.10466 3.9109-0.13226 0.55278-0.86016 0.37328-1.2991 0.35099-1.7994-0.27732-2.9027-2.0332-3.421-3.5138-5.9577-11.002 5.11-27.678 16.831-28.073zm10.2 3.8302c0.81157-0.0101 1.5212 0.11031 2.1006 0.37786 2.3022 1.0624 1.4525 1.2157-2.7735 3.9846-7.4983 4.9122-11.215 12.142-12.096 20.222-0.56523 5.1828 3.766 11.353-3.9091 6.2633-5.3923-4.1362-4.3006-14.867 1.4392-22.224 3.5372-4.5398 10.861-8.581 15.239-8.6239zm323.28-1.8558-0.0164 11.188-26.09 22.783 0.0164-11.454zm-314.91 5.4522c2.9599 0.032 4.285 1.7837 0.82532 3.7841-8.4431 4.8772-13.529 14.196-13.048 23.929 0.46924 5.8788 0.71053 6.9352-3.3596 3.0434-6.5533-6.2662-1.9038-23.251 10.825-29.591 1.7292-0.83617 3.4123-1.1799 4.7577-1.1652zm8.6279 3.2681c4.8592-0.10301 5.5312 2.1619 1.182 4.9555-8.3018 5.3268-13.852 14.721-13.731 23.268 0.056 3.9716-0.28187 4.4643-2.187 3.1199-9.5695-6.7532 0.73108-30.262 13.71-31.284 0.36073-0.028 0.70225-0.0521 1.0262-0.0589zm171.36 0.94236c1.191 0.0801 3.3091 3.9692 6.6283 12.108 3.2001 7.8476 8.3702 17.742 9.4701 18.116 0.33892 0.1151 1.8-0.35099 3.2428-1.047 10.941-5.2754 18.615 9.7384 7.8291 15.307-7.6732 3.9601-14.903-0.30551-21.563-12.741-7.8507-14.66-9.9916-25.54-6.1773-31.398 0.15876-0.24354 0.34695-0.35947 0.57056-0.34461zm-162.48 3.7972c1.3182-0.0519 2.5938 0.17882 3.7939 0.75525 2.8284 1.354 2.4158 2.3533-1.9286 4.6965-4.4786 2.415-6.2446 3.9264-8.8224 7.5105-4.0199 5.589-4.6967 7.7392-4.7121 14.947-8e-3 5.8735-1.9013 6.1959-5.7021 0.96892-6.5492-9.0065 6.6372-28.454 17.371-28.878zm10.905 5.2825c4.2921-0.0821 7.1189 1.5358 3.0082 3.5315-13.079 6.3493-18.583 15.485-16.098 26.732 0.78108 3.5257-3.5845 0.5351-6.2322-4.271-3.8658-7.0172 3.3029-20.567 13.065-24.694 2.0447-0.86445 4.3054-1.2613 6.2564-1.2985zm147.47 10.521c0.8186 0.0552 1.764 2.0602 3.8503 7.0004 1.3594 3.2191 3.1817 7.0726 4.0598 8.5619 0.87809 1.4893 1.4899 2.8883 1.3475 3.1092-0.73831 1.1295-6.7917-0.80202-8.8241-2.818-3.1403-3.1156-4.1281-10.076-1.9997-14.054 0.62458-1.1602 1.0752-1.8327 1.5662-1.7996zm125.5 8.6334c2.7548 3e-3 4.9811 2.0606 4.9775 4.5997-3e-3 2.5392-2.2358 4.6061-4.9906 4.6028-2.757-3e-3 -4.9812-2.0756-4.9776-4.6148 3e-3 -2.5391 2.2337-4.5911 4.9906-4.5877zm-511.56 6.7989c2.7549 3e-3 4.9811 2.0756 4.9775 4.6148-3e-3 2.5392-2.2357 4.5911-4.9906 4.5878-2.7549-3e-3 -4.9812-2.0606-4.9776-4.5998 4e-3 -2.5391 2.2358-4.606 4.9906-4.6027zm206.09 1.6298c5.4466-0.16976 7.1267 2.204 8.0323 9.8277 0.62043 5.2344 1.8449 5.7237 10.776 4.3516 9.4292-1.4485 12.582 0.91269 13.244 9.909 0.52285 7.1369 0.45623 7.0792 11.18 7.1594 10.555 0.0788 11.685 1.0642 12.884 11.035 0.89096 7.4078 0.58751 7.2002 10.968 7.084 11.499-0.1287 12.53 0.65551 13.293 10.029 0.62044 7.5979 1.165 8.0879 8.4264 7.5464 7.1148-0.53102 20.236-0.57401 22.689-0.0776 6.1164 1.2372 6.3706 1.0066 7.6972-6.5962 1.7467-10.01 3.8971-11.261 17.247-10.007 6.5636 0.61623 7.3236 0.49377 8.2607-4.8277 1.2523-7.0969 2.7991-9.1736 2.7936-3.0254-0.0137 15.531-1.1855 16.254-12.426 13.477-8.444-2.0858-8.5823-0.49221-9.4773 7.0031-0.78693 6.6063-2.0013 9.3141-4.6405 10.368-2.0491 0.81864-8.9445 0.1083-11.71-0.61834-1.0496-0.27578-7.6088-0.42977-15.375-0.36383-18.708 0.15867-18.905 0.19871-18.873-11.913 0.0164-5.0975-1.1975-6.195-10.99-5.9356-12.286 0.3254-11.642 0.63073-13.712-12.966-0.72108-4.7132-1.1289-4.895-11.297-4.7726-11.081 0.13349-13.602 0.27808-12.937-8.329 0.60398-7.823-1.4599-9.8786-10.707-7.9075-9.8496 2.0996-11.728-1.7536-12.678-8.751-0.87976-6.4811-1.4783-4.8604-6.1794-5.2031-5.208-0.37976-4.5924-5.7809 0.93736-6.274 0.94512-0.0844 1.7962-0.19796 2.5737-0.22214zm313.16 2.7347c2.7548 3e-3 4.9812 2.0606 4.9775 4.5998-3e-3 2.5391-2.2357 4.5911-4.9906 4.5877-2.7549-3e-3 -4.9812-2.0606-4.9776-4.5998 3e-3 -2.5392 2.2357-4.5911 4.9906-4.5878zm-14.04 0.23825c2.7548 3e-3 4.9811 2.0756 4.9775 4.6148-3e-3 2.5392-2.2358 4.5911-4.9906 4.5878-2.7549-3e-3 -4.9812-2.0606-4.9775-4.5998 3e-3 -2.5391 2.2358-4.6061 4.9906-4.6028zm-497.75 7.0557c2.7547 3e-3 4.9974 2.0607 4.9938 4.5998-3e-3 2.5391-2.2521 4.5911-5.0068 4.5877-2.755-3e-3 -4.9812-2.0606-4.9776-4.5998 4e-3 -2.5392 2.2353-4.5911 4.9906-4.5878zm-14.008 0.0881c2.7548 3e-3 4.9811 2.0607 4.9775 4.5998-4e-3 2.5392-2.2358 4.5911-4.9906 4.5878-2.7549-3e-3 -4.9812-2.0606-4.9776-4.5998 4e-3 -2.5391 2.2353-4.591 4.9906-4.5877zm260.64 4.2274 51.806 35.728 49.129-30.217-0.31422 11.044-48.773 29.81s-41.434-29.65-61.459-43.966zm258.08 0.84214c2.7548 3e-3 4.9811 2.0756 4.9775 4.6148-3e-3 2.5391-2.2358 4.5911-4.9906 4.5877-2.7569-3e-3 -4.9812-2.0607-4.9776-4.5998 3e-3 -2.5392 2.2338-4.6061 4.9907-4.6028zm-84.945 5.9184 12.275 18.434-12.29 8.1965 11.156 13.183-12.069 11.37 13.236 7.7724-12.408 15.885-17.159 6.9985 17.179-20.747-14.18-8.9971 13.483-13.351-12.058-14.606 12.515-8.9892-13.497-20.463 0.88519-0.985zm-227.35-4.3417 91.027 62.934s8.4071 5.8468 10.818 7.2593c5.1112 2.995 6.1339 1.8009 11.244-1.423 11.521-6.2872 39.415-23.734 39.415-23.734l-0.23418 9.0496s-28.06 19.298-43.588 27.298c-2.2037 1.1174-4.563 0.0544-6.2175-1.1029-33.803-24.743-68.401-48.735-102.67-72.977zm209.37 1.2521c0.38141 0.63264 1.6076 0.86382 2.1992 1.71 4.0297 5.7635 11.333 16.008 11.333 16.008l-12.826 9.3525 11.745 14.251-14.72 13.748 15.001 9.4375s-9.343 13.144-16.4 19.153l-0.15822-10.22 6.0326-6.6859-6.9046-4.3904-2e-3 -14.053 7.0366-6.8136-6.4279-6.0026 1.1688-15.364 6.1433-4.468-5.055-6.4013zm-409.12 2.6407c2.755 3e-3 4.9975 2.0606 4.9939 4.5998-3e-3 2.5391-2.252 4.5911-5.0069 4.5878-2.7548-3e-3 -4.9811-2.0606-4.9775-4.5998 4e-3 -2.5391 2.2358-4.5911 4.9906-4.5877zm523.83 17.39-25.379 21.561 0.0137-9.8068 25.381-22.901zm-509.35-11.161-0.0164 11.834-27.098 23.004 0.0161-11.425zm509.35 14.186-0.0164 11.746-25.379 21.922 0.0164-11.632zm-29.828 1.8102-0.0164 381.86 29.389 28.737 8e-3 9.5237-37.196-35.61-0.30354-384.2zm-479.54-1.7166-0.0191 13.293-27.098 22.727 0.0178-12.511zm185.18 2.6622 35.762 25.729-0.27583 89.541c-14.483-10.065-26.111-16.068-37.106-21.173zm312.35 29.338c2.757 3e-3 4.9812 2.0606 4.9776 4.5998-3e-3 2.5391-2.2336 4.5911-4.9906 4.5877-2.7548-3e-3 -4.9974-2.0606-4.9938-4.5998 3e-3 -2.5392 2.2521-4.591 5.0069-4.5877zm-265.83 4.0565 3e-3 91.368-7.0431-5.9476-0.28261-90.615zm-244.48 0.58207c2.7548 3e-3 4.9811 2.0606 4.9775 4.5998-3e-3 2.5391-2.2358 4.6061-4.9906 4.6027-2.755-3e-3 -4.9974-2.0756-4.9938-4.6148 4e-3 -2.5391 2.2519-4.5911 5.0069-4.5878zm516.95 7.139c2.7548 3e-3 4.9812 2.0606 4.9776 4.5998-3e-3 2.5391-2.2358 4.6061-4.9906 4.6028-2.7549-3e-3 -4.9811-2.0757-4.9775-4.6148 3e-3 -2.5391 2.2357-4.5911 4.9906-4.5877zm-14.204 0.55334c2.7548 3e-3 4.9812 2.0607 4.9775 4.5997-3e-3 2.5391-2.2358 4.5911-4.9906 4.5878-2.7549-3e-3 -4.9812-2.0606-4.9775-4.5998 3e-3 -2.5391 2.2357-4.5911 4.9906-4.5877zm-254.28-0.75041 21.809 18.844-22.522 19.641-0.16997-9.0778 12.535-11.109-12.564-12.039zm8.3092 1.671 18.189 12.41-2.8559 3.1826zm-249.42 2.475c2.7548 3e-3 4.9812 2.0606 4.9776 4.5997-3e-3 2.5392-2.2358 4.5911-4.9906 4.5878-2.7548-3e-3 -4.9812-2.0606-4.9775-4.5998 3e-3 -2.5391 2.2358-4.5911 4.9906-4.5877zm-14.61 0.20753c2.7548 3e-3 4.9811 2.0756 4.9775 4.6148-4e-3 2.5391-2.2358 4.591-4.9906 4.5877-2.755-3e-3 -4.9812-2.0606-4.9776-4.5998 4e-3 -2.5392 2.2354-4.6061 4.9907-4.6028zm357.85 2.0995c3.455 36.558 5.8503 61.861 16.047 96.341l-47.139 27.7 0.57969-105.87zm129.69 83.797-0.36521 125.54c-44.37-58.352-68.239-126.53-75.862-191.12 0 0 23.878-10.104 35.473-16.308 12.236 26.526 6.9365 26.487 40.755 81.883zm30.579-78.291c2.7549 3e-3 4.9812 2.0756 4.9776 4.6148-3e-3 2.5391-2.2358 4.591-4.9907 4.5877-2.7548-3e-3 -4.9811-2.0606-4.9775-4.5998 3e-3 -2.5391 2.2358-4.6061 4.9906-4.6028zm-510.71 4.3229c2.7547 3e-3 4.9811 2.0607 4.9775 4.5998-3e-3 2.5392-2.2358 4.6061-4.9906 4.6028-2.755-3e-3 -4.9812-2.0756-4.9776-4.6148 4e-3 -2.5391 2.2354-4.591 4.9907-4.5877zm277.9-0.0879 17.281 12.19 0.0292 9.2253-20.666-18.368zm-5.9331 4.8665 21.6 19.73-22.706 20.826-22.336-19.563zm162.86 0.88413-20.867 7.8581c7.8844 66.629 28.512 116.59 56.361 157.11l0.76791-93.443c-14.377-21.034-25.249-46.364-36.262-71.521zm87.666 1.483-0.0137 10.479-25.99 21.913 0.0137-10.437zm-250.55 5.4625-13.797 12.383 13.86 12.387 13.374-12.354zm-259.43-1.6854-0.0164 11.145-25.802 22.909 0.0169-11.849zm290.18 6.5951 0.0588 106.63-5.7364 2.4931 0.55841-111.39zm-31.019 1.5753 6.2463 5.8023-6.5563 6.057-6.1486-5.8022zm250.8 1.4173-0.0164 12.085-25.99 22.311-0.417-11.526zm-287.29 44.972c26.76 21.397 47.295 53.853 69.87 72.008 9.1295 7.311 31.466 18.737 43.522 22.256 13.707 4.0007 24.375 5.6445 38.138 5.8858 10.866 0.1904 10.914 0.25009 10.914 0.25009l4.5897 7.5433-7.606-0.10578-0.53636 26.611c8.0553 0.36968 15.945-0.0315 23.731-0.91142l2.8058 4.8495c-55.422 6.8562-109.56-12.562-142.1-37.332-14.839-11.276-26.892-25.035-41.559-45.062-28.226-40.695-78.017-60.387-124.41-60.9l-3.8389-5.5135 7.7544 0.24732s0.79078-5.1126 0.90555-13.804c0.12925-9.7874 0.0669-11.506-0.76507-11.789-5.6172-0.60875-22.561-0.30679-22.066 0.35487l-3.4798-5.7509c55.318-5.1893 109.72 12.622 144.13 41.163zm-222.69-40.4-0.0164 10.933-25.802 22.375 0.0156-10.947zm283.28 1.272-0.69388 9.7708-12.302 11.185 13.055 11.712-0.32182 8.1636-23.023-19.729zm-168.35 3.2724c-1.1861-2e-3 -1.9016 0.0912-2.0365 0.29772-0.30572 0.47188-0.14264 4.6707-1.1683 19.86-0.37592 5.5669-0.79337 5.5882 4.2709 6.1565 4.2518 0.13928 13.759 2.3955 20.088 3.0916 5.333 0.65788 4.22-0.83818 5.729-4.7668 1.6425-4.2941 2.5388-8.1041 4.5828-14.235 1.87-5.615 1.0147-5.7966-10.991-7.8797-8.301-1.4399-16.916-2.5183-20.474-2.5243zm119.88-0.78653 20.833 19.21-20.564 19.201-0.34764-9.2903c3.9671-3.243 8.6917-6.936 12.18-10.599l-12.088-11.404zm-104.62 6.0927 2.234 3.397 5.3723 0.82247-0.94231 3.4507 2.7281 3.5641-3.367 2.3224 0.11149 4.2958-4.2069-0.14155-3.661 2.4071-2.8876-3.3882-4.2136-0.13298 0.235-4.8139-2.7302-2.1321 3.2687-2.6915-0.41642-4.2698 5.1905 0.80824zm-33.881 5.7429 3.3117 2.0062-3.3726 2.139-0.15549 3.2838-2.0647 1.6151-7.5484-13.659 4.9205 1.8449 3.7637-2.2958zm60.728-3.083c-2.6463 0.037-2.9993 4.548-5.8781 13.076-4.0166 11.9-4.303 10.799 3.369 13.29 3.4151 1.1085 9.9474 3.1497 13.402 4.6512 8.4196 3.6594 8.4628 3.6462 11.615-1.307 1.4001-2.1968 4.054-7.592 5.911-10.389 4.6316-6.9815 4.756-6.6436-3.7314-10.423-4.9939-2.2252-8.017-3.135-18.517-7.0744-2.9185-1.0947-4.7843-1.8433-6.1705-1.8239zm8.3949 7.9063 3.6771 2.1299 4.1378-1.5839 0.82054 4.1008 4.5232 1.6215-1.293 4.0309 1.9854 3.0241-3.8518 0.68498-2.8068 5.5836-4.2252-2.7374-4.4874 1.4865-1.2392-3.0764-4.5892-2.0491 1.6704-3.3854-2.285-4.5708 5.2559-0.36401zm92.486 4.302 22.996 20.823-20.992 19.34-22.987-20.891zm240.2 4.0787c2.7572 3e-3 4.9812 2.0606 4.9776 4.5998-3e-3 2.5391-2.2335 4.5911-4.9906 4.5878-2.7547-3e-3 -4.9811-2.0606-4.9775-4.5998 3e-3 -2.5391 2.2358-4.591 4.9905-4.5877zm-301.69 0.64554c-1.3349 0.0176-2.1014 1.1488-3.2623 3.3288-0.48935 0.91883-3.3387 5.8097-5.9709 9.5969-5.9333 8.5377-5.936 8.1015-0.0325 11.454 2.5043 1.4225 8.2676 5.8058 13.22 9.9428 4.5824 3.8282 4.0861 2.9223 13.984-6.1757 6.4554-5.9338 10.433-7.5992 7.9259-10.734-6.1028-4.8342-11.108-8.3665-17.726-12.99-4.3725-3.0128-6.6248-4.4415-8.1377-4.4234zm62.562 2.3986-13.602 12.249 15.288 12.798 12.709-11.998zm-232.61-4.4426 0.0137 95.931c14.899 23.551 30.196 47.318 38.137 73.81l21.919-9.8671c-10.365-78.385-34.679-121.87-60.069-159.87zm-39.009 5.9764c2.7548 3e-3 4.9811 2.0606 4.9775 4.5998-3e-3 2.5392-2.2357 4.5911-4.9906 4.5878-2.7549-3e-3 -4.9812-2.0606-4.9775-4.5998 4e-3 -2.5391 2.2357-4.591 4.9906-4.5877zm271.77 5.4471 6.5398 5.5474-6.0351 6.0277-6.6039-6.3131zm245.07 1.1964c2.7549 3e-3 4.9975 2.0606 4.9939 4.5998-3e-3 2.5391-2.2521 4.5911-5.0069 4.5877-2.7548-3e-3 -4.9811-2.0606-4.9775-4.5998 3e-3 -2.5392 2.2357-4.5911 4.9906-4.5878zm-13.389 0.44924c2.7549 3e-3 4.9975 2.0606 4.9938 4.5998-3e-3 2.5391-2.252 4.591-5.0069 4.5877-2.7548-3e-3 -4.9811-2.0606-4.9775-4.5998 3e-3 -2.5392 2.2358-4.5911 4.9906-4.5878zm-291.33-0.65073 3.7835 2.5901 4.4486-1.756 0.31401 4.8272 4.0468 1.8422-2.5552 3.4168 1.5336 4.5002-4.3811 0.12492-3.411 4.1127-3.0535-2.7084-5.962 0.36237-0.9416-4.6884-2.5777-1.8666 2.0089-3.0988-1.4612-4.1336 5.1028-0.3149zm-219.46 4.8534c2.7549 3e-3 4.9812 2.0606 4.9775 4.5998-4e-3 2.5391-2.2357 4.5911-4.9906 4.5877-2.7549-3e-3 -4.9812-2.0606-4.9776-4.5998 4e-3 -2.5391 2.2358-4.5911 4.9906-4.5878zm14.349 0.15262c2.7547 3e-3 4.9811 2.0756 4.9774 4.6148-3e-3 2.5391-2.2358 4.5911-4.9905 4.5877-2.755-3e-3 -4.9812-2.0606-4.9776-4.5997 3e-3 -2.5392 2.2354-4.6061 4.9907-4.6028zm288.67 11.311-11.905 10.216 11.703 11.273-0.36655 8.6316-20.764-19.136 21.155-19.092zm-117.55-2.3637-44.659 27.227-2.7023-6.8301 39.809-23.96zm331.94-1.8251c2.7572 3e-3 4.9812 2.0757 4.9776 4.6148-3e-3 2.5392-2.2334 4.5911-4.9906 4.5878-2.7548-3e-3 -4.9811-2.0606-4.9775-4.5998 3e-3 -2.5391 2.2358-4.6061 4.9906-4.6027zm-267.52 2.4508c-2.0647 0.13097-4.1764 2.3786-8.1855 6.2953-3.9339 3.8437-8.5741 8.358-9.5656 8.9996-3.1014 2.007-2.9515 2.4933 2.4317 8.0796 1.6361 1.6979 4.7245 5.1624 6.8625 7.7096 2.1381 2.5472 5.5482 5.7395 6.225 6.3952 2.1858 2.1176 3.3881 1.6774 13.461-4.9678 12.232-8.0699 12.174-6.872 0.95717-20.25-6.4525-7.7008-9.5356-12.429-12.186-12.261zm-242.72 2.5332c2.7548 3e-3 4.9811 2.0607 4.9775 4.5998-3e-3 2.5392-2.2358 4.5911-4.9906 4.5878-2.755-3e-3 -4.9975-2.0607-4.9939-4.5998 4e-3 -2.5391 2.2519-4.591 5.0069-4.5877zm261.71 1.9821 8.0512 7.9812-0.72307 0.7933zm260.68 2.0897-0.0191 13.815-24.869 21.119 0.0191-12.637zm-278.18 3.7009 3.0136 3.8347 5.1201-0.29749-0.76201 4.5077 2.7175 1.8358-2.6588 3.4128-0.21915 4.3083-4.2262-0.9306-3.4684 3.8356-3.4005-3.6836-4.0137 0.42476 0.14209-4.4793-4.0932-2.1482 2.8966-2.9118 0.0975-5.0174 5.9606-0.19746zm122.89 0.43579 2.4717 6.9707-62.155 37.169-5.4172-5.7514zm-162.58 4.4683 4.9384 3.4363-65.239 38.552-1.9555-5.039zm-190.65-1.711-0.0164 11.486-27.532 24.387 0.0169-11.861zm258.12 3.0665 0.79595-0.6029 21.285 18.888-4.0314 3.9424zm-58.875 5.4651 0.42683 111.41-5.6776-3.6282 0.58037-105.7zm3.4982 2.5767 4.6204 3.7587-4.4359 3.9879zm305.77-0.58063-0.0164 11.297-24.87 21.712 0.0164-11.815zm-508.53 4.8121-0.0164 10.618-27.532 24.189 0.0153-10.727zm256.27 1.7554c-0.71288-0.0101-1.482 0.41272-2.6078 1.2279-1.0229 0.73825-3.5257 2.3369-5.5592 3.5512-7.4887 4.4714-13.838 8.6625-14.118 9.2831-0.5789 1.2825 6.9142 10.319 17.321 21.154 4.0904 4.259 3.9752 5.0825 8.0913 1.3003 3.2721-3.416 15.262-12.765 14.919-15.271-0.65628-2.8687-4.7674-6.1346-14.971-18.885-1.3576-1.6064-2.1611-2.3457-3.0751-2.3606zm-46.182 1.1078 16.318 21.581-2.1813 2.0015-20.033-18.264zm-31.948 2.506-0.11313 103.95-30.719 20.053c0.56231 0.27365-3.6789-62.456-15.366-95.921zm76.312 3.7548 2.9986 5.1737 4.5485-0.7006-0.6042 4.7519 3.8495 2.793-3.7967 4.827 0.49697 3.4399-4.461-0.93857-4.0749 3.8722-2.7839-4.9357-5.8659 0.0803 0.82806-4.7376-4.0865-3.1735 4.4691-2.4257 0.62751-4.3208 3.8467 0.30956zm26.629 0.83554 0.49892 4.2491-2.7332-2.1951zm-78.465 7.4528-0.0358-6.0763 19.541 17.427-20.006 17.236 0.15029-8.1965 11.387-9.9732zm161.7-3.1675 2.7664 7.7539-40.227 22.762-8.0977-3.8905zm132.41 12.969c2.7548 3e-3 4.9974 2.0607 4.9938 4.5998-3e-3 2.5391-2.2521 4.606-5.0069 4.6027-2.7548-3e-3 -4.9811-2.0757-4.9775-4.6148 3e-3 -2.5391 2.2358-4.5911 4.9906-4.5878zm-255.85 14.644-14.105-13.046 1.7782-1.7702zm36.402-11.668c-4.793 3.7652-15.021 14.63-15.007 16.425 0.0137 1.7897 14.124 13.062 22.614 18.068 2.6652 1.5698 3.7236 1.6212 4.7557 0.20073 14.709-20.194 15.33-19.513 9.5252-23.464-5.901-4.1702-12.797-10.374-17.509-12.511-1.9856-0.90027-2.3299-0.34479-4.3791 1.28zm-52.932 0.92072 23.25 20.602-21.617 19.163-22.377-21.814zm-237.71 1.267c2.755 3e-3 4.9812 2.0606 4.9776 4.5998-3e-3 2.5391-2.2353 4.591-4.9906 4.5877-2.7548-3e-3 -4.9811-2.0606-4.9775-4.5997 4e-3 -2.5391 2.2358-4.5911 4.9906-4.5877zm294.14 4.4908 3.9127 3.2174 4.6722-1.1165 1.0445 4.2535 4.5014 1.5329-2.4208 4.3244 0.32616 5.4536-4.535-0.78608-3.154 4.4698-4.5994-4.2803-5.2819 0.40275 0.29982-4.7698-4.6635-2.0848 2.9647-3.1302-1.8466-4.292 5.5855 0.81738zm222.57 2.1826c2.755 3e-3 4.9812 2.0606 4.9776 4.5997-3e-3 2.5392-2.2356 4.5911-4.9907 4.5878-2.7548-3e-3 -4.9974-2.0607-4.9938-4.5998 3e-3 -2.5391 2.2521-4.591 5.0069-4.5877zm-291.25 10.492 13.764 13.016 12.7-11.194-13.426-13.101zm277.51-10.329c2.7549 3e-3 4.9812 2.0606 4.9776 4.5998-3e-3 2.5391-2.2358 4.6061-4.9907 4.6027-2.7548-3e-3 -4.9811-2.0757-4.9774-4.6148 3e-3 -2.5392 2.2357-4.5911 4.9905-4.5878zm-509.85 4.1738c2.7548 3e-3 4.9811 2.0756 4.9775 4.6148-4e-3 2.5392-2.2358 4.5911-4.9906 4.5878-2.755-3e-3 -4.9812-2.0606-4.9776-4.5998 4e-3 -2.5391 2.2354-4.6061 4.9907-4.6027zm14.61 0.0627c2.7549 3e-3 4.9812 2.0756 4.9776 4.6148-3e-3 2.5391-2.2358 4.591-4.9906 4.5877-2.7549-3e-3 -4.9811-2.0606-4.9775-4.5997 3e-3 -2.5391 2.2357-4.6061 4.9906-4.6027zm230.82 1.3033 6.2624 5.9674-5.8118 5.6338-6.4754-6.1581zm85.164 4.1896c-3.214 2.1182-11.958 17.335-13.459 20.682 0.0109 0.80728 4.2046 3.2674 9.4554 5.536 4.4756 1.9337 18.999 7.3245 20.337 7.6245 2.9192 0.65688 3.4228-0.36406 3.9121-2.1158 0.25932-0.92792 1.4205-4.4665 2.7115-8.3135 4.5211-13.472 5.8696-12.834-0.82584-14.889-2.3064-0.70709-9.5508-2.9682-14.115-4.9147-4.5202-1.928-6.563-3.633-8.0166-3.6089zm185.95 2.6638c2.755 3e-3 4.9975 2.0607 4.9938 4.5998-3e-3 2.5392-2.252 4.6061-5.0069 4.6028-2.7548-3e-3 -4.9811-2.0756-4.9775-4.6148 3e-3 -2.5391 2.2358-4.591 4.9906-4.5877zm-238.12 6.0198 0.65404 90.36-7.6652-5.5406-0.0806-90.658zm-34.333 15.356-21.206 19.843-0.11996-10.122 11.872-9.8825-12.057-11.653 0.2596-7.8211c7.7188 5.8365 14.304 13.013 21.252 19.635zm-237.33-17.622c2.7548 3e-3 4.9811 2.0606 4.9775 4.5998-3e-3 2.5391-2.2358 4.6061-4.9906 4.6028-2.755-3e-3 -4.9975-2.0757-4.9939-4.6148 4e-3 -2.5391 2.252-4.591 5.0069-4.5877zm326.87 0.19771 4.2655 3.2905 3.5814-1.9778 2.0542 3.3832 5.1356 0.66621-2.3098 5.1605 3.0108 3.992-5.0132 0.84718-1.2515 5.5052-4.9078-2.697-3.7336 1.4841-2.7087-4.6678-5.8129-0.22365 3.1807-5.0636-2.9839-4.0104 4.2169-0.24909zm-65.369 0.28093-0.0486 7.9682-9.2276 8.5984 9.2363 9.291-0.0612 9.2668-19.129-17.996zm98.253 5.3523c-1.9268 0.0509-1.9487 1.928-3.436 8.0387-0.32206 1.3251-1.3507 4.8764-2.2752 7.8937-2.8026 9.1467-3.1564 9.3168 5.4531 10.902 4.9852 0.69209 26.558 5.3486 27.004 2.1793 0.55023-5.3842 0.91694-18.062 0.99878-22.371 0.19074-1.4447-0.17515-2.8062-1.743-2.9808-9.8348-1.095-20.774-3.4876-26.002-3.662zm-84.062 0.28515c12.244 7.7258 24.094 15.596 38.167 22.651l0.22244 92.926-38.601-26.57zm245.94 0.56303-0.0164 11.392-25.787 22.638 0.0164-10.881zm-150.9 3.7718 2.2252 4.4106 4.693-1.4336-0.035 5.2655 4.1784 2.4371-5.0462 2.1369-0.45295 6.4059-5.1082-1.4567-4.2118 2.395-3.7187-3.6093-4.5605-0.0844 1.6817-5.6951-2.9424-2.6044 4.2824-1.9314 0.35529-5.0851 4.5754 2.5314zm-356.78-1.2768-0.0164 10.981-28.074 23.753 0.0137-9.6004zm391.88 7.3552 6.2764 9.8121-2.2776 3.9604-4.2143-1.903-4.6358 1.5718 0.71566-5.2409-3.5724-2.6246 3.6229-3.0596-0.16013-3.8482zm-166.09 3.0355 21.471 20.559-21.933 20.818-21.466-20.852zm281.85 13.194-25.786 22.02 0.0164-10.727 25.787-22.479zm-507.66-9.5819-0.0164 10.715-28.075 24.181 0.0142-9.9268zm225.85 4.1034-13.981 12.718 13.829 12.827 14.007-12.479zm0.17707 7.3001 5.9723 5.663-5.7232 5.4648-6.1558-5.5329zm-23.986 7.7971 21.288 20.198-2.451 2.658-18.87-13.545zm45.756 1.6903 0.55392 9.104-11.641 9.1343 10.606 10.284 0.28028 9.4591-20.181-19.197zm248.37 9.541c2.7572 3e-3 4.9812 2.0606 4.9776 4.5998-3e-3 2.5391-2.2335 4.5911-4.9907 4.5877-2.7547-3e-3 -4.9811-2.0606-4.9775-4.5997 3e-3 -2.5391 2.2358-4.5911 4.9905-4.5878zm-509.57 4.9398c2.7549 3e-3 4.9812 2.0606 4.9776 4.5997-3e-3 2.5391-2.2358 4.6061-4.9906 4.6027-2.7549-3e-3 -4.9812-2.0756-4.9776-4.6148 4e-3 -2.5391 2.2358-4.5911 4.9906-4.5877zm102.06 2.9379-15.76 21.663 12.383 7.6691-11.759 14.526 12.194 13.554-12.308 9.7042 12.447 19.698c-4.9571-0.91017-9.9975-3.9634-14.558-6.085l-9.3834-16.501 10.83-8.5653-10.961-11.756 11.532-12.558-11.535-7.482 12.618-17.834zm413.46 3.3887c2.7548 3e-3 4.9811 2.0606 4.9775 4.5998-3e-3 2.5391-2.2358 4.5911-4.9906 4.5877-2.7572-3e-3 -4.9812-2.0607-4.9776-4.5998 3e-3 -2.5391 2.2335-4.5911 4.9906-4.5877zm-309.34-0.73157 108.45 77.252-0.45897 10.232-108.47-77.04-46.146 29.944 0.42833-10.918zm296.05 1.331c2.7547 3e-3 4.9811 2.0606 4.9775 4.5998-3e-3 2.5392-2.2358 4.5911-4.9906 4.5878-2.7572-3e-3 -4.9812-2.0606-4.9776-4.5998 3e-3 -2.5391 2.2335-4.5911 4.9907-4.5877zm-252.69 9.5406-1.1414 0.19822-11.833-7.9828 2.586-2.6773s7.7557 7.9132 10.388 10.462zm-242.17-4.7332c2.755 3e-3 4.9975 2.0756 4.9938 4.6148-3e-3 2.5391-2.252 4.5911-5.0069 4.5878-2.7547-3e-3 -4.9811-2.0607-4.9775-4.5998 3e-3 -2.5391 2.2358-4.6061 4.9905-4.6027zm-13.437 0.0441c2.7548 3e-3 4.9975 2.0607 4.9938 4.5998-4e-3 2.5391-2.2521 4.591-5.0069 4.5877-2.7549-3e-3 -4.9812-2.0607-4.9776-4.5998 4e-3 -2.5392 2.2358-4.5911 4.9906-4.5878zm515.62 6.6871c2.7572 3e-3 4.9812 2.0757 4.9776 4.6148-3e-3 2.5392-2.2335 4.5911-4.9907 4.5878-2.7547-3e-3 -4.9811-2.0606-4.9775-4.5998 3e-3 -2.5391 2.2358-4.6061 4.9905-4.6027zm-509.62 4.4743c2.7549 3e-3 4.9812 2.0756 4.9776 4.6148-3e-3 2.5391-2.2354 4.591-4.9907 4.5877-2.7548-3e-3 -4.9811-2.0606-4.9775-4.5998 4e-3 -2.5391 2.2358-4.6061 4.9906-4.6028zm521.07 9.1871-0.0137 10.145-24.377 21.718 0.0137-9.7948zm-328.61 2.6496c3.6214-0.0277 8.4721 0.1491 15.001 0.36338 5.5904 0.18386 11.771 0.30298 13.73 0.25684 7.7409-0.1831 10.265 2.2452 10.394 9.9507 0.11668 6.8512 0.0861 6.8295 9.8113 7.2177 11.726 0.46803 14.821 3.2459 14.966 13.454 0.056 3.9749 3.5378 5.5377 10.369 4.6513 10.766-1.3965 12.856-0.0325 14.092 9.1895 1.0273 7.696 0.4706 7.2999 10.332 7.2484 10.605-0.0552 12.971 1.586 13.082 9.1132 0.0648 4.3683 1.2192 5.6814 5.3176 6.0264 4.3807 0.3687 6.2657 2.443 4.0982 4.4936-0.39431 0.37312-2.4221 0.60025-5.6202 0.63876-6.758 0.0816-8.9844-1.8771-10.232-9.0197-0.86872-4.9581-1.4147-5.2163-10.401-4.9966-11.462 0.28002-12.357-0.36006-13.587-9.5792-1.0515-7.9159-2.4944-8.7306-12.352-7.0256-7.1676 1.2396-10.957-1.677-11.877-9.1118-1.0322-8.3426-1.4354-8.6479-11.6-8.9914-10.186-0.34414-13.021-1.9987-13.101-7.6421-0.12406-8.7431-1.3218-9.5375-13.848-9.2042-6.0801 0.16169-12.302 0.0557-15.88-0.28924-7.5873-0.73222-7.5473-0.76741-8.3153 5.9498-1.1475 10.037-2.7447 10.958-17.149 9.9625-6.017-0.41597-6.4448-0.15892-6.863 4.06-0.52304 5.2824-2.6498 8.536-4.2767 6.5402-0.84978-1.0425-0.85699-1.1399 0.0137-8.8722 0.96876-8.6528 1.0766-8.7175 13.318-7.8354 8.2927 0.59761 7.8917 0.87433 8.7878-6.0694 1.0898-8.449 0.92667-10.396 11.791-10.479zm-178.66-1.0074-0.0164 11.135-28.482 24.312 0.0153-10.79zm88.367 13.194 6.1804 7.801-2.0276 14.493-5.2638 3.6438 3.7162 6.8939-1.2039 8.4648-1.4774 0.77509-10.303-18.491 12.239-9.8988-12.508-14.094 11.855-14.69-12.272-7.9714 14.786-20.009c2.5619-2.8603 2.6956 8.5054 2.6956 8.5054l-6.1252 8.5257 6.829 5.4465 0.0164 3e-5 5e-3 13.5-7.1398 7.105zm7.8221-6.5547 0.69082-18.174-5.3261-3.8136 4.1237-6.2989-0.25768-16.099-1.2387-0.78535c-10.093-115.26-71.211-183.44-80.769-198.9 0 0-2.1261-1.5776-1.7316-5.537 0.17243-1.7196 0.27162-11.877 0.21123-22.578-0.30763-54.629 0.24457-92.055 0.24457-92.055l-44.938-44.263 0.23743 16.176 2.2066 1.4702-0.11143 73.651-1.8711 0.0937s-0.60728 19.801-0.47729 33.404l2.6775 0.0725-0.23366 50.609-2.2801 0.24833 0.08329 32.789 2.4805-5e-3s0.53273 34.38-0.37971 51.098l-1.8465 0.1 0.07979 32.592 2.092 0.15036 0.0709 46.618-2.5792 0.35612 0.65632 30.774 2.1024 0.11107c0.73135 19.014 0.32563 51.883 0.32563 51.883l-2.4067 0.0982 0.54703 30.554 1.7255 0.10629-0.57921 53.636-1.5723 0.17 0.55763 31.681 1.6975 0.14583-0.32359 26.345-1.1678 0.18159-0.29296 9.8521 1.2413 2.6125 0.0306 35.102-0.94823 0.38235-0.30194 17.63 69.883-64.953-25.691-0.74195 0.0462-21.018c0.0601-34.687 0.59802-62.68-0.48187-96.515-0.33624-0.30249-2.8833-0.67896-5.667-0.83252-13.223-0.72923-16.81-1.7215-16.851-4.6441-0.0517-3.6186 5.9497-8.0936 10.924-8.1535 1.1257-0.0126 3.0137-1.0419 3.0137-1.0419l-1.0522-384.87-31.183-30.179 0.1462-9.5707 38.421 37.579 0.90063 384.68 1.4611-0.63365 0.28977-129.18c19.681 27.203 30.701 54.154 41.631 81.102 0 0 3.8825-1.2271 4.0412-1.3012 0.0309-0.0285-1.3838-0.45592-1.3838-0.45592-11.14-34.438-25.263-59.415-43.588-85.491l0.44205-125.2c46.93 61.27 69.583 116.35 78.915 195.7l-23.811 10.925-2.3126 2.8401-17.985 8.2598-1.7176-2.647-10.907 6.943c8.397 13.547 8.0593 33 1.1841 43.297l2.9492 1.6959c0.20167 0.7454 11.32-21.053-1.0512-43.253l8.126-4.599c11.679 22.327 6.2078 46.354 0.68277 52.54 0 0 8.4731 4.9891 14.558 8.0435 6.6172 3.3224 12.498 6.3604 20.431 8.728 4.8882 1.839 7.9998-0.31299 7.9829-0.35988l2.3948-12.451-3.7709-4.7522 4.4065-3.2613 2.0297-19.069-4.719-4.4059zm411.06 5.5864-0.0164 12.285-24.376 21.232 0.0164-12.089zm-507.28 12.548-28.482 24.031 0.0142-10.009 28.482-24.582zm497.56 16.972c2.7572 3e-3 4.9974 2.0757 4.9938 4.6148-3e-3 2.5391-2.2497 4.591-5.0069 4.5877-2.7547-3e-3 -4.9811-2.0606-4.9775-4.5997 3e-3 -2.5391 2.2358-4.6061 4.9905-4.6028zm-486.24 6.8557-0.13335 113.38-7.5086-2e-3 0.50903-114.77zm-25.123-1.0625c2.7549 3e-3 4.9812 2.0607 4.9775 4.5998-3e-3 2.5392-2.2357 4.5911-4.9906 4.5878-2.7549-3e-3 -4.9812-2.0606-4.9776-4.5998 4e-3 -2.5391 2.2358-4.591 4.9906-4.5877zm504.25 4.992c2.7547 3e-3 4.9811 2.0606 4.9775 4.5998-3e-3 2.5391-2.2358 4.6061-4.9906 4.6028-2.7572-3e-3 -4.9975-2.0757-4.9938-4.6148 3e-3 -2.5391 2.2497-4.5911 5.0069-4.5877zm13.437 0.21105c2.7549 3e-3 4.9812 2.0607 4.9775 4.5998-3e-3 2.5391-2.2357 4.5911-4.9906 4.5877-2.7548-3e-3 -4.9975-2.0607-4.9939-4.5998 3e-3 -2.5392 2.2521-4.5911 5.0069-4.5878zm-509.92 6.2905c2.7549 3e-3 4.9974 2.0756 4.9938 4.6148-3e-3 2.5391-2.252 4.591-5.0069 4.5877-2.7548-3e-3 -4.9812-2.0606-4.9776-4.5998 3e-3 -2.5392 2.2358-4.6061 4.9907-4.6028zm256.83 0.44509c25.985 2.997 19.066 28.114 8.1007 33.322-14.924 6.3843-26.852-6.5251-17.307-19.582 7.0027-9.579 20.289-3.2224 15.137 7.2804-2.9016 5.9151-8.8994 5.2158-8.835-0.76875 2.1495-5.6873 0.18117-3.6628-1.4961-1.6569-5.2653 6.2976 5.3329 12.999 10.793 6.7836 3.3514-3.8148 4.0604-8.3473 2.9203-11.972-1.9468-6.1898-9.6923-9.819-18.469-4.1025-10.493 11.567-16.113 26.542-19.231 43.297-6.6363 35.658-7.0218 73.183-12.69 82.693l-6.1542-0.14281c9.0068-40.809 9.1-75.747 18.696-107.92 4.7501-15.947 16.828-27.284 28.534-27.235zm-270.46-0.13122c2.755 3e-3 4.9812 2.0756 4.9776 4.6148-4e-3 2.5391-2.2353 4.591-4.9906 4.5877-2.7548-3e-3 -4.9811-2.0606-4.9775-4.5998 4e-3 -2.5391 2.2358-4.6061 4.9906-4.6027zm105.45 0.75772c-6.8534 0.11736-13.817 5.3401-13.292 12.024 0.63768 8.1141 5.8491 11.736 14.432 10.931 4.5895-0.43032 4.4673-0.49848 7.551 4.6029 2.7737 4.5906 10.083 24.188 10.125 27.154-3.5178-4.3146-11.736-12.328-19.333-12.003-8.156 0.53704-15.032 7.6524-8.8817 17.749 3.2714 4.952 9.1015 5.9243 15.034 4.2986 8.8532 12.732 10.509 25.478 13.309 40.268 0 0 3.5501-31.644 4.629-44.269 2.0441-19.346 4.9292-31.873 13.075-47.205-6.7678-3.61-14.017-6.4464-21.308-9.0471-2.8957-1.033-5.9412-1.0526-8.8118-2.7841-1.9806-1.23-4.2454-1.7584-6.529-1.7193zm412.29 3.0771c2.7548 3e-3 4.9811 2.0606 4.9775 4.5998-3e-3 2.5392-2.2358 4.6061-4.9906 4.6028-2.7572-3e-3 -4.9812-2.0756-4.9776-4.6148 3e-3 -2.5391 2.2335-4.5911 4.9906-4.5877zm-398.27 9.6697c5.1229 7.6982 10.116 18.805 10.55 25.796 0.16888 4.6255-0.8327 10.306-1.6909 15.615-0.42429 2.6254-1.4972 0.0627-3.4351-5.6118-8.0438-23.554-10.173-28.063-15.789-26.894-3.1967 0.66559-6.5229 0.77537-8.6994-0.33457-7.111-3.6263-7.747-15.757 2.647-18.063 8.2148-1.6379 13.492 5.0915 16.418 9.4921zm-0.17653-5.8528c10.35 3.7722 16.954 9.4473 15.053 18.666-0.83535 3.4677-1.3941 6.3259-2.4017 5.9563-1.1656-0.42761-2.763-4.5913-5.968-11.754-0.72739-2.3169-8.0915-12.822-6.6834-12.868zm171.38 0.6066c0.54681-0.0708 1.4033 0.40457 2.5714 1.4143 8.1543 7.4174 3.6998 24.112-7.1791 28.909-4.4792 2.8339-12.718 2.3583-12.757-0.38695-0.0137-1.0676 0.24676-1.3544 1.3905-1.3682 9.1475 0.0756 18.888-11.628 16.212-24.109-0.32988-1.877-0.94302-4.3676-0.23801-4.4589zm-284.62 3.7137c2.755 3e-3 4.9812 2.0606 4.9776 4.5998-3e-3 2.5391-2.2353 4.6061-4.9907 4.6028-2.7547-3e-3 -4.9974-2.0757-4.9938-4.6148 4e-3 -2.5392 2.2521-4.5911 5.0068-4.5878zm293.2 1.7649c0.57294-0.0788 2.5534 0.70928 3.8653 2.1702 7.6809 8.5534 1.4138 23.097-10.684 28.071-4.6193 2.2961-8.5064 0.70345-7.5245-1.6635 8.2417-3.1402 16.024-11.279 15.226-22.426-0.30674-3.91-1.7204-6.0371-0.88309-6.1524zm-163.04 1.3556 2.7952 1.2266-1.1583 2.2312c-0.53761-1.3367-0.52635-1.8562-1.6368-3.4578zm171.78 1.132c0.61235-0.0126 1.9846-0.19972 3.2808 0.96427 4.9666 4.4595 5.7354 16.948 0.95029 23.115-2.2474 2.8913-9.2083 8.1424-11.281 8.6688-2.4176 0.27098-4.0969 0.6-8.1138-1.0906-1.3488-0.0426 0.60445-1.2133 3.1431-2.5596 9.0124-4.7793 14.997-13.321 13.443-21.346-0.96173-4.9658-2.5923-7.7274-1.4223-7.7518zm9.1144 4.0391c2.3859 0.19091 4.2305 2.1257 5.3631 3.7666 5.9005 7.8293 0.96562 24.287-11.137 27.684-8.0598 2.262-11.059 0.10956-4.5301-3.391 9.3772-5.0263 14.253-14.868 11.556-22.692-1.294-3.7412-2.521-5.289-1.2513-5.3672zm9.7493 5.7416c2.8182 0.0393 4.9962 2.032 5.987 4.0851 2.3243 5.0548 1.9506 12.136-1.0956 17.112-3.0372 4.962-8.8411 9.0874-15.279 9.6851-1.685 0.14129-3.1453-0.0909-4.4129-0.5959-2.8282-1.1285-1.8546-1.2938 3.4748-3.8544 8.489-4.0788 13.513-12.572 12.242-21.963-0.47653-3.5228-2.0127-4.4634-0.91629-4.4694zm-307.27-2.0821-0.0164 12.134-27.724 24.058 0.0169-11.848zm235.28 1.8548c0.526 0.50407 3.6475 7.3906 4.0353 8.8103-6.4973 8.5906-8.3498 22.699-9.3699 33.388-3.7027 30.293-7.5572 66.872-9.2189 67.205l-7.21 0.14079c2.7453 1.6922 6.3411-50.233 11.977-83.124 0.43371-2.5807 6.455-27.96 9.7866-26.42zm83.766 5.4733c9.5031 5.9433 4.3967 24.451-8.8348 29.014-4.803 1.6952-6.5667 1.9116-8.7376-0.039-1.3683-1.2287-2.6754-1.6444 0.8157-2.7773 9.7808-2.3397 16.698-10.746 15.061-20.522-0.19183-2.3771-2.6101-8.6607 1.6953-5.675zm-76.943 5.0339 4.3236 2.5681c-4.6844 12.814-6.4297 27.928-8.3586 42.561-2.3332 17.699-4.3932 35.921-7.2141 53.298l-6.6195 0.21232c3.4698-10.738 5.106-40.737 8.5643-65.868 2.0139-12.72 4.2123-30.214 9.3043-32.771zm7.5027 4.1975 5.5418 2.9678c-1.97 7.1505-4.3 14.988-5.4565 22.489-2.5711 16.678-3.5993 36.91-9.5037 68.038l-5.9973 0.46062c1.5227-9.9986 4.4145-32.268 6.8816-52.755 2.8647-23.79 7.3372-41.78 8.534-41.201zm-249.62-1.1044-0.0164 11.908-27.723 23.465 0.0156-10.97zm259 4.88s4.7672 2.4821 5.371 2.7725c-3.6196 13.14-5.3974 25.353-7.1891 37.267-2.4162 16.068-4.2158 31.701-7.5447 49.361l-6.3943 0.36418c3.2014-13.544 6.8882-45.364 9.7841-67.801 1.6813-13.026 5.1344-22.219 5.9729-21.964zm-152.48 26.568c0.0694 8.9797-2.0839 22.893-2.0839 22.893-0.84303 0.44269-3.428-20.388-12.544-29.82-11.126 4.8661-20.704-6.5918-13.11-14.451 14.818-11.713 27.745 13.357 27.738 21.378zm160.82-22.977 7.7338 3.3009c-0.95274-0.15263-2.7841 4.7592-4.5749 12.422-5.4563 23.346-10.901 69.365-11.779 69.347l-5.9703 0.44571c1.9512-12.36 4.6354-31.887 7.439-49.163 3.1762-19.571 6.1363-36.252 7.1513-36.353zm10.748 4.4904 5.8755 3.2635c-0.51053-0.34313-2.644 5.4533-3.6837 9.4888-5.3271 23.287-7.7468 43.709-11.051 66.301l-6.413 0.76276c-0.48362 0.65128 5.5962-44.463 10.592-67.246 1.7068-7.7837 4.2078-12.833 4.6804-12.57zm9.1619 4.0626 6.2988 2.8789c-6.8778 17.867-7.5371 34.966-14.157 70.836l-6.6598 1.101c2.7126-22.965 6.5516-47.629 12.044-70.103 0.75884-3.0186 2.4048-4.6466 2.4736-4.7122zm9.0056 4.2084 7.0876 2.6321-14.94 65.852-5.9865 0.73963c3.7547-18.986 5.7157-40.941 10.765-58.244 1.0701-3.6673 1.6723-7.789 3.0742-10.98zm-308.79 10.061c2.7549 3e-3 4.9974 2.0607 4.9938 4.5998-3e-3 2.5391-2.252 4.5911-5.0068 4.5877-2.7549-3e-3 -4.9812-2.0607-4.9776-4.5998 4e-3 -2.5391 2.2358-4.5911 4.9906-4.5878zm6.4998 10.787c2.7549 3e-3 4.9974 2.0752 4.9938 4.6148-3e-3 2.539-2.252 4.591-5.0068 4.5877-2.7549-3e-3 -4.9812-2.0607-4.9776-4.5997 3e-3 -2.5396 2.2358-4.6061 4.9907-4.6028zm-12.982 0.26961c2.755 3e-3 4.9975 2.0607 4.9939 4.5997-4e-3 2.5395-2.252 4.6061-5.0069 4.6028-2.7548-3e-3 -4.9811-2.0753-4.9775-4.6148 4e-3 -2.539 2.2358-4.591 4.9906-4.5877zm6.207 10.606c2.7548 3e-3 4.9811 2.0757 4.9775 4.6148-3e-3 2.5391-2.2358 4.591-4.9906 4.5877-2.755-3e-3 -4.9975-2.0607-4.9939-4.5998 4e-3 -2.5391 2.252-4.6061 5.0069-4.6028zm45.085 15.404-59.889 55.771-0.16967-11.161 41.05-37.054-41.312-0.627 0.10624-7.5537zm-27.43 10.614-32.087 28.154-0.22795-28.668zm34.23 2.1034s-0.17625 1.0282 2.8257 5.8882c8.722 14.017 10.724 26.961 18.431 41.982 3.8356 8.2187 12.487 16.522 14.423 16.994l-9.6498 16.224 271.63-0.19544-43.384-70.008c-69.028 11.691-131.03 9.5497-189.3 0.0695-3.346 4.133-7.0203 12.547-10.538 18.633-8.6743-21.598-36.493-35.566-54.437-29.587zm9.8841 1.8885c14.354-0.17303 26.308 6.1326 36.913 19.485 3.3742 4.2536 4.6838 6.1741 4.6693 7.9595-0.3607 2.0628-4.8203 8.655-4.8203 8.655s-2.572-6.5522-3.1802-9.7244c-3.8774 13.095-5.3951-2.0874-6.873-6.0925-4.7279 12.649-7.2404-4.7487-6.9962-9.441-6.4187 8.1072-5.9879-5.2209-9.1086-7.7006-0.0872 7.0318-4.5663 2.2158-10.378 0.70916 3.0352 3.9345 8.9504 6.5809 1.3895 7.4392 7.5339 4.8087 11.313 4.0781 3.9903 6.7177 5.6365 2.8755 14.917 6.3372 4.6476 8.2122 6.2692 3.653 16.356 5.1974 5.5024 8.6669 8.1871 4.6306 19.098 4.3115 3.7488 8.0037 5.5551 3.0033 15.352 4.1386 4.3835 6.7285 1.6937 0.70052 4.6271 2.5205 4.6271 2.5205l-4.7492 6.8918s-1.7057-0.1297-2.8692-1.2537c-5.0244-4.8491-9.9057-13.767-14.272-26.259-3.2116-9.1893-7.0348-18.899-11.257-26.961-2.2785-4.2638-2.0672-4.4775 4.6322-4.5582zm242.56 16.046 37.455 59.248-8.9064 0.11711-33.072-50.727-44.724 4.6016 14.662 45.332-13.289 0.3179-13.13-44.594c-24.964 0.89896-48.781 1.127-69.54-0.4338l-7.1006 45.212-12.679-0.40557 8.0963-44.749-41.953-4.9979-22.835 50.175-13.109 0.21584c8.4801-13.145 29.668-55.598 33.622-59.778 91.387 13.595 138.86 6.3809 186.5 0.46578zm-8.7914 13.715 28.357 45.579-45.658 0.13777-15.277-42.192zm-170.83 1.1281c9.0044 2.4316 18.697 2.9676 28.46 3.3108l-8.3594 40.74-40.456-0.12492zm113.87 4.9337 10.677 39.585-76.158 0.26838 6.339-39.441c19.986 1.1266 39.516 0.13374 59.142-0.41277z"/>
</g>
<g transform="matrix(.037658 0 0 -.037782 83.13 998.54)" stroke-width="3.1813">
<rect x="2406.7" y="536.55" width="85.256" height="295.69"/>
<path d="m2917.9 395.13c67.135 120.8 23.601 273.14-97.235 340.26-120.84 67.117-273.22 23.595-340.35-97.21-17.88-32.173-28.44-67.893-30.889-104.57-9.342 137.92-128.75 242.09-266.66 232.71-137.91-9.3777-242.11-128.75-232.73-266.63s128.79-242.05 266.7-232.67c36.206 2.4619 71.443 12.765 103.73 30.222-118.19-70.886-156.88-224.53-85.945-343.15 70.93-118.62 224.61-157.29 343.26-86.378 118.65 70.912 157.33 224.55 86.4 343.17-21.341 35.69-51.243 65.5-86.812 86.883 121.02-66.97 273.4-23.448 340.54 97.356z"/>
</g>
</g>
</svg>
