<?xml version="1.0" encoding="UTF-8"?>
<svg version="1.1" viewBox="0 0 234 333" xmlns="http://www.w3.org/2000/svg" xmlns:cc="http://creativecommons.org/ns#" xmlns:dc="http://purl.org/dc/elements/1.1/" xmlns:rdf="http://www.w3.org/1999/02/22-rdf-syntax-ns#">
<title>King of Clubs Playing Card</title>
<metadata>
<rdf:RDF>
<cc:Work rdf:about="">
<dc:format>image/svg+xml</dc:format>
<dc:type rdf:resource="http://purl.org/dc/dcmitype/StillImage"/>
<dc:title>King of Clubs Playing Card</dc:title>
<dc:date>2020-05-05</dc:date>
<dc:creator>
<cc:Agent>
<dc:title>Daniel S. Fowler</dc:title>
</cc:Agent>
</dc:creator>
<dc:rights>
<cc:Agent>
<dc:title>Public Domain</dc:title>
</cc:Agent>
</dc:rights>
<dc:publisher>
<cc:Agent>
<dc:title>https://tekeye.uk</dc:title>
</cc:Agent>
</dc:publisher>
<dc:language>en-GB</dc:language>
<dc:subject>
<rdf:Bag>
<rdf:li>king; clubs; playing; card;</rdf:li>
</rdf:Bag>
</dc:subject>
<dc:description>A king of clubs playing card.</dc:description>
<cc:license rdf:resource="http://creativecommons.org/publicdomain/zero/1.0/"/>
</cc:Work>
<cc:License rdf:about="http://creativecommons.org/publicdomain/zero/1.0/">
<cc:permits rdf:resource="http://creativecommons.org/ns#Reproduction"/>
<cc:permits rdf:resource="http://creativecommons.org/ns#Distribution"/>
<cc:permits rdf:resource="http://creativecommons.org/ns#DerivativeWorks"/>
</cc:License>
</rdf:RDF>
</metadata>
<g transform="translate(0 -719.36)">
<rect x=".37795" y="719.74" width="233.24" height="332.24" rx="8.9192" ry="8.9457" fill="#fff" stroke="#808080" stroke-width=".75591"/>
<g transform="matrix(.018829 0 0 .018891 -28.915 764.98)" stroke-width="3.1813">
<rect x="2406.7" y="536.55" width="85.256" height="295.69"/>
<path d="m2917.9 395.13c67.135 120.8 23.601 273.14-97.235 340.26-120.84 67.117-273.22 23.595-340.35-97.21-17.88-32.173-28.44-67.893-30.889-104.57-9.342 137.92-128.75 242.09-266.66 232.71-137.91-9.3777-242.11-128.75-232.73-266.63s128.79-242.05 266.7-232.67c36.206 2.4619 71.443 12.765 103.73 30.222-118.19-70.886-156.88-224.53-85.945-343.15 70.93-118.62 224.61-157.29 343.26-86.378 118.65 70.912 157.33 224.55 86.4 343.17-21.341 35.69-51.243 65.5-86.812 86.883 121.02-66.97 273.4-23.448 340.54 97.356z"/>
</g>
<g transform="matrix(.018829 0 0 -.018891 171.24 1006.7)" stroke-width="3.1813">
<rect x="2406.7" y="536.55" width="85.256" height="295.69"/>
<path d="m2917.9 395.13c67.135 120.8 23.601 273.14-97.235 340.26-120.84 67.117-273.22 23.595-340.35-97.21-17.88-32.173-28.44-67.893-30.889-104.57-9.342 137.92-128.75 242.09-266.66 232.71-137.91-9.3777-242.11-128.75-232.73-266.63s128.79-242.05 266.7-232.67c36.206 2.4619 71.443 12.765 103.73 30.222-118.19-70.886-156.88-224.53-85.945-343.15 70.93-118.62 224.61-157.29 343.26-86.378 118.65 70.912 157.33 224.55 86.4 343.17-21.341 35.69-51.243 65.5-86.812 86.883 121.02-66.97 273.4-23.448 340.54 97.356z"/>
</g>
<g transform="matrix(.037658 0 0 .037782 -33.611 773.19)" stroke-width="3.1813">
<rect x="2406.7" y="536.55" width="85.256" height="295.69"/>
<path d="m2917.9 395.13c67.135 120.8 23.601 273.14-97.235 340.26-120.84 67.117-273.22 23.595-340.35-97.21-17.88-32.173-28.44-67.893-30.889-104.57-9.342 137.92-128.75 242.09-266.66 232.71-137.91-9.3777-242.11-128.75-232.73-266.63s128.79-242.05 266.7-232.67c36.206 2.4619 71.443 12.765 103.73 30.222-118.19-70.886-156.88-224.53-85.945-343.15 70.93-118.62 224.61-157.29 343.26-86.378 118.65 70.912 157.33 224.55 86.4 343.17-21.341 35.69-51.243 65.5-86.812 86.883 121.02-66.97 273.4-23.448 340.54 97.356z"/>
</g>
<g transform="scale(.95622 1.0458)" aria-label="K">
<path d="m27.839 722.44h-6.1155l-8.3628-12.028v12.028h-5.2129v-27.096h5.2129v9.3206l7.3496-9.3206h6.2076l-9.468 12.084z"/>
</g>
<g transform="scale(-.95622 -1.0458)" aria-label="K">
<path d="m-216.87-971.72h-6.1155l-8.3628-12.028v12.028h-5.2129v-27.096h5.2129v9.3206l7.3496-9.3206h6.2076l-9.468 12.084z"/>
</g>
<g transform="matrix(.037658 0 0 -.037782 83.13 998.54)" stroke-width="3.1813">
<rect x="2406.7" y="536.55" width="85.256" height="295.69"/>
<path d="m2917.9 395.13c67.135 120.8 23.601 273.14-97.235 340.26-120.84 67.117-273.22 23.595-340.35-97.21-17.88-32.173-28.44-67.893-30.889-104.57-9.342 137.92-128.75 242.09-266.66 232.71-137.91-9.3777-242.11-128.75-232.73-266.63s128.79-242.05 266.7-232.67c36.206 2.4619 71.443 12.765 103.73 30.222-118.19-70.886-156.88-224.53-85.945-343.15 70.93-118.62 224.61-157.29 343.26-86.378 118.65 70.912 157.33 224.55 86.4 343.17-21.341 35.69-51.243 65.5-86.812 86.883 121.02-66.97 273.4-23.448 340.54 97.356z"/>
</g>
<g transform="matrix(.31544 .0011002 -.0011011 .31518 .23282 720.31)" stroke-width="3.1813">
<path d="m538.13 123.15-275.06 1.2406 34.931 61.416c71.49-5.9675 134.14-0.66076 199.41 1.3153zm-187.86 215.94c-0.28659 0.35762-11.443 3.0315-10.307 5.3808 29.129 57.874 42.139 104.97 54.304 164.44 6.1488-4.6314 16.096-4.445 16.096-4.445-4.9068-22.088 25.099-24.842 25.294-1.734 5.7598 1.2398 11.684 1.2583 16.884 6.6575 2.3366-64.999 27.471-132.25 59.93-178.85-36.991 13.585-91.262 47.445-91.262 47.445s-45.163-17.31-70.939-38.9zm224.83 6.9204c-49.23 43.365-68.497 163.74-64.965 165.4-63.457-1.9646-82.689 62.946-27.684 97.946-2.1738 6.7886-7.5458 12.312-11.708 18.31 5.6728 3.0144 11.867 3.6582 18.053 4.2897 4.697 5.1638 9.3138 11.123 14.414 11.614 5.5336-3.2349 9.4665-7.9688 14.075-12.062 5.7502-1.3573 11.453-2.8597 16.91-5.1716-4.8332-6.2567-10.562-12.583-10.709-18.444 47.825-31.283 41.262-73.823-1.852-95.6 12.844-71.64 31.578-117.4 53.322-149.95zm-339.05 55.348c-6.2541 2.8314-9.666 8.8076-14.204 13.497-6.2304 0.26314-12.231 2.2382-18.166 4.6933 0 0 14.266 18.283 13.383 19.266-46.257 28.109-45.879 69.194-1.4655 96.257 7.524 58.472-46.028 151.01-48.732 148.32l-0.0967 19.132c37.265-38.253 58.355-107.74 62.05-164.82 76.112-4.7012 78.808-72.927 26.411-98.589-4.0281-3.427 13.174-19.281 13.174-19.281-4.3671-3.9896-11.672-4.4422-18.069-4.9325-4.0359-4.4744-7.5547-8.9357-14.285-13.542zm321.91 47.217c10.764 22.209 50.076-4.8519 56.897 6.9652 5.5366 6.7021 17.596 7.3886 16.942-3.9011-2.2652-11.181-10.2-13.66-41.678-8.7887-11.941 1.8478-16.838 2.9419-16.765-2.1075-8.2606-9.2519-15.346 3.3329-15.396 7.8321zm36.513 32.409c-8.8255-6e-3 -10.327 32.01-10.198 41.622-25.553 37.439 52.418 33.183 18.699-7.6023 1.1747-5.3295-4.2983-14.019-4.1477-17.861-2.7631-0.32626-3.9765-14.783-4.3528-16.159zm-449.51 19.247c-13.828 0.3236-29.03 12.103-6.8605 29.042 1.4791 0.47092-0.74497 4.0426 0.0171 9.5361 6.2491 12.51 4.5589 31.035 9.2118 28.19 5.379-3.2891 9.8722-17.11 8.7125-36.41-0.0762-1.266-1.8835-2.6069-1.546-3.9758 12.444-19.047 1.9232-26.649-9.5338-26.381zm141.49 35.872c-3.551 62.534-20.065 123.89-57.482 177.1 32.209-13.929 63.468-31.9 93.717-47.284l70.687 40.596c4.0939-1.6484 6.9284-2.4597 9.6417-4.9479-32.575-44.205-42.657-107.83-56.849-165.39-5.4008 3.5519-15.557 5.336-15.557 5.336-0.72591 19.964-23.295 26.434-27.904 0.39683zm-170.61 48.786c-7.5401 0.44299-13.21 17.763 8.1488 20.328 15.073 1.9779 34.375-4.9072 43.949-1.7189 11.132 16.475 21.125-7.7767 6.2485-11.733-15.981-4.2503-48.53 6.8374-52.13-2.5858-1.8507-3.2175-4.1051-4.4138-6.2163-4.2897zm128.21 270.87-42.645 69.891 272.65-1.5245-35.639-66.663c0.60929-0.73948-119.08 13.204-194.36-1.7039z" fill="#e2cf00"/>
<path d="m303.23 191.78 4.4292 9.8054c58.568-6.5711 119.84-13.376 181.18 1.1009 0 0 4.4999-9.0661 4.4305-9.7215-57.159-13.492-184.97-9.9915-190.04-1.1848zm59.263 137.7 55.731 33.454s26.689-17.5 38.064-24.904l-6.9054-9.4126c-23.569 48.217-65 10.084-80.534-12.603 0 0-4.2203 8.7878-6.356 13.466zm149.69 16.185c3.8617-0.0761 6.0021 1.3048 7.9434 4.9527 2.1918 4.1188 3.0286 3.1036 1.6193-2.0332-2.222-8.0995 7.0473-13.37 15.78-7.9627 6.3059 3.905 6.0302 13.353-0.86053 15.104-5.5651 1.4138-5.7099 2.7684-0.821 2.5476 8.7716-0.3961 11.103 10.462 4.8621 15.773-7.1755 6.1054-16.323 1.778-17.158-5.879-0.38309-2.165-0.87614-2.1347-1.6471-0.90859-2.2144 3.533-2.4188 8.1265-1.9878 12.285l-12.959-7.4603c4.6138-2.1192 7.4259-3.3995 10.761-6.6144 0.43553-0.41928 0.76318-0.72623 0.75915-0.90941-7e-3 -0.32686-1.4427 0.11096-4.0836 0.36636-7.8293 0.75723-13.854-3.9524-12.248-10.792 1.3662-5.8194 4.6134-8.3567 10.04-8.4688zm-57.144 188.72c14.096-14.965 31.601-24.57 55.93-23.227 3.092-62.704 26.524-118.46 64.05-168.69l-41.283-23.032-16.563 9.2727c-39.832 52.428-64.3 118.95-62.134 205.68zm-309.42-146.52s-27.945 19.424-40.929 28.805l0.62787 172.9 3.6097 1.1472c0.25721 0.3688-0.31495-2.5638 1.3401-3.9046 1.3531-1.0961 3.4994-2.34 4.7724-2.77 3.5926-1.2132 3.7519-3.4357 0.39942-5.3569-2.6008-1.4904-3.5908-3.7946-3.2922-7.6241 0.21075-2.7025 0.0871-3.2921-1.1272-5.1271-1.5092-2.2804-1.6364-5.1651-0.35306-8.1571 0.59593-1.3897 0.53872-1.7636-0.52406-3.6404-1.3533-2.3896-1.5147-4.9643-0.50764-7.7364 0.38504-1.0599 0.6635-3.3772 0.62784-5.1657-0.13663-6.8862 5.9904-11.454 17.306-12.895 4.4232-0.56292 4.5587-0.73231 2.5278-4.1748-11.459-19.422 14.285-29.543 16.211-26.434zm352.57 9.644c10.457-0.14108 19.06 7.6002 19.212 17.305 0.15201 9.7052-8.205 17.69-18.662 17.831-10.457 0.14108-19.06-7.6151-19.212-17.32-0.15201-9.7052 8.2051-17.675 18.662-17.816zm0.17796 3.1368c-8.3728 0.11287-15.054 6.4969-14.933 14.268 0.1216 7.7708 7.0002 13.987 15.373 13.874 8.3727-0.11286 15.07-6.512 14.948-14.283-0.12161-7.7709-7.0161-13.972-15.389-13.859zm0.39197 4.4643c5.6776-0.0764 10.356 4.1269 10.439 9.3964 0.0823 5.2695-4.4627 9.6122-10.14 9.6887-5.6777 0.0764-10.341-4.142-10.423-9.4115-0.0823-5.2695 4.4468-9.597 10.124-9.6736zm-375.89 7.2192c0.77011-0.0127 1.5902 0.0961 2.4213 0.34106 4.7187 1.3917 6.3673 5.2478 3.8115 8.9027-2.0074 2.8707-1.7771 3.1168 1.7371 1.9049 2.7638-0.95313 4.1715-0.65248 6.3509 1.3494 6.5342 6.0026-3.1921 16.094-9.5881 9.9802-3.1678-3.0279-3.4693-2.136-1.2727 3.0666 0.71101 1.6839 1.8862 4.3011 1.8862 4.3011l-9.3774-0.1265s1.4568-3.4694 2.1294-5.104c1.6226-3.9433 1.6763-4.52-1.707-2.0398-7.6294 5.5928-16.28-3.9769-9.2601-10.234 1.4277-1.2728 3.7201-1.3303 6.9069-0.16771 2.3218 0.84685 2.6023 0.25806 0.8581-1.7755-3.7942-4.4233-0.28693-10.31 5.104-10.398zm194.34 15.494c-3.8129 23.171-0.48498 55.687-0.56635 73.062 10.167 1.7979 10.281 8.2253 11.842 16.214 4.9416-1.599 15.746 5.1761 17.226 4.58 1.1252-23.509-12.046-91.751-28.502-93.857zm168.69 23.222c14.433 1.0739 11.668 11.419 7.369 15.669-2.036 2.18-1.6593 3.1597 0.57741 1.9056 6.0958-3.4179 10.933-0.94913 12.898 4.9385 3.3566 10.058-10.89 18.723-17.243 9.6948-2.1523-3.0589-3.4709-2.367-2.9435 0.8337 0.32451 3.0847 3.5726 9.4751 3.5726 9.4751l-14.162-1.1776s4.3265-6.6801 5.0863-8.4785c1.577-3.7324 0.74432-4.7274-2.2809-1.7188-8.8559 7.5213-21.128-2.1084-15.409-12.08 2.8192-4.916 8.0177-6.5062 13.634-2.5904 3.7832 2.2931 4.6003 1.2991 1.217-1.4813-6.323-5.1964-0.81314-15.622 7.6848-14.99zm-362.35 8.2123c0.16157-6e-3 0.3187-0.01 0.48304-6e-3 1.213 0.0222 2.4845 0.33409 3.7522 0.99584 3.5186 1.8365 4.4831 5.4588 2.2769 8.6095-1.2687 1.8131-0.89981 2.9557 0.5753 1.7711 1.975-1.586 6.3348-0.53169 8.0351 1.9396 4.3672 6.3474-4.1655 14.653-9.6137 9.3677-2.4049-2.3328-3.3253-2.4271-3.0463-0.89505 0.78333 2.8754 2.8227 7.7813 2.8227 7.7813l-9.8076 0.15788s2.1173-5.1588 2.5875-7.7768c0.36099-2.0711-0.52918-1.7701-2.8651 0.67731-2.2718 2.3802-4.338 2.6266-7.2346 0.84496-7.1475-4.3964-1.4228-15.683 6.031-11.891 2.5676 1.3065 2.9273 0.55126 0.92034-1.9108-3.5841-4.397 0.0728-9.44 5.0833-9.6654zm509.18-4.0313c-15.876 15.224-10.896 6.224-3.5359 17.829 0.0273 7.6523 4.8385 13.641 1.0254 25.717-1.223 2.359-1.3307 3.4824-0.66077 5.8558-1.1643 13.341-12.679 13.17-23.874 15.24 1.8559-0.11319 17.738 27.12-11.894 29.251l0.33749 110.71 46.463-31.792-0.20257-172.81zm-348.67 58.452c-13.173 7.8792-31.679 27.568-54.953 23.29-2.816 69.075-27.242 122.55-62.082 168.51 12.029 6.6008 25.27 14.523 37.573 19.601 10.401-4.9793 16.242-7.0546 26.45-14.85 41.885-60.05 55.168-125.7 53.013-196.55zm109.37 12.633c2.3513 35.475 8.5706 69.07 28.454 96.021l1.3455-75.392c-7.0856-1.5747-12.89-5.8249-14.958-17.879zm-143.7 20.928 13.287 0.29104s-3.0145 5.5744-4.3194 8.6906c-1.5849 3.8082-0.83269 4.5841 2.1966 1.9373 3.9429-3.4453 10.228-3.7651 13.534-0.69069 8.7804 8.1638-0.4026 21.468-10.788 15.632-4.4464-2.4986-5.1903-1.6607-1.6618 1.876 6.8632 5.9104-0.30402 14.421-8.3243 14.458-5.7996-0.0222-9.557-4.3251-10.013-9.0656-0.22238-2.9823 1.3914-5.9746 4.1801-7.4291 2.9078-1.5165 0.82504-2.5025-2.3338-0.92523-10.313 5.1496-17.215-8.0765-9.4327-15.603 4.4875-4.3398 9.2364-3.9355 13.798 0.2067 3.1851 2.8922 4.3258 2.635 3.4269-0.78592-0.90517-3.8506-3.55-8.5927-3.55-8.5927zm358.65 10.382 9.519 0.01c-0.93626 2.1861-2.1456 4.4148-2.9056 6.576-0.81865 2.3537-0.2193 2.6542 2.3025 0.37771 6.5617-4.0887 13.56 2e-3 12.138 6.4783-0.98175 4.4684-5.0133 6.6601-9.6704 4.7195-4.1062-1.7111-2.7886-0.9777-0.45366 1.6294 2.7775 3.1013 2.0716 6.7204-1.6008 9.1163-6.4966 4.2384-15.074-2.8036-10.776-8.9497 2.5338-3.6548 1.3721-3.2585-0.93537-1.4908-3.4634 2.3515-8.6982-0.977-8.8009-5.5916-0.39966-6.638 6.8197-10.374 11.91-5.6765 2.4243 1.8943 3.028 1.6629 1.9331-1.0924-1.0032-2.0015-1.3269-4.1448-2.6596-6.1065zm0.50986 48.277 9.9771-0.10558s-0.13937 0.70813-1.6761 3.3878c-1.806 3.1494-1.5302 6.4069 0.35556 4.1957 3.1822-3.7314 9.9418-2.6919 12.157 1.8691 2.581 5.3139-2.4496 11.185-7.6714 8.9528-3.394-1.4505-3.6271-1.1379-1.3717 1.887 2.1944 2.943 1.2213 6.5592-2.3447 8.6718-7.0062 4.1506-15.407-4.135-9.5698-9.438 1.5626-1.4196 1.0715-2.1107-0.82336-1.1549-7.7351 3.9015-13.439-5.7987-6.751-11.479 2.8479-2.4187 5.025-2.252 9.7077 0.75112 1.4574 0.9347 1.7376-0.0285 0.68718-2.401-1.7897-4.0427-2.6766-5.137-2.6766-5.137zm-370.36 5.8079c11.104-0.14964 20.227 8.075 20.388 18.381 0.16123 10.306-8.7002 18.788-19.804 18.937-11.104 0.14964-20.243-8.0898-20.404-18.395-0.16123-10.306 8.7166-18.773 19.821-18.923zm0.22921 3.3304c-9.122 0.12301-16.414 7.0753-16.282 15.542 0.13254 8.4663 7.6394 15.234 16.761 15.111 9.122-0.12301 16.414-7.0902 16.282-15.557-0.13254-8.4663-7.6392-15.219-16.761-15.096zm0.18889 5.8871c5.6154-0.0758 10.227 4.0816 10.308 9.2935 0.0816 5.2118-4.3975 9.5067-10.013 9.5824-5.6155 0.0758-10.243-4.0964-10.325-9.3082-0.0816-5.2118 4.4138-9.4919 10.029-9.5676zm-25.274 45.213 11.607 5.266s-5.4883 4.1448-7.6727 6.2803c-2.792 2.751-2.5984 4.0393 1.1715 2.7233 7.1888-2.5095 14.388 1.2482 14.523 8.1731 0.18036 9.2417-11.598 13.69-17.254 6.6925-1.6814-2.0805-3.6891-2.946-2.9025-1.2464 1.9145 4.1363 0.74394 9.3447-2.5905 11.485-2.6693 1.7137-7.5546 2.2172-10.018 1.0319-8.4726-4.0764-8.9126-13.137-0.80922-16.716 4.0738-1.7994 4.2086-3.4857 0.20153-2.5589-8.3436 1.9299-13.209-7.4419-7.1911-13.88 6.387-6.8331 16.8-5.4197 17.951 4.691 0.20495 1.7988 1.5258 0.49749 2.1159-2.2578 0.70896-2.0472 0.86766-9.6842 0.86766-9.6842zm108.19 15.201s-42.503 22.446-41.209 23.394c0.25072 0.13728 9.4201 12.113 9.4201 12.113 21.087-44.345 71.587-7.6208 79.677 15.02 1.7546 1.0033 2.0539 0.71649 3.9612 1.5101 0.18002-1.598 3.6826-17.324 3.6826-17.324zm-68.161 163.04c-2.1294 2.4741-9.2538 9.4883-8.356 9.7526 62.464 12.461 126.88 11.471 192.46 4.8648l-5.0054-14.618c-64.753 15.314-179.1 8.2e-4 -179.1 8.2e-4z" fill="#d40000"/>
<path d="m96 117.34 3.8307 815.02 548.17-1.7982-3.2864-814.2zm166.71 5.8072 273.4-1.0363c-12.819 30.898-49.75 79.716-48.002 79.832-56.871-8.7218-115.5-13.122-181.06-0.12555zm-160.38 1.9872 153.42-0.18451 50.602 84.18s2.9715 5.253 1.1964 10.749c-1.9372 5.998-3.6026 8.6604-5.3456 11.722 0.17455-1.7467-14.581-3.479-13.347 8.2459 0.83579 7.9362 11.659 12.425 19.717 6.25 1.2879-0.0999 1.2777 1.0092 0.99634 2.9464-0.74384 4.547-5.946 18.976-9.5144 19.934-18.166-13.825-24.648 11.422-12.4 16.456 7.0904 2.914 17.996 0.50567 23.092-7.4056 3.8987-6.0518 3.4667-5.0522 4.6955 2.2925 0.45691 2.7313 1.1026 5.8969 1.4352 7.3203 1.0402 4.4514 1e-3 5.3148-8.0721 7.3349-6.4964 2.3486-13.081 3.6453-19.781 4.9903-12.244 1.8635-18.503 10.436-18.808 20.867-0.0659 2.255 0.0205 3.2979-0.50163 3.9681-51.802 18.247-106.85 43.78-164.59 87.379zm347.85 199.88c-1.962-2.945-8.235-18.408-9.956-24.86-4.4964-31.279-5.35-68.41-10.154-97.526l6.3287 0.65838s2.38 8.4306 4.9399 31.206c1.269 11.29 2.5935 34.761 3.6512 45.552 1.5986 16.033 9.4044 41.67 14.24 48.142 7.8857 10.554 23.737 3.7274 18.436-8.8048-2.7505-6.5021-13.402-5.449-11.925 1.2983 0.0273 1.2033 1.0118-0.86052 2.5703-2.1289 4.6028-1.6178 9.7829 2.828 7.0804 8.1814-3.3561 6.8348-13.286 3.7158-16.58-4.8992-3.935-10.291 9.322-18.006 19.239-11.73 11.048 6.9918 11.071 24.717 2.1735 30.311-14.975 5.0687-25.156-5.0571-30.044-15.4zm37.021 13.039c-0.60342-0.33028 0.0205-1.4075 0.76075-3.966 2.7692-9.5656 1.0255-17.03-5.6433-24.066-3.7155-3.9195-5.1131-4.6083-3.1671-5.319 4.1248-1.5064 13.238 4.6353 15.743 10.674 2.4718 5.9292 3.0899 12.061-0.39016 18.764-2.4204 1.438-6.1847 4.3225-7.303 3.9125zm11.284-6.3705c-0.0102-1.119 0.80137-4.649 0.98815-6.3758 0.72215-6.6744-2.6414-13.451-8.5918-18.749-4.9938-4.4463-5.452-4.9044-0.72598-4.9782 12.189-0.19022 19.962 18.099 14.338 27.109-1.4486 1.4277-5.8642 4.3497-6.0078 2.9939zm10.321-6.1898c3.589-15.592-12.659-25.984-12.987-25.498 0.81082-3.494 7.2634-1.4853 9.4618-0.12555 8.2138 5.1184 12.937 18.497 7.8952 26.101-0.54805 0.93332-1.2217 1.4694-2.1078 1.9727-1.6951 0.98746-2.6944 1.7822-3.0395 1.0896-0.26131-0.52456 0.68116-2.794 0.77705-3.5401zm-142.95-50.585c1.698-1.5463 2.2061-1.5907 5.4691-0.44743 10.224 3.5821 18.388-3.225 15.976-10.38-0.87358-2.5912-4.7045-5.4032-7.062-5.6301-3.852-0.37061-3.9295 1.5168 0.2234 2.9568 5.1012 1.7688 5.6168 6.7925 1.1242 9.0585-5.2739 3.3056-13.913-5.0846-20.25-4.376-3.0293 0.84004-4.968 3.469-3.2372 6.6807 1.3508 2.2523 5.9086 3.6163 7.7561 2.1377zm-11.34-1.0247c-3.5453-1.5274-4.8957-1.4987-4.2177-5.0888 0.44632-2.3632 4.0768-18.267 5.8027-24.414 5.1686-18.409 0.31221-28.614-14.327-32.729-9.9209-2.7888-18.462-1.3758-28.57 3.6134l-1.8188-5.2051c42.376-10.288 114.69-8.0063 114.44-7.6081 1.4272 5.2935 1.9711 10.587 2.5289 15.881 0 0-13.549-6.1688-20.618-8.2221-10.89-3.0976-28.1 0.2996-31.151 6.1003-1.7293 3.2891-0.82947 5.4825 6.4872 1.826 11.975-5.9845 36.431-1.4242 45.051 4.921 1.9858 1.4619 1.8855 1.7813 1.9237 3.4955 0.0581 2.6136 0.22374 2.767-3.6978 0.82124-20.552-9.7519-38.115-8.6209-44.175 4.182-1.3952-0.39115-6.7245-1.2426-6.7245-1.2426l5.7222 7.8531 1.0879 8.2202s9.3504 4.814 14.505 6.8526c5.0726 1.9951 2.153-0.1284-4.0742-4.1502-4.5717-2.9528-0.93513-3.8986 2.0806-2.7684 6.2036 1.3205 15.274 2.9975 25.771-3.1878 3.2604-1.9212 10.723-0.25457 10.84 0.6154 0 0 0.99388 7.1883 1.9802 22.188 0.46657 7.0953 1.4076 16.364 1.9424 20.169 1.6155 11.495 2.0796 12.149-4.4381 6.6371-2.1868-1.8494-5.8299-4.917-5.8723-4.7342-0.82644 3.5646 8.7881 9.826 11.027 11.975 3.3977 3.2608 6.1242 11.609 4.7636 12.104-0.86166 0.31354-9.995-6.8758-17.185-13.342-2.6934-2.4222-6.7046-5.6695-6.8194-5.5586-1.4864 0.91902 4.5514 7.2426 10.205 11.971 6.598 5.5175 7.3607 6.0113 5.1428 6.8428-4.0953 1.5353-7.7809-0.37419-17.724-8.0036-0.96789-0.74268-4.7327-3.2213-4.9117-3.043-0.90678 1.1229 8.2664 9.1827 10.35 9.8759 3.8691 1.2874 4.9835 4.7563 1.9318 6.1178-2.0368 0.90875-9.6282-2.9522-15.714-7.8454-1.0903-0.87675-4.1175-2.3694-4.3181-2.1691-1.207 0.71985 5.5971 6.18 12.088 9.8076 6.3549 3.5516 7.3723 4.4285 5.7527 7.3817-1.5091 3.041-15.457-4.0006-22.435-11.253-1.4847-1.5431-2.6574-2.2078-2.3618-1.6872 3.0383 7.8168 13.038 13.418 20.477 15.648 1.3279 0.40358 3.2528 0.90107 4.12 1.5405 2.1184 1.562 1.6499 3.1873-0.6458 4.1028-7.933 2.0657-20.443-6.8509-29.392-16.192-1.0368-0.39794-0.41797 0.82473-0.14483 1.229 7.4639 11.055 21.757 19.466 30.364 17.897 5.0326-0.91794 9.0753 0.48823 9.1149 2.055 0.0342 1.2842-2.742 3.3309-8.1542 3.6887-12.244 0.80964-31.373-11.623-42.563-27.455-0.34872-0.49343-0.76208-0.67525-0.78913-0.37587-0.30367 3.356 6.6536 11.586 11.99 16.294 15.856 13.987 30.844 18.715 42.536 10.835 6.5919-4.7417 12.964-15.108 3.1434-18.572-5.2007-1.8344-8.4898 4.8097-4.0419 2.9137 5.8441-0.65302 7.1705 2.2236 6.41 4.9277-1.4885 4.6434-6.4457 5.3814-10.476 3.4294-7.0152-3.5261-5.5257-15.611 3.5558-17.723 8.1835-1.8339 15.324 4.6045 16.262 10.712 1.457 9.4869-10.075 19.754-19.323 22.307-31.545 8.7106-56.183-31.969-56.325-32.89-1.5827-2.8263-3.4863-4.3228-4.6869-1.028-1.2916 4.7713-8.4108 18.763-12.22 18.679 1.1854-4.936 6.1777-13.233 4.9663-20.501-2.1058 5.9687-6.5449 18.704-15.038 25.487-2.2009 1.8606-8.662 4.0528-4.2152-0.73545 5.3683-7.0042 12.393-16.581 10.939-25.575-1.4249 2.0208-2.2011 7.1372-3.8298 10.516-4.0777 8.4583-12.986 18.495-18.868 20.121-4.3434 1.2003-3.9374-0.16042 0.50931-4.5063 4.7672-4.6592 13.208-18.339 12.651-24.237-0.24014-2.6045-8.7563 22.528-24.762 29.408-4.3221 1.4668-6.7788-0.37955-6.7788-0.37955 6.2922-3.362 23.672-19.263 22.031-37.328 0 0-0.92663 2.6746-2.2947 6.6864-5.8924 17.242-18.554 28.578-28.421 29.517-7.8772 0.74937-13.377-2.1994-11.423-3.5022 10.213 0.0697 18.606-3.2067 25.163-12.445 6.6645-9.3898 9.1482-24.477 5.1097-40.446-3.6421-14.401-4.4421-27.35-5.7134-41.193 11.189 3.547 22.448 5.9071 33.344 1.9558-1.0929 4.1249-2.912 4.6372-5.7865 7.7513-2.0855 2.2765-1.3729 2.818 6.7675-2.5173 2.3687-1.5525 3.223-2.7968 3.6511-2.3812 0.69427 0.6742-0.38607 4.921-2.754 13.386-3.541 12.658-2.6215 13.565 10.482 18.335 2.4447 0.88988 3.3578 1.761 4.2139 2.7087 0.40055 0.44344 2.551 4.0369 2.7548 4.1634 0.47856 0.29674 0.35289-3.6637 0.0881-4.6651-0.70326-2.6592-2.2517-4.6552-3.6061-5.4421-2.5718-2.1984-6.2819-2.392-8.6614-3.403zm247.37 165.11 0.13083-13.144 13.758 9.0588-0.1684 4.3382zm-23.513 2.8567-0.50507-243.1s10.559-6.512 15.837-9.7374c3.2974 9.6382 3.2755 30.305 2.0387 39.509-2.0664 5.9936-2.9884 32.669-0.64427 46.242 1.8686 10.82 1.5248 28.714-0.23809 37.279-0.68877 3.3463-0.15713 19.03 1.1381 33.538 0.98972 11.088 0.7048 21.169-0.73813 26.939-1.1372 4.5468-0.74255 20.84 0.55395 27.091 1.9074 9.195 2.2337 38.733 1.3792 40.338-2.2677 2.383-20.011 2.7178-18.822 1.9051zm20.92-254.41s10.634 6.5193 15.764 9.7789l0.0711 10.474-15.369-9.3124zm-158.75 16.924 6.5768 0.37955c2.6205 12.659 3.7555 27.049 4.7992 41.476 0.33373 22.245 3.2927 45.707 8.9209 61.084l-4.8364 4.7057c-8.2329-17.622-8.8813-45.42-10.718-64.234-0.8045-21.16-4.5542-43.275-4.7425-43.411zm160.03-2.218 14.303 8.9846 0.14824 11.391-14.411-8.8721zm-150.53 3.054 5.7761 0.58277c1.7571 15.029 4.451 25.228 5.4762 41.786 1.326 21.415 5.3262 38.998 7.8124 55.725l-4.3254 1.3342c-2.8964 1.2384-7.6981-18.529-9.8349-58.598-0.64673-12.127-2.8595-25.767-4.9044-40.83zm8.7375 0.56502 6.8985 1.1472c3.0503 38.045 7.8711 73.776 12.919 94.25l-5.9991 0.36798c-7.4393-29.262-7.9233-63.119-13.818-95.765zm9.9647 1.3487 6.3395 1.0202c7.6261 87.005 12.331 85.883 13.803 89.303l-6.8616 2.5833c-7.4178-25.002-8.9147-60.25-13.28-92.906zm28.783 85.459c-1.0838 2.9308-3.6543 2.658-6.4594 2.9592-3.1406-7.996-4.9754-17.527-6.2922-26.859-2.8923-20.498-3.936-39.718-6.9501-59.947l7.5616 0.71862c-0.24526 0.15439 5.3664 71.343 12.14 83.128zm-162.71-76.475c9.9682 0.44673 18.237 4.5988 19.033 10.676 0.179 1.367-0.9891 0.70277-2.3387-0.25711-8.5728-6.0975-18.328-7.9975-30.108-4.0642-2.567 0.85713-4.6676 2.2081-5.8149 2.0216-1.0307-0.61079-1.3496-2.0931-0.5615-3.3156 2.7475-4.262 14.857-5.2816 19.79-5.0606zm-23.114 12.203c0.21315 9.5826-2.2988 14.866-7.7162 17.08-6.5385 2.6724-14.923-3.0506-10.849-9.4527 3.0802-4.8404 8.3748-3.3816 9.3839 1.704l8.3077-17.168s0.85134 5.4369 0.87358 7.837zm303.45-1.5367-0.0905 9.8763-15.33-9.509 1.023-9.4957zm-271.96-1.2872c7.5529 2.7759 10.325 6.1674 10.605 7.675-0.43614 1.1234-1.1908 0.35657-6.7056-2.406-8.4931-4.834-19.563-5.6223-29.289 0.51439-2.4241 0.44463-2.6735-0.83142-0.24423-3.2555 7.4108-5.3865 17.648-5.463 25.634-2.528zm57.357-1.8494c6.6451-0.19465 14.589 1.3724 21.298 4.4964 2.9671 1.3815 5.6295 2.2429 7.5636 3.8309 1.5466 0.74835 1.6675 4.0058 0.53544 4.2516-1.011 0.13189-2.6653-0.59948-5.1401-2.2029-15.943-9.6077-27.414-8.425-36.633-2.5108-0.51115 0.32664-2.0959 0.66352-2.7222 0.61967-1.7575-0.12301-1.8483-0.7908-1.1145-1.6747 4.2663-4.4746 10.645-6.6329 16.212-6.8102zm199.22 6.9161 15.363 9.9636-7e-3 9.7974-16.334-10.54zm-277.32 3.9808 2.243 0.0599c5.2288 11.759 11.788 5.6979 14.513 0.98946l2.7317 0.41268c-4.276 15.751-21.679 7.5094-19.487-1.4622zm-3.8188 1.568c2.539 0.28343 2.4494 2.9496 3.2445 4.8901 1.7769 4.3366-4.9611 0.66691-6.1154-0.38935-1.9558-1.9101 0.82316-4.3045 2.8708-4.5008zm76.041-0.45846c6.6228 9.3522 10.443 3.8158 14.219-0.25711l1.7995 0.53347c-0.47365 6.7145-12.653 13.872-18.434-0.11191zm20.369 1.0574c0.70985 0.01 2.1323 0.48183 3.4402 0.97263 3.6224 1.3594 3.4317 2.3556-0.58029 4.0115-6.4159 2.6481-8.6466 2.9912-6.7257-0.74956 1.106-1.7112 1.8378-3.9777 3.8658-4.2346zm-25.167 1.4262c1.6146 1.1012 2.6754 2.3197 2.8615 4.3015 0.13117 1.397-4.878-0.21241-4.869-2.4381 0.15918-1.4146 0.98401-2.5615 2.0075-1.8633zm-44.389 0.53249c3.2915 1.1316 2.8971 2.587 0.60444 3.9068-4.1176 2.1299-5.8803 1.7106-3.2181-1.6382 1.228-1.5448 1.4934-2.2365 2.6137-2.2686zm253.25 4.9298 16.638 10.854-0.14756 9.965-16.624-10.515c-0.77322-4.2699-0.0441-7.1411 0.13322-10.303zm-287.53 15.424c0.78865 0.019 1.1006 2.4386 1.2855 5.977 0.30709 5.883-6.1458 14.076-12.669 16.898-7.8559 3.3988-16.268-1.3672-14.86-8.4302 1.2976-6.5097 11.263-6.7788 11.64-0.76452-0.96905 1.582 0.3889 2.9063 0.94524 2.7677 2.5629-0.63847 8.6066-5.6845 11.065-11.331 0.95784-2.2002 1.5398-4.4646 2.2252-4.9779 0.13322-0.0996 0.25551-0.14203 0.36824-0.1395zm287.08-1.8366 16.627 11.258 0.0738 9.9011-16.488-10.526c-0.65134-4.4123-0.36813-7.56-0.21281-10.633zm-201.74 15.679c-1.2567 1.9594-0.22545 5.4701 2.3508 2.4797 6.6244-7.156 16.219 1.7991 11.086 7.4892-4.6586 5.1642-10.391 3.5014-22.497-0.78799-8.819-3.1247-10.209-2.0601-12.383 0.19688-1.7899 1.8582-0.87839 5.6008 1.4399 5.5563 7.1464 1.5052 13.335 2.9715 20.733 4.3994 15.637 2.9768 25.173-15.715 10.889-22.584-3.4167-1.643-10.489 0.49213-11.619 3.2508zm-69.008 2.1528c-6.0964 5.0732-1.0962 18.408 7.8804 19.599 1.8797 0.24919 4.6858 0.17722 7.8715-0.67579 6.2814-1.682 13.201-5.1302 13.485-7.139 1.2887-9.1276-13.353-0.94269-15.291 0.13918-4.6168 2.601-9.503 2.2642-11.964-0.82533-5.5457-6.9629 4.3954-14.952 10.433-6.4339 1.5235 2.1496 0.98753-1.4922-0.67412-3.9672-2.3459-3.4943-8.4053-3.2677-11.74-0.69709zm271.84-2.8747 15.628 10.249-0.0888 9.5336-15.152-10.138zm1.1704 13.957 14.8 9.879 0.25311 9.9086-15.532-9.488c0.30402-3.5671 0.37725-6.92 0.47922-10.3zm-82.973 5.6915c13.011 0.19846 20.353 18.04 13.491 25.464-2.0415 2.2087-3.6704 2.8-4.5949 1.9769-0.19881-0.17722 0.12809-2.173 0.26063-4.4282 0.42319-7.1918-1.2243-12.115-6.8936-17.578-4.2525-4.0977-5.86-5.366-2.2632-5.435zm-160.23 2.8438c-2.4578 0.81268-5.0573 2.46-7.0707 2.0536-1.9884-0.40143-2.9398 0.51185-3.7184 1.959-2.9787 5.5361-2.0569 7.3264 3.8466 4.1831 2.8017-1.4917 3.7819-0.95687 11.28 0.35621 5.3582 0.93833 9.0029 0.84559 13.718-0.28945 5.8611-1.411 9.3554-1.5211 12.321-0.0159 2.9656 1.5045 4.995 3.5782 5.0708 1.8899-0.32998-1.9761-2.1884-7.0304-2.6167-8.7095-0.20597-0.80783-1.6644-0.0967-3.0441-3e-3 -4.8585 0.32705-10.654-3.7289-14.408-1.5847-3.004 1.7161-3.4012 2.166-7.5228-0.078-3.0692-1.671-5.1959-0.63923-7.8561 0.24031zm156.73 1.2405c8.8105 6.8287 11.068 12.887 10.213 17.858-0.43723 3.616-0.7272 7.6104-4.5457 9.7871-0.70354 0.31164-1.754 0.50481-2.7278 0.63771 2.9621-10.271-0.52915-19.47-12.985-29.284 3.6237-1.6648 7.3195-1.1087 10.046 1.0004zm-198.73-0.0159c0.39105-9.9e-4 0.82183 0.0587 1.2592 0.19244 1.5293 0.46727 1.7702 4.1801 0.56687 5.3439-1.2034 1.1638-2.1753 0.20385-3.5703-2.7472-1.036-1.6071 0.0492-2.7842 1.7442-2.789zm-8.1367 2.8901c3.2165-0.0615 4.4364 2.6726 4.9883 4.8508 0.47037 1.8565-0.12263 7.3979-1.8311 5.4659-0.41001-1.1737-2.1578-4.9624-3.5558-5.9464-3.114-2.1916-2.8047-4.3089 0.3987-4.3703zm-9.0569 2.753c0.47016-0.0127 1.0738 0.0412 1.8063 0.15502 5.0219 0.78044 8.868 8.199 7.6996 12.408-2.6577 4.5273-3.6414 1.4749-4.5187-2.6298-0.68577-1.7017-2.743-4.3688-4.0037-5.746-2.6167-2.8584-3.0211-4.1339-0.9836-4.1872zm301.96-2.1559 15.293 10.171 0.0239 10.887-16.004-9.983c0.35672-3.81 0.53933-7.4584 0.68806-11.075zm-311.9 4.4124c7.4904 0.0127 13.884 8.0937 11.523 15.884-2.9275 8.1246-17.507 6.3914-15.086-1.71 0.69622-2.3302 3.3758-4.0351 5.9351-2.5764 3.6962 2.1068 3.2897-1.322 0.94275-2.539-3.6223-1.8784-8.6027-0.74122-9.7125 3.0608-3.8686 13.254 14.489 17.773 24.481 4.0798 3.6519-5.0046 7.6254-10.36 9.8202-12.644 1.9718-2.0522 2.3928-1.8366 2.0743 0.80913-1.2733 12.315-10.526 27.706-27.878 26.864-16.864-1.4865-22.136-18.09-9.4003-28.455 2.1399-1.7416 4.3934-2.6004 6.5766-2.7495 0.24355-0.0159 0.48273-0.0254 0.72441-0.0254zm89.361 0.67122c-6.1714 2.7736-11.763 3.8229-17.838 1.3686-4.4903-1.8142-4.42 0.15567-2.4684 1.7727 5.6415 4.4574 15.901 2.4402 20.297-0.0688 1.4262-0.81421 1.896-3.1723 0.0102-3.0723zm237.88 19.685 0.0482 9.9017-17.072-10.614c-0.26951-2.3689 0.0171-5.9697 0.57814-9.688zm-16.457 3.3073 16.257 9.9337 0.42879 9.8138-15.795-9.0893zm1.1351 13.763 15.527 9.9667 0.22408 10.713-15.384-9.3934zm-378.67 11.263-9.5044 26.647 6.2224 0.34962 4.201 7.0289 4.3165-7.2035 6.5479-0.46198zm379.32 3.5556 14.966 9.5435 0.22715 9.8938-15.549-9.9744zm-0.60803 12.113 15.344 10.284 0.30504 10.51-17.389-10.752zm-343.28 5.9472-9.4106 28.529 5.3046-0.66942 4.9673 7.6315 5.0146-6.8542 4.7552 0.24982zm-70.834 2.1208-8.9623 28.358 6.0073-0.0222 5.0726 7.1517 4.45-6.9063 6.8103-0.16644zm412.11 5.2213 18.007 11.723 0.14893 11.161-17.454-10.85zm17.801 26.508 0.20051 9.7747-15.151-10.007-1.6434-10.854zm-321.43 1.6829-11 28.819 7.3776 0.065 4.4731 6.9206 3.5795-6.9544 5.9279 0.0545zm307.48 2.8735 14.056 8.9398-0.10794 10.036-13.839-8.603zm-266.39 116.62-8.0083-7.1424c-0.0991-0.58293 6.5478-3.5715 10.641-1.6702 5.4047 2.5103 8.1811 11.539 2.1297 16.292-4.8152 3.7823-12.166 0.63616-12.311 0.19117zm-7.1272-11.779c0.14141-11.034-6.1199-13.866-11.298-16.101 0 0-0.86565-69.92-0.75289-72.009 3e-3 0.30499-1.3276-7.5722-1.4787-8.0373l-1.8e-4 4e-5c7e-5 6e-3 -1.2431-0.30753-1.2424-0.29548 0.21759 7.0895 0.71695 79.742 0.59525 80.213-9.6906 1.0379-12.397 7.1257-13.274 15.3-7.5609-0.52608-12.479 3.6976-12.63 4.3981-2.7919-3.5584-0.71139-8.8001-2.9154-12.513-6.6987 21.741 6.3294 34.75 17.7 33.537 1.8247 20.874 26.598 24.648 25.756-0.67183 29.971-1.6326 19.817-27.204-0.45899-23.82zm-140.81-87.78-10.849 28.234 7.6056-0.8051 2.7712 5.2095c12.183-9.963 18.333 5.4202 12.135-7.7723zm412.47 50.238c1.3997-0.0961 3.2418 1.0748 3.6099 2.6713 0.2661 4.7668-6.6382 3.696-6.8568 0.68599-0.15508-2.1376 1.9323-3.267 3.2469-3.3573zm4.5103 30.999c2.9764-2.2665 7.715-0.98625 7.791 2.4295 0.0676 3.0277-3.6724 4.0248-6.5994 2.3242-2.2686-1.2824-2.4124-3.6767-1.1916-4.7537zm0.42035 8.4009c16.317 1.1524 28.456-9.132 23.257-16.515 4.382-5.1125 0.80639-8.0497 2.0058-10.981 3.4635-3.2959 0.56638-10.383-0.30162-10.409-0.71061-9.5107-3.6867-10.729-8.1179-15.797-1.3311-1.4687 3.1033-2.905 4.8068-5.4298-4.5086 1.6075-8.9372-1.4968-8.9125-2.2042l-1.92-2.2115c-30.217 1.3068-57.348 3.2633-56.324 41.286-4.3467 16.138 3.0184 30.513 24.107 26.072 4.617-3.8276 1.5756-9.3752 1.0099-12.041-1.8014-7.3351 0.27805-12.101 0.85834-15.537 1.7951-10.628 10.187-20.494 11.099-3.8348 1.4713-2.091 0.7767-2.4 3.205-3.2675 5.7914-1.9374 5.7828 3.4937 4.5968 5.6849-0.76239 1.1263-1.9108 1.031-3.0897 0.905-1.6847-0.18737-3.8845-0.76624-3.9211-1.3395-0.4535 1.7292 3.0626 4.9466 2.6951 6.569-0.46534 1.5406-0.7614 1.4155 0.77558 0.39547 7.2685-4.8238 11.819 5.9557 1.3018 4.7242 5.1812 2.5668-2.4864 10.082 2.8685 13.93zm-10.758-58.029c5.7305-0.27075 7.1026-0.31798 6.8368 2.4723 1.086 5.1494 2.4773 7.5371 9.7111 6.9973 7.2898-0.88046 9.6031-1.3036 2.2649 2.7856-3.7046 1.5151-4.9087 1.8097-9.3006 1.443-4.4275-0.36963-4.089-0.78311-6.6168 0.61878-1.4126 0.78348-2.955 1.737-4.1045 1.9303-1.7017 0.28596-4.7015 0.89447-4.7015 0.89447-1.7038 7.9961-4.2979 12.022-7.8672 15.822-5.0511 5.3264-7.613 6.2581-1.4203 5.8593 2.2898 0.13189 1.105-0.93268 2.105 7.6872 0.35027 3.0192 0.95888 6.5198 1.4404 7.6946 1.61 3.9273 1.8256 5.8806-4.2957 6.1593-15.278 1.073-18.845-12.727-16.811-19.779 0.17626-1.1094 0.87266-4.78 1.0231-7.693 0.0823-1.5916-0.26405-2.9392-0.22101-4.567 0.34862-13.149 3.7079-16.614 16.285-25.162 3.7939-2.5784 10.605-3.1081 15.672-3.1637zm13.421 0.7087c7.053-0.13506 13.867 3.0095 10.468 5.05-2.1968 1.3188-10.131 0.77109-12.334-0.68337-2.8432-1.877-1.7761-4.2968 1.8667-4.3666zm-314.51 11.165-2.795 4.597-2.9186 21.401 0.51894 4.343 5.7715 7.0196 4.5646-7.2785 7.1825 0.11604zm329.77-2.1333c4.5676 0.8487 4.7481 4.7183 3.5875 7.1-2.5527 5.238-19.642 7.7716-19.642 7.7741-0.13732-2.2492 0.20051-4.4168-1.5767-6.9475 0 0 11.38-2.7632 13.787-4.8 1.6074-1.3602 2.5812-3.0822 3.8442-3.1265zm3.38 11.916c1.6555 0.0222 2.5365 1.1327 2.9845 3.3979 0.21281 1.2139-0.28079 2.2497-1.3453 3.5758-4.3403 4.3747-16.533 7.4042-20.937 6.2921-0.31084-0.37924 0.43925-4.9867 0.75805-7.0364 5.8643 0.16423 15.739-4.6628 18.539-6.2295zm-173.82 26.939c-5.8264-7.7995-18.752-6.6561-17.365-6.1101 0.0922-6.6803-1.1394-15.855-12.064-16.831-11.018-0.77404-16.68 12.715-12.499 18.425-6.8005-2.6197-16.999 3.9471-16.999 4.5639-0.86832 0.0254-8.6621 19.14 14.92 20.124 2.1467 9.0234 5.8239 13.388 13.362 17.1l0.18617 73.648 2.6626 3.3427 0.23569-77.18c12.069-0.49597 13.557-13.313 12.662-16.269 5.3607 0.21685 10.23-0.78355 14.33-3.6858l1.411 12.58s2.8312-4.4383 2.2073-6.7928c-5.2514-72.331 22.941-150.58 59.954-201.3 1.9788-2.129 2.5821-4.6711 3.5622-4.6899 9.0257-4.5131 14.728-7.5501 14.728-7.5501 14.884 6.6379 41.461 22.66 41.461 22.66l0.43163 103.07c-0.4125-1.0139 49.523-5.1696 48.774-3.9174 0 0-4.3756-1.589-4.4424-4.3006l-1.2996-241.19-21.847-13.243s-17.962 10.893-22.986 14.615l0.54931 142-38.696-21.037s0.61933-5.022 0.67614-6.6518c-0.61868-19.376-10.871-25.878-30.385-20.13-2.6151 0.77029-4.4334 1.445-5.7132 0.45272-8.2162-22.292-11.913-80.872-11.902-80.871l55.071-86.586 93.424-0.47717 1.6138 330.82 3.3803 173.4-47.683 32.228-0.69606-111.08s-6.8318-3.0306-8.6203-3.2352c-0.67184-0.0482-1.54 1.3471-0.32519 2.0657 1.7521 1.0364 6.0637 2.489 6.0637 2.489l1.012 110.1s-18.537 11.579-26.826 16.402c-6.179 3.5637-25.722 12.698-37.298 17.958-4.4915 2.0409-9.0271 3.678-9.4454 3.9959-15.768 6.2875-29.986 10.691-43.129 17.181-9.0695 3.4434-8.6606 0.0688-10.591-2.6825-18.925-17.367-43.358-18.394-63.154-10.375-3.0677 1.0555-6.8672 1.9739-9.4298 3.625-0.74139 0.5077-2.0316 1.0773-2.8793 1.2646-1.7354 0.38327-3.6356 1.0969-5.2312 2.2679-2.8453 2.088-4.7402 5.4942-6.368 8.8755-1.0075 2.0926-4.033 11.856-4.4346 14.751-0.0673 0.485 1.0113 0.37692 1.0483 0.42463 0.13766 0.17722 3.0434-11.825 4.1956-14.095 2.461-4.85 5.5628-7.7524 7.2061-8.21 0.7491-0.11762 1.402 0.96226 0.38541 2.6703-2.0207 3.3947-3.6632 10.614-4.1535 13.869-0.43816 3.0034-0.52571 5.4149 0.0782 5.5184 0.10692 0.0951 2.9672-9.0923 4.2544-12.336 3.3556-8.4562 5.4723-11.96 8.7049-13.763 3.3149-1.8497 4.1024-1.5899 3.4484 0.37619-4.9329 8.9264-6.9666 15.677-7.9328 25.185-0.14756 1.8956 0.8854 1.9503 1.7025-1.19 2.7018-9.981 6.4075-23.481 15.17-27.511 3.739-1.5684 5.3998-1.4929 4.999-0.37311-10.433 12.229-13.041 25.811-12.918 30.195 0.041 1.463 0.67894 1.1722 2.0171-1.9946 3.5338-12.053 8.7712-22.306 14.988-27.335 2.4058-1.9461 5.3187-2.4824 7.7581-2.7632 7.3678-0.84822 7.6185 1.686 1.2058 5.1516-7.3044 3.9474-15.753 18.311-16.691 29.095-0.3245 3.732 1.0979 4.1366 2.1037-0.83982 4.3324-21.434 24.134-35.605 40.004-29.042 7.1405 2.9531 8.4351 7.0567 2.2194 5.2319-12.583-3.6941-26.554 4.5805-32.314 16.127-5.2079 10.439-5.0982 15.922-1.4359 29.902 2.497 12.912 7.3644 29.412 5.7584 42.058-1.73 2.4585-7.1936-1.0105-13.646-1.7475-3.8922-0.67592-8.6468-0.84705-12.711 0.59618-3.5426 1.2581-5.5521 1.5722-6.2082-0.19624-0.21178-0.57066 2.7327-3.3535 4.0439-4.8933 2.0958-2.4611 0.89424-2.8537-2.0597-0.18134-1.4461 1.3081-4.5542 4.3683-5.406 4.5282-1.866 0.35022-1.9417-1.6016-0.4357-6.57 5.2837-19.29 3.8693-19.618-5.1931-23.525-8.9803-3.1742-6.1395-4.7744-10.117-7.9315-2.8029 2.032 3.6605 11.356 10.973 13.393 5.982 1.6668 5.2529 4.5055 2.6335 12.141-2.6571 10.687-7.1909 24.833-4.5679 34.324 5.5109 19.941 27.326 19.535 44.036 11.475l2.0382 5.0831c-14.127 5.3085-88.588 9.8448-113.68 7.1686-1.9391-6.2931-2.1326-7.9118-2.9182-15.32 0 0 15.502 6.4959 23.24 7.6227 9.6601 1.4066 24.539 1.4728 28.349-6.7836 1.1664-2.42-0.0308-4.4667-3.3652-3.0643-6.1276 2.5776-16.602 4.485-25.063 4.0002-7.1029-0.40694-17.228-3.0533-21.604-5.4994-2.0799-1.1627-3.8356-3.436-2.2058-6.2918 1.444-0.29706 3.3428 1.1836 4.4665 1.7189 12.816 6.0014 19.845 7.1672 28.204 4.8653 6.3404-1.7462 14.883-8.0939 12.773-9.8944-2.1417 0.6912-9.2464 6.2279-14.145 7.4355-10.083 2.486-20.834-1.3213-31.309-7.6174-3.2329-2.6031-1.7566-4.5002 2.2026-2.4196 15.69 7.3298 22.233 12.192 37.246 1.9053 3.354-2.3077 5.2244-2.0121 7.1944-0.61469 7.7952 6.4794 7.7709 2.8413 2.0606-3.89-1.2974-1.5292-2.4728-3.6705-3.2499-5.9505-0.57441-1.6854-0.70309-3.3725-1.7428-4.4812-1.771-1.8886-4.9588-2.805-8.6036-4.2931-5.2633-2.1487-7.0115-1.1133-3.1281 0.64323 6.8015 3.0764 10.113 6.3748 1.6657 4.5968-7.6666-3.1824-20.467-1.4009-27.709 3.2638-5.686 2.5728-8.1906 5.3274-9.5327-0.49302-2.812-12.148-0.0717-28.629-3.8405-49.828-0.71853-4.0414-1.5964-6.604-0.68509-7.1569 1.1697-0.70955 4.0876 1.9067 7.7069 6.6219 1.6493 2.1488 4.9266 6.2846 4.9075 5.4243 0.12467-4.4893-7.3983-12.913-13.608-16.232-3.4112-1.8233-5.7288-10.251-1.8258-8.3966 3.0126 1.3611 18.688 14.15 21.673 18.708 1.3866 2.1176 2.5582 0.7668 1.0913-1.7231-0.88038-1.4941-4.5664-5.883-8.1453-9.1262-6.3502-5.7547-7.0875-5.4854-5.868-6.6647 2.4128-2.3333 7.5785 0.67347 16.784 8.4044 2.3618 2.7662 5.4844 5.264 5.1004 3.8898 0.94169-2.1533-8.275-11.348-13.742-13.812-1.0223-0.59396-1.1615-1.2209-1.0665-2.3636 0.51979-4.3432 11.1 2.0346 19.881 9.4812 3.2888 2.7892 0.56225-2.4582-3.2467-6.0239-2.994-2.8027-7.8212-6.2881-11.094-7.4838-3.2511-1.2442-3.454-3.8742-0.90428-4.9786 8.802-0.3449 17.888 8.0021 23.304 14.564 1.4949 1.8024 2.8659 3.1912 1.3108-0.22066-5.0165-10.275-15.45-16.063-22.677-17.237-5.871-0.95326-5.7414-5.8707-0.22408-5.3143 6.0698 0.61206 16.009 5.696 24.434 13.564 2.4511 2.2892 6.5753 7.4852 5.7256 4.4357-0.0171-0.83044-2.6071-4.0834-5.5937-7.2185-6.8922-6.3524-14.905-11.967-23.4-13.64-3.9715-1.0423-15.76 1.0678-15.83-0.82958-0.0307-1.4006 1.2325-2.2402 4.9868-3.3995 14.57-4.4994 35.898 7.1179 47.564 24.978 0.8349 1.2782 2.415 1.8213 2.5112 1.5336-5.63-14.595-23.129-27.825-37.047-30.093-9.467-1.4093-19.012 0.83209-23.55 6.7527-5.1063 6.662-3.108 15.573 4.5598 14.859 4.0235-0.34513 3.7035-2.4638 3.6289-2.5324-0.27327-0.25109-2.6129 0.76862-4.0588 0.50516-5.2436-0.95538-4.6949-9.7558 2.9809-8.8875 8.8268 0.99847 10.073 13.917 0.20939 16.633-9.1036 2.5071-12.439-1.3514-14.93-5.9288-3.6479-6.7044 0.2678-17.513 6.6985-21.658 18-11.6 40.765-1.8783 53.629 9.6253 6.3646 5.6914 11.014 12.458 13.936 19.754 0.7504 1.6959 2.1035 1.5955 1.6189-0.22256-18.09-42.833-72.079-47.463-80.099-14.601 0 0-0.27942 1.0038-5.4709-5.8458-8.4152-11.103-20.985-13.577-36.465-6.0075-15.642 5.4531-20.917 8.927-31.762 14.132-1.5811 0.51949-11.608 6.9393-13.216 5.6044-15.36-9.4533-28.753-12.676-36.046-19.605 0.25072-1.2722-1.0452-20.48-1.0452-20.48l0.3585-82.823c0.10897-0.80811-8.1311 0.54847-21.849 2.5452-36.478 6.7574-33.287-11.047-38.114-12.299-2.55-0.47342-2.3617 0.54108-3.0559-63.312-0.20154-18.546-0.59805-51.151-0.89219-72.458-0.29411-21.307-0.37059-39.056-0.16602-39.432 0.20461-0.37524 2.254-2.0074 4.6151-3.5602 8.8882-5.8456 13.88-9.383 33.332-23.156 4.405-3.119 5.5157-3.647 5.5157-3.647 2.2329 38.364 0.22988 78.652 1.328 111.63l1.6429 6e-3 -0.63771-110.74c-3.3553-0.81649 76.697-44.292 120.57-58.397 0.82244-0.26441 2.8744 0.58369 2.8744 0.58369 25.179 28.639 91.431 19.968 96.771-14.898 10.977 21.254 59.201 62.553 81.237 12.772 0 0 7.9851 14.3 14.837 15.244 15.399 1.8972 17.107-0.35812 51.002-15.615-38.755 54.568-60.124 112.34-62.86 182.31zm-20.599-13.605c0.84754 2.4098 1.1349 5.5251 0.407 7.9842-0.98941 1.9218-2.4637 1.8953-2.4637 1.8953l-7.5056-5.9536-7.3422 6.3182s-4.492-4.2003-2.0253-10.024c4.6952-8.1353 15.448-6.6667 18.93-0.22034zm193.93-0.96033c4.805-0.28184 2.322 4.849-4.7867 8.3246-4.4611 2.1811-8.1598 2.7976-9.7612 2.0086-0.8774-2.4091-0.13458-4.6059 0.41339-5.5831 3.033-1.4444 11.365-3.9808 14.134-4.7501zm-310.19 9.6651c5.3348-0.12047 9.9584 3.4068 10.13 9.6541 0.0697 2.5454-1.338 5.0688-1.338 5.0688l-8.9136-6.0973-6.8102 6.738c-1.1612 0.37669-5.332-4.4515-2.4646-9.7048 2.0846-3.8191 5.7466-5.5762 9.3968-5.6587zm128.89 2.8683c7.4985 3.1551 8.7992 12.885 1.5063 16.633-3.466 1.7815-8.92 2.7741-11.472-0.83015l7.37-7.4577-8.4613-6.606c-0.33065-0.30689 6.4808-3.6652 11.057-1.7396zm179.99-2.5578c1.292-2e-3 1.6208 0.45703 1.992 1.5769 1.0531 3.1778-1.6209 6.3758-6.2372 7.3874-4.2663 0.9349-3.8598 1.3978-5.88-2.1395-1.583-2.7718-2.0059-2.6551 0.47166-3.532 2.9943-0.9023 6.1975-1.9543 9.6535-3.2928zm-213.27 4.773s-5.3214 5.018-7.6488 7.116l8.0082 7.7529c0.38596 0.94222-9.236 4.9842-14.298-1.1134-3.2866-3.9587-1.4358-11.488 3.2293-14.072 4.7654-2.6392 11.596-0.44658 10.709 0.31608zm11.469-0.87621c4.7262-0.0637 8.6061 3.4342 8.6747 7.8207 0.0687 4.3864-3.6999 8.0024-8.4261 8.0661-4.7262 0.0637-8.6225-3.449-8.6911-7.8354-0.0687-4.3864 3.7163-7.9877 8.4425-8.0514zm-117 13.367-7.6773 7.4592 8.3033 8.3853s-6.569 0.99605-8.9024 0.59079c-11.302-1.9631-10.196-14.264-1.4552-17.517 3.6892-1.201 6.4321-0.79895 9.7316 1.0819zm-150.69 2.5334s1.5105 15.802 2.8913 21.198c-0.90917 6.1589-5.2003 10.351-7.1318 16.674-1.0289 2.8136-4.8978 6.5956-5.6443 2.6323-2.7918-4.8967-0.12332-10.95-2.4324-14.437-1.1682-3.2531-0.81906-5.1331-1.5994-8.5439-1.7027-2.7718-3.0719-4.0815-2.8413-6.5988-0.45766-11.171-3.4644-8.9562-8.8071-8.0431-4.4027 1.3471-10.349 1.8903-13.833 4.2823-7.5664 4.9428-3.4489 7.7788-6.3006 15.243 0.44998 3.271 1.3108 4.4499 0.6936 7.2705-2.9185 13.336 2.4679 12.229 2.3045 12.436-2.244 3.0647 0.52619 9.958 1.5999 9.6052 6.5739 1.4961 4.1925 5.9514 6.331 8.3156 2.146 2.2858 2.034 3.439 11.042 3.6481 16.273 1.1801 42.13-1.0645 47.719-19.477 3.4854-25.964 8.5805-48.837-23.991-44.204zm161.78-2.544c4.5637-0.0615 8.3144 3.32 8.3807 7.5556 0.0663 4.2356-3.5771 7.7167-8.1408 7.7783-4.5636 0.0615-8.3144-3.32-8.3806-7.5556-0.0663-4.2356 3.5771-7.7167 8.1407-7.7783zm-154.65 4.0279c3.0758-0.0345 6.7006 0.56566 9.6818 3.2179 6.3868 5.682 6.6634 10.834 3.8296 32.7-0.79832 6.16-3.1353 11.31-6.2304 13.552-6.2176 4.5056-13.828 7.7178-20.102 9.1503-3.3094 0.75559-6.1884 0.77245-8.4278 0.75638-2.4182-0.0159-3.8289-1.0545-4.008-2.9356 0.53199-5.0916-5.0697-5.5873-8.3132-5.2993-5.7837 0.21305-6.3743 0.77746-2.7664-1.8163 4.1175-2.9602 13.608-3.0028 15.41-1.269 3.7009-3.4388 7.562-3.8401 12.285-4.3512-0.69978-0.9537-2.3926-4.7683-1.2726-7.2179 2.4466-3.9915 6.5624-11.034 10.883-13.675 4.274-5.1866 0.64386-2.842-2.008-2.7533-1.515 0.0507-1.3862-0.41243-1.6318-1.3533-1.0552-4.0415-2.5749-11.596-2.5873-16.094-7e-3 -2.168 2.1822-2.5776 5.2581-2.6121zm-27.228 5.599c1.6701 1.3779 1.6493 3.3012-0.10555 4.7333-2.007 1.6377-5.9921 0.73399-6.0901-2.3478 0.2661-3.1098 4.1727-3.9882 6.1958-2.3856zm288.36 10.947c-6.9349 0.32087-12.644-6.5644-10.029-13.425 1.4311-1.8576 2.0484-1.5908 2.0484-1.5908l7.8946 6.5452 7.573-7.3521c6.2392 6.9858 0.88529 15.302-7.4865 15.823zm-296.81-10.658c-0.56819 2.0077 0.17865 4.009 0.27259 4.9848-1.374 0.90827-7.2277 2.4962-10.367 3.9298-2.1811 0.6957-3.7607-1.2063-3.4585-2.9426 0.82641-3.2342 5.9532-5.3471 9.6771-6.349 1.1487-0.26155 3.0427-0.35919 3.8756 0.37699zm1.2842 9.255c2.1106-0.23619 1.4906 4.0307 0.698 6.2125-0.78688 1.5598-3.1124 1.4948-5.2023 1.6079-3.6934 0.20005-8.3465 4.1528-10.345 3.5162-0.66179-0.28437-1.1354-1.91-1.2057-2.9435 0.43351-5.6966 10.629-7.7858 16.055-8.3932zm11.158 5.9336c-0.70518 0.9543-2.9687 1.4157-4.8656 0.93258-3.101-0.7897-3.5778-4.9222-0.85622-6.3415 4.8073-1.4758 7.6961 2.7098 5.7218 5.4089zm306.45-9.4075-4.2073 5.9464-6.3958-0.10811 10.334 29.429 4.7807-11.5c0.64311-5.2878 1.3979-10.564 1.9907-15.857zm-136.03 2.4809 8.1774 6.1904 7.013-6.6544c5.2174 10.795-0.79521 15.736-7.1907 15.606-7.056-0.14393-14.578-6.3494-7.9997-15.142zm-179.51 11.16c2.591-0.45697 1.4822 6.0419 1.121 6.2287-1.6534 0.56641-8.7851 1.4316-11.788 3.781-6.3962 4.6504-9.1258 1.8126-6.1631-3.7586 2.8052-3.2395 13.115-6.1892 16.83-6.2511zm8.1384 0.30879c2.8515-0.24728 4.849 2.679 3.109 5.4672-2.3622 2.0378-6.5074 0.54367-6.4907-2.3423-0.0137-1.8136 1.6003-3.0296 3.3817-3.125zm-4.2034 16.485c0.39091 1.5167-0.18105 1.0476-3.176 1.8665-1.6502 0.45117-4.2456 1.4738-6.9472 2.7395-3.9624 1.8563-5.0742 2.8551-6.4817 2.6436-1.1176-0.22668-2.4059-0.67477-2.7513-1.7257-1.3802-4.1988 2.3048-8.4792 10.889-11.419 1.7852-0.6114 4.9774-1.1054 6.0705-1.2178 2.9138 6e-3 -0.20051 4.1597 2.3969 7.1129zm5.0712-6.3168c4.1492-0.0561 4.9271 5.0557 1.8223 5.9544-7.268 1.744-6.6534-5.9595-1.8223-5.9544zm-5.117 18.829c1.1677 1.0397 1.3324 2.7443 0.0239 3.6322-2.3969 1.0977-11.602 0.16296-11.664-2.2345-0.0352-1.582 3.0426-2.1172 5.9026-2.169 2.8599-0.0517 4.8024-0.0599 5.7362 0.77143zm415.56 2.6202-7.5836 9.415 10.179 23.646 9.2962-28.632-7.3024 2.6845zm-429.11 24.294c1.7553 72.823 1.4581 239.7 1.4581 239.7l22.331 14.088 23.512-15.681c-0.24082-52.526-0.46808-88.758-0.69199-137.39l34.452 17.563s1.0574 1.4149 0.89806 7.9853c-2.3805 18.147 16.528 29.928 29.073 22.763 4.8406-1.8876 5.2346-2.223 6.2596-0.80435 2.8209 3.9044 6.0001 20.621 6.5317 31.287 0.80103 16.07 5.3575 48.834 6.4559 49.053l-56.076 88.182-87.414 0.3941-0.99846-327.95c4.5416 4.9667 6.614 8.2234 14.209 10.808zm325.38-7.021-4.207 5.9613-5.0736-6e-3 8.9005 30.479 10.776-29.803-5.9378-0.68235zm-280.78 243.05s-10.912 7.2679-14.397 9.3569c-1.8321 0.63771-2.7196 0.75644-3.1543-0.86937-0.53438-1.9981 0.32417-5.7808 1.0841-12.033 0.70264-5.781 0.69868-6.1066-0.33715-14.346-1.082-8.6055-1.2111-8.9663-0.33407-20.325 0.97793-12.67 1.1668-24.972 0.0861-32.589-1.0276-7.2407-1.013-23.755-0.22614-32.973 0.96355-11.286 0.64947-21.188-0.94281-29.376-2.839-14.599-3.3083-19.626-0.35013-30.61 1.1069-4.1102 1.6574-6.2964 1.427-13.179-0.25619-7.6523-0.40984-10.151-3.3619-27.096-1.6993-9.7549-1.8295-11.094-0.23809-26.53 0.32109-3.1147 0.43043-5.1981 1.7093-6.1866 1.4932-1.1541 17.057-1.9947 17.057-1.9947zm-40.927-235.75 16.952-0.17088c-1.3084 4.9262-1.6019 8.6747-1.7359 12.238l-15.058-9.1846zm0.24834 6.2955 14.906 9.0315c0.0171 3.8113-0.29 7.4453 0.30675 11.254l-15.11-9.3053zm0.0273 14.331 15.955 10.121c0.62221 3.9423 1.9211 7.9283 2.4198 11.472l-18.087-11.358zm515.89 3.9884 0.83586 290.78-158.8 0.66069-50.334-89.752s0.51228-8.2555 1.757-12.468c1.5047-5.0925 1.9064-6.2022 4.017-6.4431 5.6502 2.7155 11.947-0.89591 13.875-4.8702 2.3736-4.8938-2.4328-12.301-9.8092-13.906-3.253-0.71837-6.8064 0.63869-10.4 3.1822-2.0871 1.617-2.552 1.7987-2.9681 0.39251-0.93728-3.1674 2.0941-11.778 7.5126-19.17 3.0138-4.1112 3.8289-5.2925 4.8041-3.7288 3.9439 6.3246 12.403 5.015 15.612 1.4419 3.8833-4.324 3.072-14.183-5.7251-16.796-17.212-5.1118-25.113 10.918-24.898 10.878l-3.6846-19.217c20.72-4.7116 32.68-6.377 39.261-12.207 5.179-4.5882 7.6475-12.523 7.008-19.579 0 0 57.558-21.699 84.494-35.172 46.379-23.199 87.444-54.026 87.444-54.026zm-87.643 2.1071-4.256 6.9486-6.0397 6e-3 12.217 29.343 9.3293-30.635-5.8229 0.48211zm-427.5 8.4231 18.279 11.697c0.39958 3.7976 0.92454 7.1802 0.37646 11.483l-19.242-11.812zm356.62-3.5962-4.5508 5.6072-5.2425-0.51233 10.279 29.056c3.1262-8.3979 5.9714-19.801 9.0613-28.21l-4.8608 0.21494zm-356.94 18.534 18.913 11.627c0.0728 3.5903 0.25551 6.9727-1.0911 9.5092l-17.851-10.627zm392.39 1.6769-4.5909 8.1938-6.1163-0.76963 10.937 27.851 11.954-27.591-7.4031 0.36887zm-392.35 11.866 16.399 11.176c0.23535 0.16042-0.91618 5.0986-0.65455 7.895l-15.602-8.9232zm0.44181 13.821 15.292 9.7495c0.0342 3.6961 0.30606 7.1721 0.93451 10.317l-16.601-10.001zm-0.26302 14.085 17.678 11.679 0.9351 9.3866-18.728-10.929zm145.53 3.9131c16.966 5.8701 32.874 35.812 32.385 74.577-0.3392 26.912 8.4218 65.326 8.2587 64.882 0 0-4.9204 0.61159-6.313-0.40184-6.3901-19.76-8.5193-40.641-9.5278-57.863-0.82759-14.361-1.7177-28.455-2.6981-31.746-2.7884-11.582-5.8085-25.094-13.784-33.897-6.215-6.6376-13.3-7.7934-17.535-0.33948-3.4683 6.1055 3.834 16.209 9.897 12.85 1.4652-0.76415 2.3404-2.0583 0.41934-2.0216-6.2929 0.86578-10.52-7.213-6.5374-11.063 7.0132-6.781 19.284 8.3273 13.592 16.642-2.5071 3.596-9.0642 4.2307-14.312 2.9049-11.67-5.2366-14.598-18.058-10.692-26.506 2.9788-6.4425 9.5176-10.29 16.847-8.0185zm-20.523 3.8493c1.3784 0.0596 0.43914 2.4188-0.8344 6.0989-3.0021 8.8208 2.6282 22.523 10.425 25.253 2.3397 1.4778 2.2133 2.0385 0.65209 2.8528-5.0903 2.6547-14.328-5.3066-16.767-14.175-1.7644-6.4165-1.3295-13.989 1.994-17.203 1.8173-1.7575 3.2607-2.6816 4.2403-2.8076 0.10214-0.0127 0.19778-0.0222 0.28967-0.019zm-125.19 5.2004 18.878 11.45c0.87805 3.5735 0.49226 7.3815-0.098 11.228l-18.897-12.22zm113.92-0.1452c1.4001-0.0409 0.87822 2.1359 0.4885 6.1098-0.90268 9.2021 2.1706 15.893 9.1738 21.449 2.9542 2.3434 3.7641 3.0782 2.4926 4.3078-1.805 1.7455-6.9794-0.59365-11.038-4.52-7.4307-7.1885-9.8929-20.759-4.1026-25.677 1.2708-1.0793 2.2523-1.6482 2.9857-1.6696zm209.97 1.5966c8.0668-0.29104 14.876 2.6127 15.625 11.761 1.0969 13.394-12.352 20.719-21.733 13.029-8.408-7.7204 0.11409-19.806 9.8604-14.144 4.9001 2.8687-0.94787 9.408-4.9123 6.0274-1.788-1.5247-2.573-0.57707-1.3022 1.1835 3.8364 5.3152 11.391 0.89495 10.85-3.7864-1.0633-9.2042-13.25-9.0856-17.839-5.4814-6.2796 4.932-11.811 12.196-15.937 17.488-3.3793 4.5918-4.1043 4.4694-3.6053-1.2035 1.3189-14.992 16.409-24.42 28.993-24.874zm-219.68 2.9291c1.2847-0.0431 0.77465 1.6667 0.87269 6.0743 0.51815 11.316 5.6582 18.361 12.178 22.303 2.1844 2.2393-0.61179 3.8266-4.723 2.7434-9.3661-2.6772-18.928-21.351-10.99-29.381 1.114-1.1268 1.9895-1.7172 2.6625-1.7399zm-9.1064 3.7103c1.2976-0.0764 0.56468 2.424 0.68704 7.1446 0.25756 9.9352 3.5698 14.706 11.53 20.77 2.5939 1.9758 2.9166 1.7539 1.8922 2.8489-2.7264 2.9141-11.963-1.2114-15.901-7.1617-4.6867-7.0816-5.3755-17.764-1.0153-21.8 1.2194-1.1287 2.1268-1.7616 2.8065-1.8017zm-9.0573 4.786c1.0747 6e-3 0.47505 1.8 0.64058 6.0903 0.40143 10.403 2.9613 15.552 10.074 20.365 4.4693 3.0237 5.5553 2.1173 4.1888 3.3133-2.3938 2.0954-8.942 0.29548-13.854-3.5524-7.3629-5.768-9.4295-19.996-3.4447-24.868 1.0672-0.86889 1.8319-1.3504 2.3949-1.3477zm-85.726 1.4694 18.141 11.669-0.51289 9.8526-18.048-11.336zm317.18 18.476c-7.3866-1.4037-10.18-6.35-9.2818-11.954 0.29991-1.8727 1.4792-2.9433 2.7447-0.49701 1.0866 3.8845 3.8788 9.2695 7.6967 10.315 1.5373 0.42109 0.25312 2.4042-1.1596 2.1358zm-158.82-11.633c8.3284 19.456 8.18 40.718 9.561 60.806 1.8357 26.702 6.9254 44.685 8.5882 47.716 0 0-8.1327 0.0865-8.5443-1.0063 0 0-7.6742-35.41-6.5182-52.921 0.083-19.596-4.0272-36.821-6.5392-44.561-2.6545-6.8585-2.7698-2.3277 3.4526-10.034zm-158.46 7.5982 17.451 10.587c-0.24663 3.6235-0.28215 7.2471-0.23262 10.871l-17.107-11.235zm234.67-0.90601c0.0137 0.58942 2.5229 1.0858 6.4587 0.2029 4.3686-0.97979 8.7217-0.80644 12.077 0.0491 3.5695 0.90963 3.9619-0.15852 0.73407-1.466-1.574-0.63756-4.0779-2.0886-7.8281-2.0266-3.7502 0.0621-11.471 1.9568-11.442 3.2404zm70.693-0.40866c0.42562 0.72658 1.7541 2.3607 2.94 3.6377 2.2454 2.418 2.8773 2.4342 1.8557 3.4221-2.3526 2.2752-7.2954-1.0229-7.8256-5.2286-0.46087-3.0715 1.1903-5.0117 3.0299-1.8312zm-156.27 0.82724c8.1494 10.78 9.3521 36.064 9.5193 54.035 0.15064 16.184 6.0506 45.837 6.5266 45.709-1.6789 0.91809-3.938 0.59643-6.0583-0.16232-2.0956-2.534-3.3802-9.637-5.814-28.871-0.62788-4.9621-1.8592-20.748-2.1365-33.458-0.24458-11.213-6.9937-35.48-6.9937-35.48s2.6204-1.7293 4.9565-1.774zm-9.0726 2.6958c7.4291 15.383 8.6371 30.658 8.9713 49.194 0.31596 17.533 4.512 38.073 6.0992 47.137-2.508 0.24126-5.1543 0.43494-6.2058-0.61295-0.669-0.85006-1.199-2.1816-1.5274-3.8989-3.3793-15.164-4.1865-31.652-5.1562-45.598-1.4529-21.613-1.8265-26.962-5.1285-37.737-1.8729-6.1112-2.5299-5.9833-1.1172-7.159 1.0747-0.89419 3.1278-1.3426 4.0646-1.3254zm83.517 3.5382c0.20461 7.1593 1.1972 4.2421 3.9205 3.1013 2.0515-0.162 3.727 0.87872 7.5403 2.1778 4.8558 1.6542 4.4177 2.2094 7.8306 0.65559 2.105-0.95833 3.7833-1.2893 4.7901-0.53033 3.9904 3.0081 9.1404 1.3142 12.038-1.1226 2.2614-1.0956 4.7305-0.49834 6.6449-0.3352 2.7614 0.23556 2.0422-1.3982 2.3825-4.6358 0.30231-2.8749-0.8804-3.1268-4.0843-2.1573-3.2786 0.99199-6.5337 1.134-9.3793 0.32793-7.2767-2.0613-12.603-0.72242-16.21-0.19592-8.5199 1.243-8.9742 0.44527-10.906-0.68739-1.4407-0.8449-3.8178-2.4021-4.6398-2.3554-0.82199 0.0466-0.54947 2.6386 0.0731 5.7574zm75.586-3.2889c0.81042-0.38453 1.1838 0.63794 2.3122 2.002 1.8869 2.2806 2.4373 3.3551 0.85618 3.5675-4.184 0.5621-5.2245 0.15598-5.0775-2.2572 0.11716-1.9243 0.57294-2.6784 1.9091-3.3123zm-167.86 3.3967c6.1422 5.7432 7.7004 37.959 8.3991 44.895 2.2142 37.582 6.058 42.981 4.0829 45.802-2.3248-0.0361-3.1358 0.76262-4.6536-1.1236-5.257-13.767-4.9519-27.914-5.8023-42.276-1.2015-19.021-3.2364-29.324-6.12-38.751-1.9172-6.2676-1.894-6.3715 1.5645-8.0932 0.61355-0.3053 1.9772-0.47041 2.5294-0.45266zm-8.2738 4.5292c2.1624 4.5656 6.5086 25.313 7.0985 43.226 0.46841 14.223 4.1289 42.031 4.8066 42.183-2.2345 0.18863-4.9166-0.23271-6.0021-1.8038-6.6998-27.415-4.565-53.992-12.31-81.561 0.46125-1.3363 2.9114-3.5405 6.4072-2.0437zm-122.75 3.3806 18.099 12.044 0.3864 10.279-18.471-12.164zm269.01-1.2965c-10.218 3.6805-12.863 6.7006-11.256 9.3547 1.354 2.2354 5.4194 1.4507 16.304-2.7646 8.1351-3.1505 10.687-1.7752 12.339 2.9801-0.0806 7.0233-7.4203 7.8404-11.562 6.8748-1.7807-0.0628-1.5159 0.0897 0.38124 2.2902 8.4228 6.1344 18.756-5.8598 13.607-13.465-4.0304-6.9475-11.004-8.9253-19.813-5.2699zm-64.142 2.8499c-8.4304 6.1407-5.4185 17.203 1.5976 18.863 1.9528 0.9205 4.8629 0.48636 6.0042-0.21558 1.0527-0.64729 1.0434-1.7005-1.1109-2.033-6.5137-1.0052-10.213-5.4389-7.0651-9.9351 3.0553-4.3633 8.7154-3.5254 19.598 0.82707 9.409 3.7629 13.534 2.6008 14.643-1.9165 0.48943-1.9946-0.10726-3.8645-4.6211-4.0197-12.554-0.43193-20.879-7.5194-29.046-1.5707zm112.84 16.936c-0.55976-3.1842-6.1371 0.0824-9.8332 5.7244-3.6357 5.5502-4.013 6.344-4.753 0.58086-1.1035-8.5937 8.5073-15.315 14.503-15.531 7.2202-0.77258 11.963 2.9755 12.148 7.2948 0.36335 8.5024-10.571 8.5872-12.065 1.9307zm-318.11-5.0751 19.167 12.215s0.64741 6.548 0.23501 10.066l-19.249-11.43zm230.14 4.103c-8.3354 5.2465-3.4366 14.821 2.394 15.899 6.1469 1.136 6.579-2.8453 0.46862-4.02-3.2671-1.1908-4.1033-4.0772-2.8295-6.3063 2.9146-4.4252 8.3036-1.5609 11.438-0.18134 6.9557 3.0714 10.56 4.1944 12.756 2.0704 3.9031-3.7745 0.42192-10.501-4.7335-8.1279-1.3914 0.64047-2.4378 1.2484-5.3966 0.56768-4.4912-0.87267-9.8811-1.8032-14.098 0.0986zm-229.98 10.42 18.854 11.978-0.57517 10.591-17.702-12.052zm0.38883 14.559 17.733 11.728c-0.262 4.4757-0.14074 6.2573 0.0519 9.1092l-17.933-10.745zm313.59 2.2566c14.221 1.2899 9.5077 16.449-0.42098 12.357-2.6486-1.8485-3.4456-1.6994-6.3877 4.9508-3.763 8.5058-4.6812 7.8143-4.1643-2.0132 0.37876-9.6219 5.1419-15.22 10.973-15.295zm-112.04 2.3076c0.33578 6e-3 0.60754 0.0596 0.77595 0.18388 0.96034 1.0002-1.9231 4.9575-4.3681 7.2794-1.8027 1.0976-6.1823-1.8663-5.1188-3.3111 1.2421-1.4066 6.4186-3.9366 8.711-4.1522zm18.974 7.8073-2.5407 0.33815c-3.8386-7.9347-11.813-6.1168-14.275 1.2507l-3.5048-0.36982c3.5404-9.0337 16.167-14.575 20.32-1.219zm71.599 1.8122-4.3002 0.23904c-3.8588-8.6094-9.3233-9.8958-13.955-1.3909l-3.3319-0.89312c5.7324-10.87 15.319-11.742 21.587 2.0449zm-21.502-9.8196c2.2006-0.12365 1.916 0.81734-0.37451 3.7234-1.9913 2.5266-2.4754 2.9232-4.4763 1.5445-3.2818-2.2613 2.1717-5.1003 4.8508-5.2679zm20.38 0.25362c0.42066 0.0222 0.91105 0.0615 1.4686 0.18959 4.4332 1.0171 6.4677 2.9657 4.2932 5.4667-1.3552 1.5589-2.6757 2.1702-3.5682 1.1262-2.9909-4.5773-4.6481-6.9192-2.1936-6.7823zm-66.974 2.7096c0.46401 1.7038-0.98978 2.9144-2.6095 1.4974-0.65978-0.57719-1.2331-1.5629-1.1515-2.2872 1.0147-0.88614 3.4389-0.15059 3.761 0.78976zm-224.21 5.8534 18.233 12.153c0.59877 4.281 0.72195 7.5322 0.69391 10.456l-18.77-11.542zm265.77 3.6824c10.502 6.6782 22.817 6.5888 30.52 0.72331 1.7218-1.3108 3.2242-1.3672 3.2523-0.10716-1.0966 4.6815-14.489 10.686-24.95 7.2828-5.7465-1.8693-10.468-3.7218-14.238-8.7036-2.2414-3.2442 2.3704-1.1513 5.4162 0.80469zm-4.445 3.2546c15.35 12.289 27.554 8.876 36.802 2.6791 1.3653-0.31671 1.3881 0.82407 1.6922 2.9458 0.38971 2.7183-2.0422 4.0606-8.6923 5.9086-12.857 3.5729-27.942-0.34002-30.659-8.3422-0.31767-1.5735-0.97021-3.6165 0.85657-3.1913zm-261.39 7.3608 18.486 11.768-0.58893 8.993-18.006-11.297zm0.29616 13.778 17.449 10.977-0.0564 7.4441-16.974-11.222zm126.75 3.4936c74.446 15.631 127.21 8.2078 178.98-0.26029l45.873 83.496-276.43 0.3437c18.052-27.136 33.071-56.806 51.576-83.58z" fill="#131f67"/>
<path d="m259.03 120.38 13.775 23.899 0.0308 1.1242 7.6142 13.801 1.1484 0.6838 1.7174 3.0066 0.19129 1.462 4.2515 6.3108-0.0273 1.3551 18.035 31.133c14.875-5.1536 137.06-14.433 182.3 0.74734l6.5892-10.365 1.5766-0.01 11.62-18.918-0.18514-1.5914 3.9104-4.1379 0.56782-1.8847 12.822-18.622 0.0454-3.0021 16.038-24.812zm276.66 3.5723s-8.364 14.924-12.674 20.955c-3.4879-2.5533-13.6-0.81979-12.996 9.0727-16.484-5.7952-20.459 12.453-7.714 16.561-6.5404 5.2996-12.791-0.69433-17.75-4.7588-4.8503 1.1151-14.92 4.4226-20.622-5.3108 0 0 2.3836 1.1943 4.7621 2.4916 13.483 3.8042 14.57-13.079 4.5414-15.844-1.2628-0.30816-3.6396-0.43348-3.6396-0.43348 3.3711-12.984-18.272-17.516-18.681-1.9132 0 0-2.573-0.39008-4.5254-0.0599-11.473 1.9408-8.8442 17.642 2.8827 16.89 1.616-0.10367 3.0599 0.16454 3.0599 0.16454-0.19129 2.5145-14.384 7.3193-24.608-1.3303-4.8488 3.4274-12.524 7.7235-22.53-0.82207 6.5808-0.24855 12.891-1.9864 12.819-8.9083-0.0468-4.5069-4.4139-8.5297-10.709-8.7439-0.35706-5.0355-4.3975-9.84-9.6466-10.209-6.4064 0.34696-9.6825 5.1434-9.7271 10.209-5.4475 0.52222-10.544 4.978-9.3728 10.089 1.5981 6.9727 7.387 7.8304 13.995 6.5019-8.0374 11.99-21.123 5.7359-25.155 1.9132-4.8044 4.1595-13.18 9.7916-23.496 2.0926 5.498-0.87305 11.612-3.866 10.581-10.986-0.81305-5.6111-7.5996-7.277-10.548-6.9802-7e-3 -3.7074-3.024-9.8242-10.146-9.1923-7.771 0.68945-7.3064 9.808-7.2148 9.8798-6.4174-0.49095-11.074 6.514-9.2439 10.986 2.2274 5.442 6.8911 7.134 15.46 5.6648-9.998 8.7072-16.348 5.3275-21.805 3.4975-4.8303 4.6979-11.28 6.2132-17.892 2.0477 14.79 0.65417 12.438-23.611-5.1051-14.812-1.5166-4.5519-3.777-10.156-12.964-8.8485l-10.468-18.758zm-137.84 23.915c0.71529-0.0285 1.4758 0.11033 2.2224 0.46334 2.3132 1.0923 2.7467 2.9986 1.3366 5.8143-0.49571 0.98905-1.2115 2.1236-1.0951 3.1687 16.287 27.875 52.197 15.417 55.577 2.4662 0.21417-0.82133-0.19676-1.7204-0.66026-2.6007-1.3803-2.1306-1.198-3.8756 0.59587-5.336 3.8216-3.1111 9.3041 0.5608 7.086 4.7531-0.58555 1.1061-1.2018 2.3175-0.75696 3.7965 9.22 19.427 27.577 20.886 42.983 13.198-7.0969 11.791-34.604 19.021-46.155-9.3716-18.436 23.131-47.693 22.694-60.972-3.4228-11.943 26.714-47.971 27.346-61.084 5.1566-11.936 25.385-39.619 19.625-47.46 3.7367 25.715 17.271 42.659-0.75837 45.704-8.4449 0 0-0.59744-0.89746-1.4172-1.6442-3.2903-2.997-3.2-6.5225 0.20939-7.9218 4.3676-1.7925 8.4582 2.099 6.2164 5.9189-0.62801 1.07-1.1853 1.3046-0.77301 2.2271 8.0031 17.31 47.416 22.339 55.399-1.9431 0.27053-1.3873 0.11613-2.6696-0.56369-3.7218-1.8733-2.9001 0.50787-6.1729 3.6074-6.2926zm-115.05 9.8051c6.2166 0.32755 4.4826 5.2883 3.237 5.6648zm230.84 3.094c0.0423 0.0932-3.8329 6.4272-3.8329 6.4272-2.0521-3.041-1.5195-6.827 3.8329-6.4272zm-21.016 32.001s-3.9696 8.149-5.2822 8.8336c-73.635-17.506-176.38-2.2844-178.9-0.59786l-4.5253-7.9069c64.564-11.971 128.94-9.4143 188.71-0.32886zm-124.39 121.1c-7.1089 25.449-24.32 28.039-45.109 31.134-25.748 3.8339-42.528-4.8722-50.375-18.175 0 0-36.824 12.914-50.262 20.417 27.94 11.88 64.853 38.185 85.837 68.053 7.4757 9.1073 7.0983 7.0468 7.086 27.024-0.0307 43.322 0.0806 59.429 0.0806 59.429 11.528 1.6029 12.159 8.9599 11.531 17.223 9.2526-3.7921 18.155 0.84832 18.116 8.9516-0.0728 14.894-15.841 10.848-19.115 9.2062 5.1284 13.128-0.89131 18.564-7.0363 19.209-7.5759 0.79493-16.266-2.5855-13.733-17.611-8.2588 2.978-18.717-2.4332-20.167-11.48l-0.40263-15.32c20.427-35.67-5.216-64.673-29.294-74.211 0 0 6.8121-13.071 15.621-16.74 0.89612-0.25077-5.3416-8.7408-15.831-6.8905-4.8273 0.0926-3.704 0.0618-8.2455-5.4107-8.9771-10.818-13.204-11.559-21.95 0.0159-3.8502 5.0949-4.7706 5.2338-9.3245 5.321-5.0171 0.0961-12.716 3.4399-14.365 6.4271-0.37766 0.68333 1.5897 1.3813 4.2032 4.215 3.7605 4.0773 9.5633 9.6779 8.6481 15.38-19.829 7.4866-52.72 40.339-18.134 82.402l-25.01 0.29897-1.1917-149.74-17.393 8.983 0.77301 117.29-4.9602-1.5246c0.38097-37.411-0.22716-74.798-1.4977-112.19l-45.866 31.015 2.0452 175.86 4.8796 0.95662c3.6195 23.962 54.764 7.2034 57.751 9.282l0.61192 97.722-2.2385 4.8428 40.696 20.642 37.33-17.966s5.0384-0.84128 6.9249-1.7637c15.479-7.5695 27.015-5.8715 35.43 5.2314 5.1916 6.8496 6.0714 7.862 6.0714 7.862 3.1467-19.762 22.028-27.046 40.342-21.882 13.47 3.7982 31.875 16.255 37.507 31.463 0 0 1.0127 2.2886 2.013 3.3182l0.77301 0.31387c-0.0478-0.39629-0.88908-2.2917-1.2078-3.2136-18.889-40.26-72.118-46.435-80.329-13.542l-7.5369-9.8051 39.633-22.555 54.159 33.077s-2.5456 11.628-2.8344 16.651l0.93407 0.40358c0.26404-0.63384 0.64874-3.0467 0.88577-4.5588 0.86012-5.4922 2.4291-10.106 4.5575-13.632 1.2821-2.1247 2.767-3.8538 4.4287-5.1417 3.2346-1.7436 6.2347-1.5649 9.5178-4.4243l-7.9073-5.4855-0.17729-17.607 15.895 20.656c4.9977-1.0729 24.464-6.4638 36.01-0.49327 1.3037 0.37444 18.236-4.1054 28.779 17.817l50.761-19.565s3.2363-1.6914 3.2692-2.1374c-50.616-17.334-101.72-78.709-96.804-79.696 0 0-0.14962-6.2977 0.2415-21.748 0.40977-17.222 0.18685-34.802 0.49923-52.082-17.226-5.1041-12.944-17.989-12.944-17.989-10.354 2.1081-12.005 0.24189-14.627-1.4498l-1.7876-16.307c6.2094-4.9033 9.9349-5.3598 17.618-3.7965 0 0-3.7253-7.0848-0.33818-12.914 2.8521-4.6106 10.445-7.5209 16.507-4.2748 7.8361 4.9545 5.3381 15.335 4.2194 16.785 8.1444-3.3857 18.102 0.38761 20.549 7.862 1.2197-22.103 3.2896-46.846 8.0683-66.125 8.8118-34.795 23.238-71.234 41.308-99.89 2.9558-4.7869 6.7297-9.5828 9.7754-14.065 2.8267-3.9919 4.1711-6.5766 4.1711-6.5766s-3.8648 1.9752-7.9556 3.0342c-5.8827 1.4805-10.312 2.8898-10.983 3.5125-4.3029 3.3614-9.948 5.8523-14.558 7.7126-16.257 5.8718-27.186-2.8851-33.936-16.259-3.7573 16.985-20.529 31.357-45.264 22.426-13.975-6.8834-18.369-11.285-31.438-29.245-1.0975-1.8358-3.9295-3.946-3.9295-3.946zm0.53872 2.776c9.2486 16.97 23.093 28.993 36.551 33.799 24.029 7.3102 39.879-6.9671 44.348-20.084l4.6372 7.2873-36.382 23.973-54.898-32.39c0.91808-0.78076 5.8274-12.193 5.7431-12.585zm165.21 1.17-16.298 8.9083s-10.825 16.211-14.462 22.316c-19.013 31.165-33.286 65.071-40.728 98.709-3.0071 12.317-6.1994 34.816-7.2631 45.633-1.6969 17.254-1.616 24.339-1.1273 40.162l1.2723 1.2854s-1.9976 3.2528-3.4302 5.9937c-3.8922 7.4487-4.8431 11.661-4.6059 20.298 0.54262 19.873 13.56 38.897 31.951 46.649 1.0363 0.43684 2.4157 1.0014 2.4157 1.0014s-3.1524 7.911-8.8736 13.482c-3.8165 3.7157-4.6346 3.8973-3.2853 5.7246 1.8765 2.5429 7.9348 4.751 15.46 4.6485 2.6634-0.0361 2.6469-0.0428 7.5691 4.9325 9.6093 9.7127 12.498 9.5132 21.242-1.4947 2.5991-3.2722 4.0784-4.056 7.8751-4.1403 5.5851-0.12364 15.779-4.3071 15.734-6.2627-6.8767-2.8261-14.843-17.394-13.576-17.548 37.602-18.465 45.57-56.739 18.106-84.883l26.229-0.38862 0.96625 152.68c5.1357-3.1638 16.749-9.9695 16.749-9.9695l-0.38405-118.81c1.8036 0.31751 3.6413 1.5166 7.1479 2.0461l1.0307 112.34s3.4117-1.2842 6.3774-3.079c14.657-8.9606 43.353-29.684 43.353-29.684l-0.98234-173.13h-3.8328l0.61195 173.04-44.529 30.178-0.29001-107.54s3.5177-0.48706 4.8314-0.65765c13.033-1.6925 19.07-17.116 10.42-27.188-3.0705-3.5751-0.89192-3.322 5.6366-4.484 11.578-0.94711 17.99-9.069 14.623-14.857-1.4443-2.4829 0.43573-2.2147 1.6587-4.5737 0.80215-1.8553 0.65144-4.1562 0.30606-5.9787-0.45349-2.3918 0.60334-3.4506 1.2562-4.9773 1.0225-2.3914 0.0308-5.0931-1.6749-7.3389-1.7998-2.3702-1.3033-4.9144-1.3206-6.4869-0.0782-3.5161-1.4486-4.0182-5.4594-7.4136-3.0344-2.5688-0.59894-3.1291 3.8651-5.2613 7.0234-3.3547 7.5069-15.227-1.8359-20.283-4.9942-2.7028-14.079-2.4823-33.771 0.40358-7.4658 1.094-16.233 1.8235-16.233 1.8235s-0.0656-67.689-0.57974-102.58zm0 2.3915s39.981 21.708 39.665 22.316c-13.427 17.068-63.509 85.077-63.87 167.31-36.725-4.2773-51.762 22.372-53.547 22.271-4.8265-100.66 39.192-172.68 61.745-203.25zm-25.22 13.243-0.12878 2.4662-7.9234 10.986-0.2094-10.986zm-12.239 3.8264 0.29001 17.697-16.233 11.509-0.95012-18.459zm-150.46 4.0506 8.3421 5.3509-0.29001 17.563-12.562-21.21zm228.36 5.9189 0.0646 12.705c-32.006 41.9-48.8 89.757-53.934 150.36l-7.7946-0.23904c2.0624-60.268 23.924-115.26 61.664-162.83zm-216.77 1.3004 19.744 11.972-0.85356 20.029-17.924-10.672-1.6749-4.0954zm119.53 0.852-0.0806 18.624-15.251 10.508-0.70859-18.489zm-184.85 4.8726c2.2622 0.0254 4.0694 1.5544 4.4932 4.4542 1.6745 12.378 11.822 8.8053 14.236 12.525 0.91297 1.2692-1.2511 2.372-8.1972 1.8534-12.735-0.88411-22.018-10.444-15.509-16.74 1.6731-1.4267 3.4284-2.1099 4.9762-2.0926zm88.011 7.9816 16.861 9.9695-0.0485 20.567-16.523-9.3567zm76.931 0.0596 1.3045 18.19-18.456 11.389-0.66025-18.071zm35.124 0.0748-10.597 20.94-61.825 41.283-51.309-30.835-9.5178-20.208 59.86 36.246zm-166.73 8.3104c16.429-0.18705 29.037 15.997 33.352 30.178 3.1373 9.3764 3.6144 12.751 3.9456 27.637 0.33886 15.164 0.85124 17.782 3.9134 19.924 1.8866 1.3194 2.435 0.96324 2.6734-1.7189 0.53223-5.9584 8.207-2.2868 8.342 3.9908 0.14893 6.9725-8.122 9.2128-14.236 3.8563-3.2561-2.852-3.298-2.8246-4.316 2.7801-0.67819 3.7543-5.3924 27.258 6.6512 33.107 2.2676 0.19909 2.8108-1.4885 1.1273-3.4527-3.3796-3.9401 3.3708-8.4869 8.8736-5.9787 6.6504 3.032 5.9769 12.98-1.1274 16.516-8.1265 4.0459-18.635-0.55217-23.545-10.298-3.6027-7.1544-3.587-17.074 0.0646-31.807 1.6828-6.7903 2.4233-11.114 2.8021-16.322 0.12434-1.7096 0.34265-3.5712 0.48318-4.1403 0.39194-1.5872-0.45185-1.6623-3.3658-0.29896-7.952 3.7205-16.625 1.0763-18.762-5.7246-2.5547-8.1313 7.21-16.532 13.238-11.389 2.2883 1.9518 2.0106 3.8905-0.72474 5.1417-4.7403 2.1675-3.1213 7.8694 1.9164 6.741 16.609-4.6131 1.4237-47.869-17.28-50.864-12.366-1.9801-22.074 11.093-13.125 18.086 3.506 2.7395 7.0636 1.2695 6.2969-2.6007-1.0678-5.3985 6.6594-4.8153 9.5178 0.71744 4.6501 9.0033-7.3555 16.331-18.568 11.345-20.124-11.091-6.3672-35.084 11.853-35.424zm74.483 3.4378 16.571 10.328 0.14483 20.074-16.459-9.0578zm36.509 1.7338 0.0806 18.429-15.992 10.792v-19.61zm43.079 12.077-8.1811 21.15-51.615 32.763-42.58-24.782-7.3276-19.565 50.165 30.163zm-334.99 1.5395-0.0171 107.06c-16.725 0.66067-26.326 16.014-13.802 30.521 0 0-2.1826 0.27297-4.7347 0.59789-11.314 1.44-18.893 7.0058-17.393 13.751 0.45943 2.0666-7e-3 4.1543-0.64417 5.1866-1.0071 2.7721-0.74087 4.8894 0.61195 7.2791 1.0621 1.8767 0.88547 2.631 0.29001 4.0207-1.2833 2.992-0.9766 5.2976 0.53141 7.578 1.8632 1.6919 1.3458 3.058 1.0951 5.7695-0.29855 3.8295 0.443 5.3702 3.0438 6.8606 3.3526 1.9212 4.6019 5.0718 0.78914 4.8129-1.8924-0.1284-8.5515 5.8292-8.5515 5.8292l-0.62821-171.81zm90.684 13.736c2.993-6e-3 6.075 3.4824 10.5 9.3716 2.675 4.2179 2.7215 3.6458 8.8414 3.4228 6.2506 0.42257 10.058 1.9546 11.692 3.7068 0.61748 0.66339-1.0219 0.83634-4.9763 4.5588-4.0996 3.8603-4.6686 5.3953-7.3919 9.7154-0.98073 1.5577-3.1207 1.7048-4.1227 0.28406-0.80959-1.1496 1.2641-4.8887 5.1534-9.2969 5.4869-4.9152 4.3341-5.4105-3.6396-4.6335-5.6015 0.54587-6.1998 0.28628-8.326-2.8698-6.3416-11.701-9.7104-11.306-15.782 0.35872-1.6562 3.2644-0.99795 3.0546-8.1811 2.541-5.6566-0.40444-7.0558 0.92-3.8651 3.6769 4.9834 3.7967 6.9249 12.754 6.6511 12.645l-3.849 0.32886s-1.176-2.0171-1.691-3.2883c-1.0433-2.5733-3.8481-6.4396-6.8927-9.4912-4.3124-4.3236-1.9434-6.6886 7.6818-7.6528 5.3643-0.53727 5.4866-0.60601 7.9557-3.9609 4.348-5.91 7.2494-9.4094 10.242-9.4165zm234.13 10.657-5.556 18.265-44.03 28.653-35.816-22.181-4.7508-17.174 41.147 24.184zm-151.8 14.469s12.727 23.01 17.344 37.92c4.0168 12.971 9.6021 50.526 8.1327 52.837-3.1284-3.9846-13.468-3.0858-13.608-3.0492 0.87542-4.3995-2.9554-13.267-11.772-15.022zm144.86 8.415-4.3965 17.981-37.491 25.155-30.937-19.61-4.0583-17.383 34.238 21.224zm-217.96 1.0014 4.8636 1.5694 0.91799 32.479 37.507 5.7844 0.8535 5.5602-43.434-6.5019c-0.45533-13.851-0.70858-38.892-0.70858-38.892zm-19.035 0.97155 1.0468 37.771c-0.40567-0.12555-31.267 3.9568-43.079 6.8307l0.69253-5.1716s21.453-4.3302 36.992-5.9937c0-10.562-0.0895-21.67-0.11273-32.435zm348.95 6.9502s5.1039 0.44042 16.024-1.3452c28.152-4.5714 35.777-2.7189 39.375 5.336 3.9321 12.49-10.822 12.792-13.451 4.8635-1.6726-5.1387-7.7186-4.0134-27.905 0.42768-17.264 3.7982-28.204 0.75746-27.993-8.3196 0.21623-9.3328 11.671-10.158 13.95-0.96238zm-231.36-6.8307c3.4811-0.0469 6.359 2.5386 6.4096 5.7695 0.0505 3.2308-2.7352 5.887-6.2163 5.9339-3.4811 0.0469-6.3429-2.5236-6.3935-5.7545-0.0509-3.2308 2.7191-5.9019 6.2002-5.9488zm-91.457 1.0313 4.4448 1.2406s0.6552 24.638 0.78913 24.677c9.5652 1.9567 29.648 5.4556 29.648 5.4556l1.0628 4.8727c-8.4065-1.8315-35.204-5.904-35.204-5.904-0.83618-10.685-0.74087-30.342-0.74087-30.342zm-32.45 0.46338s0.0171 19.66-0.33817 30.222c0.14962-0.0926-22.741 3.3825-34.367 5.62l0.90186-3.946c9.1939-1.9265 19.201-3.859 29.326-5.8292-0.20086-7.7332-0.19334-24.692-0.19334-24.692zm16.346 4.2299c2.795-0.0377 5.1128 2.0543 5.1534 4.6485 0.0406 2.5941-2.2134 4.7154-5.0085 4.7531-2.795 0.0377-5.0806-2.0244-5.1212-4.6186-0.0406-2.5941 2.1812-4.7453 4.9763-4.783zm380.9 12.271c3.1145 4.2822 5.7248 4.1544 8.7931 3.7367-0.77291 0.21114-4.3945 2.1985-4.1872 2.8548 0.1035 0.32822-1.528 5.7417 0.95016 5.9638 9.3421 0.83709 4.6147 9.841 5.7332 11.225 2.5257 2.6714 4.3734 4.3661 2.6411 7.6976-1.5363 2.9572-3.7431 2.8636-2.0292 5.3958 3.7226 5.1932-1.4202 6.2702-0.96624 9.8051 0.31289 2.1342 1.122 5.0505 0.27361 6.7111-2.5573 5.0058-11.589 7.8605-21.628 8.2506-1.4305 0.0593-0.34528-2.1101-1.0146-3.4826-2.482-1.4564-1.1234-3.9099-0.29001-5.5154 0.8234-2.1315 0.83057-2.1332-0.70859-3.2135-4.2843-2.4708-4.0639-3.61-3.7201-5.3958 0.93892-5.2785 0.0557-5.7952-1.6587-6.5766-2.1966-1.0013-1.8961-3.2279-0.91799-6.0834 0.67505-1.974 0.1971-2.4683-0.83743-4.2598-0.60888-1.0531-0.79023-1.6256-0.80523-2.3018 0.3088-2.7259-2.3231-2.7163-6.007-0.0447-3.1238 4.9957-4.1961 11.552-6.152 15.694-1.5132 3.1816-1.7531 6.5056 0.0485 13.841 3.4578 11.212 0.89004 13.081-12.706 10.687-10.225-2.334-13.245-12.461-10.404-24.857 0.45984-2.005 0.33373-3.944 0.12877-5.5154-1.1126-8.5332 1.264-16.73 7.6819-22.331 10.712-9.3482 16.008-10.772 38.152-9.4613 8.666 0.56885 9.3244 1.0762 9.3244 1.0762s0.0376-3.8703 0.30606-3.9011zm-159.48 2.5708-2.5767 17.383-20.791 13.617c-9.7891-7.1736-17.349-4.7838-24.237 2.8997-5.4569-2.5678-16.362-9.566-16.362-9.566l-2.7861-19.715 30.228 19.461zm-220.97 4.1253c2.7945-0.0377 5.0807 2.0394 5.1213 4.6335 0.0406 2.5941-2.1819 4.7304-4.9763 4.768-2.795 0.0377-5.1128-2.0244-5.1534-4.6186-0.0406-2.5941 2.2134-4.7453 5.0085-4.783zm217.49 17.802-1.1434 16.74-7.392 5.1566-7.4403-0.70248-1.7554-10.373zm-217.62 0.13442c2.7951-0.0377 5.1128 2.0543 5.1534 4.6484 0.0406 2.5942-2.2134 4.7154-5.0085 4.7531-2.795 0.0377-5.0806-2.0244-5.1212-4.6185-0.0406-2.5942 2.1812-4.7453 4.9762-4.783zm20.388 0.52314c2.7943-0.0377 5.0806 2.0244 5.1212 4.6186 0.0407 2.5941-2.182 4.7304-4.9762 4.768-2.7951 0.0377-5.096-2.0394-5.1373-4.6335-0.0406-2.5941 2.1973-4.7154 4.9924-4.7531zm-40.535 0.89679c2.795-0.0377 5.0967 2.0394 5.1373 4.6335 0.0406 2.5941-2.1812 4.7304-4.9762 4.768-2.795 0.0377-5.1128-2.0394-5.1534-4.6335-0.0413-2.5941 2.1974-4.7304 4.9924-4.768zm376.51 0.7623c1.4263-0.10684 3.5383 1.8564 2.5123 4.7979-1.3745 3.3571-0.40892 4.4985 1.8843 7.2193 1.9403 2.302 1.5974 2.6215 1.3045 4.0954-0.44625 9.6643 6.2621 5.4877 3.3497 12.51-0.63381 1.5282 0.20598 3.7103 0.49923 5.5154-0.65523-1.6529-12.995-1.5016-14.043 0.17944-1.7559-0.24317-3.9802-11.002-2.2064-12.421 0.22818-3e-3 1.5135 1.8449 2.1741 2.8847 1.6574 2.6089 2.014 2.5136 1.4977-0.50817-2.0497-11.994-0.82213-24.2 3.0276-24.274zm-315.53 0.837c2.795-0.0377 5.0967 2.0394 5.1373 4.6335 0.0406 2.5941-2.1974 4.7154-4.9924 4.7531-2.795 0.0377-5.0806-2.0244-5.1212-4.6186-0.0406-2.5941 2.1812-4.7304 4.9762-4.768zm-82.004 0.86693c2.7951-0.0377 5.0802 2.0394 5.1212 4.6335 0.0406 2.5941-2.1812 4.7154-4.9763 4.7531-2.7945 0.0377-5.1128-2.0244-5.1534-4.6186-0.0406-2.5941 2.2139-4.7304 5.0085-4.768zm198.54 1.3602 15.17 9.1325c0.25107 2.879-0.14962 7.0008 0.86965 8.4001-9.9007-0.85659-14.912 4.3791-14.913 4.3794zm-155.7 7.5482c16.609 0.11222 32.695 2.5696 47.637 7.0549l-1.1757 4.9623c-29.891-7.1402-63.301-7.5163-95.226 0.32883l-2.4801-5.2164c16.086-4.6484 32.231-6.9252 47.927-7.1147 1.1118-0.0127 2.2103-0.0222 3.3175-0.0159zm-93.889 6.741c4.3528-0.0701 8.801 1.4349 11.933 4.6933 5.8851 6.1195 3.053 17.468-5.2662 21.075-12.449 5.3981-25.417-6.1448-20.131-18.041 2.1949-4.9395 7.8669-7.6374 13.463-7.7275zm308.09 1.4498-0.19334 4.9773-3.7845-2.9296zm-79.218 0.22414c5.4885-0.0739 10.002 4.0087 10.081 9.1026 0.0796 5.0939-4.303 9.2827-9.7915 9.3567-5.4881 0.0739-10.002-3.9938-10.081-9.0877-0.0796-5.0939 4.3034-9.2977 9.7915-9.3716zm-228.6 0.29896c-1.3374 0.019-3.5632 0.52469-4.5737 1.3901-2.649 2.2688 0.0103 2.333 3.5107 2.9296 6.2133 1.0594 7.9251 6.0251 7.3598 11.389-0.51378 4.8752 1.2511 4.7993 2.6734 2.9894 5.7905-7.367 0.84727-18.103-8.9702-18.698zm288.38 2.4513c-0.12741 0.0618-0.27395 0.14932-0.27395 0.14932 0.0697 0.0545 0.16464-0.0159 0.27395-0.14932zm-196.38 2.8997c7.4358-0.14235 8.2158 11.206 1.6427 23.885-1.9762 3.8119-2.9848 3.3374-5.1534-2.4214-5.3456-14.195-4.1844-21.316 3.5108-21.464zm17.2 0.32882c1.434-0.0672 2.8238 0.44065 3.9617 1.6442 3.9977 4.2295 0.923 11.075-9.7271 21.613-2.5891 2.5617-3.9293 3.5391-4.8796 3.5573-2.6662 0.051-2.6547-0.36002 0.37035-9.5062 1.3341-4.0334 2.653-8.4614 2.931-9.835 0.88792-4.3946 4.1891-7.3254 7.3436-7.4734zm-26.911 10.149c0.72669 3.1435 2.0007 7.5121 2.8183 9.7154 0.81643 2.2034 1.3582 4.2995 1.2239 4.6485-0.6568 1.6918-5.4036-0.60823-8.793-4.2598-6.8252-7.3542-9.5464-13.751-8.1355-17.186 2.0695-2.7504 7.3642-3.9714 9.8044-1.5662 2.5186 2.4826 2.8937 7.8036 3.0819 8.6478zm47.041-7.3239c7.1947 3.938-1.0939 12.929-17.216 20.387-6.8978 3.1916-6.4052 1.754-1.1756-4.5438 2.0015-2.4103 4.6819-6.3328 5.9909-8.729 2.8938-5.2973 5.7907-10.597 12.4-7.1147zm-71.826 0.0285c2.2842-0.0159 4.6213 2.2502 8.9541 8.0713 1.931 2.5942 5.0652 6.2833 6.9733 8.2058 1.9068 1.9225 3.4084 3.8344 3.3336 4.2449-0.74344 4.0813-23.187-8.8478-24.801-14.289-0.55471-3.3183 2.2586-6.2859 5.5399-6.2328zm321.22 11.838c4.0472 7.7251 4.3957 12.528 1.0468 14.274-4.7573 2.4817-10.876-1.3028-10.999-6.8008-0.0413-1.8471-2.088-8.2928-3.9617-12.481-1.5429-3.4462-1.7534-5.5732-0.48485-5.7437 4.9613 0.73697 12.304 7.1216 14.399 10.751zm-26.862-5.8592c-1.5663 4.416-3.2242 11.31-3.2048 13.318 7e-3 0.78922-0.50972 2.4049-1.1272 3.5872-4.1101 7.8532-13.834 1.4485-10.259-6.756 3.2256-7.3971 11.433-15.097 14.667-15.352 2.2124-0.17436 0.14552 4.5559-0.0765 5.203zm6.5509-4.2392c1.6213-0.14837 2.9813 3.1405 5.0765 8.6785 2.8303 7.4807 2.7122 13.315-0.33817 15.799-6.5383 5.3238-13.399-2.4058-10.758-12.122 2.1122-7.7653 4.182-12.187 6.0194-12.355zm-219.39 1.3695c8.1393 111.18-53.272 196.72-57.647 199.06l-20.896 10.605-36.656-18.532c37.984-48.339 60.689-103.74 62.409-168.08 35.139 3.1663 53.216-22.932 52.79-23.048zm201.37 0.35308c2.5633-0.65223 0.77452 1.4256-1.7681 4.8283-2.7133 3.631-6.2354 13.503-9.0285 15.084-6.2664 2.7958-13.357-2.532-9.5555-7.1616 3.5006-4.263 13.787-11.081 20.352-12.751zm37.279 0.75298c0.98374-3e-3 2.8211 0.59818 5.4916 1.8086 13.048 5.9136 19.482 13.714 13.899 17.444-3.9204 2.6196-8.1121 0.58753-12.031-6.3091-1.3299-2.3426-3.7599-5.8196-5.3789-7.7424-2.9362-3.4847-3.6194-5.1954-1.9808-5.2015zm73.356 3.9609c8.385-0.11287 15.274 6.0883 15.396 13.871 0.12194 7.7824-6.5761 14.191-14.961 14.304-8.3851 0.11318-15.274-6.1182-15.396-13.901-0.12161-7.7824 6.5759-14.161 14.961-14.274zm-4.6198 3.6579c-9.8667 4.0567-6.8947 18.434 1.6083 20.511 3.5911 0.93271 7.9603-0.45431 6.1596-2.0575-11.233-3.2718-11.306-10.957-6.7806-16.582 0.72714-0.90383-0.24799-2.1755-0.98736-1.8715zm-410.99 19.776c-0.38353 8.1256 1.5127 17.549-2.67 26.369-6.3373 13.557-26.696 19.752-37.572 18.549-2.2653-0.86347-4.9045-1.6818-7.1381-0.80226-1.3513 0.53208-3.0178 0.46414-4.4593-0.15819-1.3904-0.6004-2.7249 0.18609-4.0722-0.26504-1.5762-0.98832-4.1514-3.2326-3.849-4.9026 0.49196-2.3548 0.29616-4.0998-2.6733-4.8727-4.1147-1.0705-4.9472-3.1331-3.7362-9.1773 0.26165-1.3059 0.57708-1.8971-0.33817-2.4662-3.0305-1.8851-4.1806-5.371-2.1902-9.0428 1.2978-2.1154 2.3012-3.6098-0.0307-5.2912-0.92181-1.9348-0.76034-2.6705 1.2239-5.1417 2.1145-2.3456 2.4833-2.6141 1.1272-4.6186-3.0473-4.5053 0.4057-7.8296 4.5093-9.6855 5.498-2.0931 10.302-3.1732 16.104-3.7965 2.1583 0.11287 2.0666 1.8745 3.3659 3.5723 1.9107 2.7578-0.78326 6.7467 0.77301 8.1609 2.2479 0.96273 3.2697 2.8854 3.092 4.5289-0.0782 3.8285 0.1708 5.1383 1.2884 6.741 1.2375 1.775 1.7033 5.0352 0.54756 7.2512-1.0289 1.9727-0.91675 1.839 0.43484 3.0023 1.3377 1.1513 1.9966 6.9232 1.5212 6.8129l5.6431-0.47964c-0.58886 0.5828 2.1222-10.793 8.554-19.587-0.35457-6.8898-3.1828-13.225-2.9314-22.324 13.941-4.6324 24.008 6.3673 23.477 17.624zm216.53-15.482c2.0128 1.4666 12.003 4.0473 12.368 3.7517-0.31289 4.4401 2.5991 13.066 13.012 15.948 0.12536 12.376 0.0171 69.518 0.0171 69.518-14.505-22.557-23.495-51.677-25.397-89.218zm-242.63 2.0179s0.55269 1.6464 1.0629 4.8278c0.89056 6.5001-0.0704 7.3876-1.9325 2.9445-2.1808-5.2028-2.2939-1.1492 0.16123 10.762 0.59423 2.8846 0.57165 3.5544-0.19334 5.5004-0.47822 1.2198-1.3313 4.055-1.997 6.2777-1.9617 6.539-3.108 8.4181-5.1212 3.2136-1.0265-2.6535-1.8856-3.0671-1.1528-5.1448 0.91618-2.6011 0.69551-4.5504-1.1501-7.0817-0.30162-0.41351-0.96437-1.3612-1.079-4.0506 0.56713-6.0382-2.3287-6.095-2.8982-7.656 0.097-2.3621-1.0918-8.0876 0.65974-7.9336 1.4422 0.12682 6.6608 0.26092 9.1312-0.58292 1.0946-0.37382 4.5093-1.0762 4.5093-1.0762zm216.22 0.74734c5.3868-0.0726 9.8099 3.9237 9.8881 8.9233 0.0782 4.9996-4.2276 9.1047-9.6144 9.1773-5.3868 0.0726-9.826-3.9087-9.9042-8.9083-0.0782-4.9996 4.2436-9.1197 9.6305-9.1923zm-150.61 5.5154 7.392 1.3004c1.6471 0.50957 0.44642 95.1-58.717 163.37l-0.51532-15.814c28.152-37.815 48.424-84.191 51.84-148.86zm125.34 1.9879 1.3528 22.6c-4.162-3.2849-14.733-9.4346-14.655-9.566l0.0485-8.3552c0.0102 0.0159 9.0855 0.64605 13.254-4.6784zm-56.978 0.31386c1.7827 0.6964 3.3369 2.2972 4.8636 3.4527l-4.8313 3.0192zm169.35 1.1359c31.916 8.7859 63.345 8.5317 94.421 2.1075l2.1258 5.5303c-33.718 8.4831-67.227 7.9935-100.52-1.8683zm-154.57 4.23 1.707 9.7453-18.011 10.82 0.87573-14.796 9.3889-5.6499zm159.45 8.1161c2.9095-0.0393 5.3044 2.1264 5.3467 4.8278 0.0424 2.7015-2.2922 4.9231-5.2018 4.9624-2.9107 0.0393-5.2883-2.1264-5.3306-4.8278-0.0424-2.7014 2.2749-4.9231 5.1856-4.9623zm82.004 0.40355c2.9107-0.0393 5.3044 2.1264 5.3467 4.8278 0.0427 2.7014-2.291 4.9231-5.2018 4.9623-2.9107 0.0393-5.2883-2.1264-5.3305-4.8278-0.0427-2.7015 2.2749-4.9231 5.1856-4.9624zm-153.59 15.205c2.3605 7.7214 1.8462 25.169-1.1918 37.005-0.91197 3.5539-1.4655 16.169-1.4655 16.169-0.56366 0.66025 18.078-14.318 24.072 5.3242 2.0609 6.7534-6.3145 13.156-11.921 11.282-1.0918-0.36494-0.76218-3.7094 0.28147-5.6767 3.1094-5.8737-5.7552-8.9272-10.806-3.7217-11.669 12.028 0.33749 42.48 18.633 45.438 15.188 2.4556 27.366-11.577 17.232-19.939-4.4325-3.6569-11.523 1.3838-8.2777 6.0385 3.467 4.9731-2.9171 6.9567-7.7462 2.3466-8.4208-8.0385 1.0336-20.138 13.753-17.338 20.333 4.2909 16.15 33.793-5.1695 35.454-16.303 1.2702-27.279-5.3212-34.174-17.009-6.4763-11.231-6.9576-20.183-3.9939-39.878 1.7602-11.693 0.31222-21.546-3.1887-21.479-1.9201 0.0368-3.4167 0.89565-3.7202 2.9894-0.6207 4.2834-1.1506 5.0834-4.0422 3.5274-3.6717-1.9756-5.7123-8.339 0.29001-12.645 6.1535-4.4142 14.127 2.4746 13.802 3.662 0.14859-0.21844 0.76813-1.3379 1.5944-6.3524 2.6884-16.315-3.2835-33.552-10.661-30.79-1.619 0.6061-1.4246 1.2858 0.69246 2.3915 4.915 2.5654 0.58374 9.1397-5.5882 8.4749-8.7403-0.94165-10.727-12.258-3.0277-17.264 12.127-6.0681 22.008 3.4332 24.624 11.991zm-59.667-13.59s15.505 8.7767 16.33 11.031c0.52809 1.4452 1.1595 14.035 1.1595 14.035l-26.911-15.634-38.58 22.136c0.63119-4.859 3.408-17.368 3.408-17.368l20.517-12.047c0.10179 0.72541 14.192 9.3572 24.076-2.1523zm192.66 0.83703c2.9107-0.0393 5.3044 2.1263 5.3467 4.8278 0.0424 2.7015-2.2749 4.9231-5.1856 4.9623-2.9097 0.0393-5.3044-2.1114-5.3467-4.8128-0.0423-2.7015 2.2759-4.9381 5.1856-4.9773zm-41.066 0.0748c2.9096-0.0393 5.3194 2.1114 5.3628 4.8129 0.0424 2.7014-2.3083 4.9381-5.2178 4.9773-2.9107 0.0393-5.2883-2.1264-5.3306-4.8278-0.0424-2.7014 2.2749-4.9231 5.1857-4.9623zm20.646 1.1061c2.9108-0.0393 5.3206 2.1264 5.3628 4.8278 0.0424 2.7015-2.291 4.9231-5.2017 4.9624-2.9107 0.0393-5.3034-2.1264-5.3467-4.8278-0.0423-2.7014 2.2749-4.9231 5.1856-4.9623zm-51.695 6.9353c13.972 2.6984 27.978 5.4718 41.372 6.8307l0.54753 38.159-3.9134-0.20924-0.56365-34.094c-12.939-0.85939-25.144-3.437-36.605-6.188zm103.89 1.2406-0.72475 4.484s-24.173 3.8832-36.799 5.3958c-0.20119 7.6813-0.17728 33.346-0.17728 33.346l-4.8314 0.8221-0.0171-38.847c14.335-1.4463 28.651-2.9418 42.548-5.2015zm-233.9 2.1523 28.457 17.458 3.3497 18.504-33.175-20.462s-30.073 18.787-41.324 25.753l3.4302-17.443zm131.36 3.4527c11.456 2.2498 22.911 4.5881 34.367 5.5004l0.48317 30.701-5.2662-1.3004-0.41872-24.916c-8.947-0.71906-18.136-2.3278-27.378-4.1403zm101.35 0.91176-0.96628 4.1702s-18.336 2.5653-27.796 4.1403c-0.83747 0.17849-0.53144 27.024-0.53144 27.024l-4.5254 0.64272-0.5314-31.343zm-51.357 3.4378c2.9107-0.0393 5.2874 2.1264 5.3305 4.8278 0.0424 2.7015-2.2749 4.9231-5.1856 4.9624-2.9107 0.0393-5.3035-2.1114-5.3467-4.8129-0.0424-2.7015 2.291-4.938 5.2018-4.9773zm-181.79 11.076 33.642 21.075s3.9001 10.976 4.7347 17.054l-38.715-23.197-48.442 29.804 5.6044-18.414zm-203.91 0.64272c1.9957 0.0254 3.9873 1.2638 5.0246 4.1104 1.4605 4.0064 4.1847 5.19 11.354 5.067 14.075-0.69687 28.828-6.835 42.113-2.2271 6.4566 2.2076 8.7564 11.046 3.3497 13.348-5.8681 2.4979-8.3689 0.92862-10.403-3.3481-1.8799-1.818-4.2158-1.5333-16.829 0.47831-5.564 0.83766-12.102 1.59-17.602 2.0028-14.061 1.0547-21.826-3.0571-23.577-10.821-1.1184-4.9646 3.2451-8.651 6.5706-8.6094zm385.41 7.1296c2.9108-0.0393 5.3036 2.1114 5.3467 4.8129 0.0423 2.7015-2.291 4.938-5.2017 4.9773-2.9107 0.0393-5.3044-2.1264-5.3467-4.8278-0.0424-2.7015 2.291-4.9231 5.2017-4.9624zm-103.07 5.9638c3.7858-0.051 6.9022 2.7638 6.9572 6.2777 0.0553 3.5139-2.9781 6.406-6.7639 6.457-3.786 0.051-6.886-2.7638-6.941-6.2777-0.055-3.5139 2.9617-6.406 6.7477-6.457zm-78.38 4.4557s27.686 17.167 40.503 25.096l7.086 18.893-47.154-28.459-57.699 34.84 6.9213-19.43zm199.89 5.904c2.512 6.2778 7.0668 11.061 11.885 15.918 0 0-2.6832 4.7185-12.255 4.4392-5.229-0.15249-5.5092 0.60946-7.2954 3.9011-2.9328 4.1709-5.3193 6.896-7.2148 8.2507-3.3522 2.3956-9.6364-1.1834-14.816-8.4599-1.8874-2.6514-2.669-3.2777-8.3582-3.1687-8.7356 0.16739-11.897-2.081-7.3598-5.7246 3.9566-4.4737 6.7994-9.3924 10.339-14.095l3.9295 0.41851c0.1667 0.54121-3.0547 9.573-7.5852 13.243-2.2992 2.4094 0.91969 3.283 6.5385 2.1822 3.5638-0.99602 4.4776-0.60531 7.1181 4.4542 5.5 9.6509 8.3591 9.185 14.881-0.59786 2.2777-4.367 2.1913-4.8004 8.4549-3.5424 6.7245 0.62827 8.7531-0.15534 5.9909-2.3317-5.5838-4.3977-8.6642-14.767-8.6642-14.767zm-199.65 12.929s50.07 30.436 49.94 29.774l10.033 21.942-58.765-36.276-71.794 43.331 10.742-21.718zm1.9325 19.984 17.457 10.657-0.0485 19.177-17.828-11.12zm-4.477 0.55303 0.32211 18.923-15.654 8.6542-0.86968-17.757zm-19.857 12.197-0.14484 0.73238 0.37042 0.17944 0.12878 0.0159 0.56369 17.054-18.005 11.584 0.0646-19.266zm46.107 0.20924 16.41 10.164 0.67638 20.298-17.812-10.821zm20.259 12.391 16.459 10.612 0.57977 20.268-16.813-10.508zm-87.109 0.0748-0.0806 18.728-16.378 10.612-0.77301-19.132zm173.22 24.169c-3.2502 3.1443-4.4498 2.7545-7.2309-2.4363-2.8871-5.3862-7.2182-7.9039-13.495-7.8022-7.9185 0.12809-2.7414-4.691 5.6527-5.2613 14.513-0.59324 21.88 8.4446 15.074 15.5zm-194.14-10.986 0.43481 18.788-16.298 7.862-0.4992-8.9083 8.3904-13.617zm-21.016 25.111 0.56362 3.4228-3.0115 1.0762zm196.14 135.42c-68.586 13.619-134.34 8.8072-181.53 0.70252l-21.564 34.198-1.4816-0.0599-5.5561 8.8485 0.5959 1.0164s-17.917 31.909-25.461 41.971c88.146-0.78799 281.62-1.1808 281.62-1.1808l-11.788-22.002 0.6442-0.59789-11.644-22.973-3.7845-3.9759s-2.3116-4.1519-4.0422-8.6093c-1.5918-4.1027-8.4227-15.335-8.4227-15.335l-0.96624 0.0748zm-179.05 4.8128c0.90907 0.66925 87.852 15.875 177.97 0.25426l4.928 7.6528c-78.871 16.846-192.99 0.75448-188.49-0.80717zm1.4977 15.051c7.9502-0.26345 16.006 3.7008 21.435 10.313 1.7278 2.1042 4.5575 8.3104 4.5575 8.3104s3.8047-5.8469 7.5369-8.7738c5.6443-4.4264 12.966-8.1225 23.561-7.7724 9.753 0.32243 20.491 5.2228 30.18 19.386 2.4455-8.1721 34.493-35.94 60.891-1.3153 3.019-9.2007 17.146-27.578 40.02-14.738 1.5619 3.1033 3.1726 6.5168 3.1726 6.5168-13.5-8.7743-35.756-2.8889-41.018 10.807-0.47183 1.6679 0.12536 2.5354 0.82132 4.1552 6.9567 9.2284-11.144 9.007-5.7815 1.5396 1.003-1.6975 1.0853-3.0949-0.51535-5.321-4.2449-5.9037-17.02-13.252-26.395-13.064-10.826 0.21843-22.823 6.8861-26.83 12.944-1.4786 2.2352-1.8149 4.4732-0.51536 6.4271 0.94371 1.9702 0.62067 3.6192-0.96628 4.8278-3.7289 2.8393-8.4122-0.43558-6.6189-4.6335 1.1801-1.8496 0.99822-4.1168-1.4172-7.2642-4.8513-6.3215-16.172-12.983-26.025-12.794-14.101 0.30213-28.344 9.7273-27.442 17.488 0.39655 3.4111-0.6085 4.6826-3.6074 4.2897-3.6472-0.47757-4.061-3.6739-1.4816-6.2777 0.38234-0.83411 1.0001-2.8565-0.17728-4.3345-14.889-18.689-37.183-13.242-42.29-9.0578 4.9624-7.8963 11.892-11.426 18.907-11.659zm-13.254 12.974c5.5876 0.0425 11.605 3.9633 13.512 7.025 1.3808-1.3268 14.02-6.9218 20.163 1.0762-16.089-1.1246-16.286 14.721-4.3965 16.247-5.4219 15.287 18.885 16.211 17.344 1.8534 18.161 2.491 15.92-18.876-1.1756-16.621 8.9562-6.0533 15.051-4.099 25.815 2.8399 3.6184-4.3724 18.374-8.459 21.999-0.8221-16.913-0.96834-14.032 17.21-1.4011 17.368-3.7529 12.598 21.096 17.232 17.264-1.5844 15.772 1.0261 13.488-18.749-1.6265-17.114 1.12-3.5982 16.46-5.1536 23.239 1.7189 6.2285-5.2769 13.105-8.8908 25.526-1.3453-16.935-2.6197-17.146 17.785-1.4172 16.561-1.4678 13.513 20.77 13.74 17.055-1.8683 16.931-4.2409 7.6209-21.058-4.8153-16.427 5.5359-6.1076 14.936-3.2273 18.665-1.9879 11.523-12.241 21.564-2.0029 21.564-2.0029-20.055-1.9438-15.693 24.585 3.8489 14.962-0.0205 5.4581 2.5053 10.184 10.484 10.956l9.4855 18.22-268.8 1.6441 14.831-24.209c1.499 0.43802 10.07 1.1614 11.915-8.1654 17.664 5.2004 18.849-13.888 5.6527-16.905 1.5989-1.0244 3.4036-1.4341 5.2661-1.42zm-10.484 6.9055c1.7564 2.6188 0.28557 4.3248-2.7378 4.3943 0 0 1.9664-2.6511 2.7378-4.3943zm221.13 3.3779 1.7393 3.393c-1.882-0.70784-2.1135-1.4565-1.7394-3.393z"/>
</g>
</g>
</svg>
